G04 #@! TF.GenerationSoftware,KiCad,Pcbnew,5.1.10*
G04 #@! TF.CreationDate,2021-08-31T10:28:22-07:00*
G04 #@! TF.ProjectId,rx5cart,72783563-6172-4742-9e6b-696361645f70,1*
G04 #@! TF.SameCoordinates,Original*
G04 #@! TF.FileFunction,Copper,L2,Bot*
G04 #@! TF.FilePolarity,Positive*
%FSLAX46Y46*%
G04 Gerber Fmt 4.6, Leading zero omitted, Abs format (unit mm)*
G04 Created by KiCad (PCBNEW 5.1.10) date 2021-08-31 10:28:22*
%MOMM*%
%LPD*%
G01*
G04 APERTURE LIST*
G04 #@! TA.AperFunction,NonConductor*
%ADD10C,0.304800*%
G04 #@! TD*
G04 #@! TA.AperFunction,NonConductor*
%ADD11C,0.635000*%
G04 #@! TD*
G04 #@! TA.AperFunction,ComponentPad*
%ADD12C,1.676400*%
G04 #@! TD*
G04 #@! TA.AperFunction,ComponentPad*
%ADD13O,2.400000X1.600000*%
G04 #@! TD*
G04 #@! TA.AperFunction,ComponentPad*
%ADD14R,2.400000X1.600000*%
G04 #@! TD*
G04 #@! TA.AperFunction,ComponentPad*
%ADD15R,1.879600X1.879600*%
G04 #@! TD*
G04 #@! TA.AperFunction,ComponentPad*
%ADD16C,1.879600*%
G04 #@! TD*
G04 #@! TA.AperFunction,ComponentPad*
%ADD17C,1.778000*%
G04 #@! TD*
G04 #@! TA.AperFunction,ConnectorPad*
%ADD18R,12.999720X1.099820*%
G04 #@! TD*
G04 #@! TA.AperFunction,ComponentPad*
%ADD19R,1.778000X1.778000*%
G04 #@! TD*
G04 #@! TA.AperFunction,ComponentPad*
%ADD20C,1.397000*%
G04 #@! TD*
G04 #@! TA.AperFunction,ViaPad*
%ADD21C,1.524000*%
G04 #@! TD*
G04 #@! TA.AperFunction,Conductor*
%ADD22C,0.508000*%
G04 #@! TD*
G04 #@! TA.AperFunction,Conductor*
%ADD23C,0.200000*%
G04 #@! TD*
G04 #@! TA.AperFunction,Conductor*
%ADD24C,0.762000*%
G04 #@! TD*
G04 #@! TA.AperFunction,Conductor*
%ADD25C,1.524000*%
G04 #@! TD*
G04 #@! TA.AperFunction,Conductor*
%ADD26C,0.254000*%
G04 #@! TD*
G04 #@! TA.AperFunction,Conductor*
%ADD27C,0.150000*%
G04 #@! TD*
G04 APERTURE END LIST*
D10*
X79356857Y-131729238D02*
X79864857Y-130761619D01*
X80227714Y-131729238D02*
X80227714Y-129697238D01*
X79647142Y-129697238D01*
X79502000Y-129794000D01*
X79429428Y-129890761D01*
X79356857Y-130084285D01*
X79356857Y-130374571D01*
X79429428Y-130568095D01*
X79502000Y-130664857D01*
X79647142Y-130761619D01*
X80227714Y-130761619D01*
X78123142Y-131632476D02*
X78268285Y-131729238D01*
X78558571Y-131729238D01*
X78703714Y-131632476D01*
X78776285Y-131438952D01*
X78776285Y-130664857D01*
X78703714Y-130471333D01*
X78558571Y-130374571D01*
X78268285Y-130374571D01*
X78123142Y-130471333D01*
X78050571Y-130664857D01*
X78050571Y-130858380D01*
X78776285Y-131051904D01*
X77542571Y-130374571D02*
X77179714Y-131729238D01*
X76816857Y-130374571D01*
X74784857Y-129697238D02*
X74639714Y-129697238D01*
X74494571Y-129794000D01*
X74422000Y-129890761D01*
X74349428Y-130084285D01*
X74276857Y-130471333D01*
X74276857Y-130955142D01*
X74349428Y-131342190D01*
X74422000Y-131535714D01*
X74494571Y-131632476D01*
X74639714Y-131729238D01*
X74784857Y-131729238D01*
X74930000Y-131632476D01*
X75002571Y-131535714D01*
X75075142Y-131342190D01*
X75147714Y-130955142D01*
X75147714Y-130471333D01*
X75075142Y-130084285D01*
X75002571Y-129890761D01*
X74930000Y-129794000D01*
X74784857Y-129697238D01*
X73623714Y-131535714D02*
X73551142Y-131632476D01*
X73623714Y-131729238D01*
X73696285Y-131632476D01*
X73623714Y-131535714D01*
X73623714Y-131729238D01*
X72099714Y-131729238D02*
X72970571Y-131729238D01*
X72535142Y-131729238D02*
X72535142Y-129697238D01*
X72680285Y-129987523D01*
X72825428Y-130181047D01*
X72970571Y-130277809D01*
D11*
X139155714Y-120897952D02*
X139155714Y-118103952D01*
X138309047Y-120099666D01*
X137462380Y-118103952D01*
X137462380Y-120897952D01*
X135164285Y-120897952D02*
X135164285Y-119434428D01*
X135285238Y-119168333D01*
X135527142Y-119035285D01*
X136010952Y-119035285D01*
X136252857Y-119168333D01*
X135164285Y-120764904D02*
X135406190Y-120897952D01*
X136010952Y-120897952D01*
X136252857Y-120764904D01*
X136373809Y-120498809D01*
X136373809Y-120232714D01*
X136252857Y-119966619D01*
X136010952Y-119833571D01*
X135406190Y-119833571D01*
X135164285Y-119700523D01*
X134196666Y-120897952D02*
X132866190Y-119035285D01*
X134196666Y-119035285D02*
X132866190Y-120897952D01*
X129963333Y-120897952D02*
X129963333Y-118103952D01*
X128995714Y-118103952D01*
X128753809Y-118237000D01*
X128632857Y-118370047D01*
X128511904Y-118636142D01*
X128511904Y-119035285D01*
X128632857Y-119301380D01*
X128753809Y-119434428D01*
X128995714Y-119567476D01*
X129963333Y-119567476D01*
X126334761Y-120897952D02*
X126334761Y-119434428D01*
X126455714Y-119168333D01*
X126697619Y-119035285D01*
X127181428Y-119035285D01*
X127423333Y-119168333D01*
X126334761Y-120764904D02*
X126576666Y-120897952D01*
X127181428Y-120897952D01*
X127423333Y-120764904D01*
X127544285Y-120498809D01*
X127544285Y-120232714D01*
X127423333Y-119966619D01*
X127181428Y-119833571D01*
X126576666Y-119833571D01*
X126334761Y-119700523D01*
X125246190Y-120764904D02*
X125004285Y-120897952D01*
X124520476Y-120897952D01*
X124278571Y-120764904D01*
X124157619Y-120498809D01*
X124157619Y-120365761D01*
X124278571Y-120099666D01*
X124520476Y-119966619D01*
X124883333Y-119966619D01*
X125125238Y-119833571D01*
X125246190Y-119567476D01*
X125246190Y-119434428D01*
X125125238Y-119168333D01*
X124883333Y-119035285D01*
X124520476Y-119035285D01*
X124278571Y-119168333D01*
X123431904Y-119035285D02*
X122464285Y-119035285D01*
X123069047Y-118103952D02*
X123069047Y-120498809D01*
X122948095Y-120764904D01*
X122706190Y-120897952D01*
X122464285Y-120897952D01*
X120529047Y-119035285D02*
X120529047Y-120897952D01*
X121617619Y-119035285D02*
X121617619Y-120498809D01*
X121496666Y-120764904D01*
X121254761Y-120897952D01*
X120891904Y-120897952D01*
X120650000Y-120764904D01*
X120529047Y-120631857D01*
X119440476Y-120764904D02*
X119198571Y-120897952D01*
X118714761Y-120897952D01*
X118472857Y-120764904D01*
X118351904Y-120498809D01*
X118351904Y-120365761D01*
X118472857Y-120099666D01*
X118714761Y-119966619D01*
X119077619Y-119966619D01*
X119319523Y-119833571D01*
X119440476Y-119567476D01*
X119440476Y-119434428D01*
X119319523Y-119168333D01*
X119077619Y-119035285D01*
X118714761Y-119035285D01*
X118472857Y-119168333D01*
X117263333Y-120897952D02*
X117263333Y-118103952D01*
X116174761Y-120897952D02*
X116174761Y-119434428D01*
X116295714Y-119168333D01*
X116537619Y-119035285D01*
X116900476Y-119035285D01*
X117142380Y-119168333D01*
X117263333Y-119301380D01*
X114965238Y-120897952D02*
X114965238Y-118103952D01*
X114723333Y-119833571D02*
X113997619Y-120897952D01*
X113997619Y-119035285D02*
X114965238Y-120099666D01*
X112546190Y-120897952D02*
X112788095Y-120764904D01*
X112909047Y-120631857D01*
X113030000Y-120365761D01*
X113030000Y-119567476D01*
X112909047Y-119301380D01*
X112788095Y-119168333D01*
X112546190Y-119035285D01*
X112183333Y-119035285D01*
X111941428Y-119168333D01*
X111820476Y-119301380D01*
X111699523Y-119567476D01*
X111699523Y-120365761D01*
X111820476Y-120631857D01*
X111941428Y-120764904D01*
X112183333Y-120897952D01*
X112546190Y-120897952D01*
X110852857Y-119035285D02*
X110248095Y-120897952D01*
X109643333Y-119035285D01*
X108554761Y-118103952D02*
X108796666Y-118636142D01*
X107587142Y-120764904D02*
X107345238Y-120897952D01*
X106861428Y-120897952D01*
X106619523Y-120764904D01*
X106498571Y-120498809D01*
X106498571Y-120365761D01*
X106619523Y-120099666D01*
X106861428Y-119966619D01*
X107224285Y-119966619D01*
X107466190Y-119833571D01*
X107587142Y-119567476D01*
X107587142Y-119434428D01*
X107466190Y-119168333D01*
X107224285Y-119035285D01*
X106861428Y-119035285D01*
X106619523Y-119168333D01*
X102023333Y-120897952D02*
X102870000Y-119567476D01*
X103474761Y-120897952D02*
X103474761Y-118103952D01*
X102507142Y-118103952D01*
X102265238Y-118237000D01*
X102144285Y-118370047D01*
X102023333Y-118636142D01*
X102023333Y-119035285D01*
X102144285Y-119301380D01*
X102265238Y-119434428D01*
X102507142Y-119567476D01*
X103474761Y-119567476D01*
X101176666Y-118103952D02*
X99483333Y-120897952D01*
X99483333Y-118103952D02*
X101176666Y-120897952D01*
X97306190Y-118103952D02*
X98515714Y-118103952D01*
X98636666Y-119434428D01*
X98515714Y-119301380D01*
X98273809Y-119168333D01*
X97669047Y-119168333D01*
X97427142Y-119301380D01*
X97306190Y-119434428D01*
X97185238Y-119700523D01*
X97185238Y-120365761D01*
X97306190Y-120631857D01*
X97427142Y-120764904D01*
X97669047Y-120897952D01*
X98273809Y-120897952D01*
X98515714Y-120764904D01*
X98636666Y-120631857D01*
X94645238Y-120631857D02*
X94766190Y-120764904D01*
X95129047Y-120897952D01*
X95370952Y-120897952D01*
X95733809Y-120764904D01*
X95975714Y-120498809D01*
X96096666Y-120232714D01*
X96217619Y-119700523D01*
X96217619Y-119301380D01*
X96096666Y-118769190D01*
X95975714Y-118503095D01*
X95733809Y-118237000D01*
X95370952Y-118103952D01*
X95129047Y-118103952D01*
X94766190Y-118237000D01*
X94645238Y-118370047D01*
X92468095Y-120897952D02*
X92468095Y-119434428D01*
X92589047Y-119168333D01*
X92830952Y-119035285D01*
X93314761Y-119035285D01*
X93556666Y-119168333D01*
X92468095Y-120764904D02*
X92710000Y-120897952D01*
X93314761Y-120897952D01*
X93556666Y-120764904D01*
X93677619Y-120498809D01*
X93677619Y-120232714D01*
X93556666Y-119966619D01*
X93314761Y-119833571D01*
X92710000Y-119833571D01*
X92468095Y-119700523D01*
X91258571Y-120897952D02*
X91258571Y-119035285D01*
X91258571Y-119567476D02*
X91137619Y-119301380D01*
X91016666Y-119168333D01*
X90774761Y-119035285D01*
X90532857Y-119035285D01*
X90049047Y-119035285D02*
X89081428Y-119035285D01*
X89686190Y-118103952D02*
X89686190Y-120498809D01*
X89565238Y-120764904D01*
X89323333Y-120897952D01*
X89081428Y-120897952D01*
X121799047Y-124260428D02*
X121436190Y-124393476D01*
X121315238Y-124526523D01*
X121194285Y-124792619D01*
X121194285Y-125191761D01*
X121315238Y-125457857D01*
X121436190Y-125590904D01*
X121678095Y-125723952D01*
X122645714Y-125723952D01*
X122645714Y-122929952D01*
X121799047Y-122929952D01*
X121557142Y-123063000D01*
X121436190Y-123196047D01*
X121315238Y-123462142D01*
X121315238Y-123728238D01*
X121436190Y-123994333D01*
X121557142Y-124127380D01*
X121799047Y-124260428D01*
X122645714Y-124260428D01*
X119017142Y-125723952D02*
X119017142Y-124260428D01*
X119138095Y-123994333D01*
X119380000Y-123861285D01*
X119863809Y-123861285D01*
X120105714Y-123994333D01*
X119017142Y-125590904D02*
X119259047Y-125723952D01*
X119863809Y-125723952D01*
X120105714Y-125590904D01*
X120226666Y-125324809D01*
X120226666Y-125058714D01*
X120105714Y-124792619D01*
X119863809Y-124659571D01*
X119259047Y-124659571D01*
X119017142Y-124526523D01*
X117928571Y-125590904D02*
X117686666Y-125723952D01*
X117202857Y-125723952D01*
X116960952Y-125590904D01*
X116840000Y-125324809D01*
X116840000Y-125191761D01*
X116960952Y-124925666D01*
X117202857Y-124792619D01*
X117565714Y-124792619D01*
X117807619Y-124659571D01*
X117928571Y-124393476D01*
X117928571Y-124260428D01*
X117807619Y-123994333D01*
X117565714Y-123861285D01*
X117202857Y-123861285D01*
X116960952Y-123994333D01*
X114783809Y-125590904D02*
X115025714Y-125723952D01*
X115509523Y-125723952D01*
X115751428Y-125590904D01*
X115872380Y-125324809D01*
X115872380Y-124260428D01*
X115751428Y-123994333D01*
X115509523Y-123861285D01*
X115025714Y-123861285D01*
X114783809Y-123994333D01*
X114662857Y-124260428D01*
X114662857Y-124526523D01*
X115872380Y-124792619D01*
X112485714Y-125723952D02*
X112485714Y-122929952D01*
X112485714Y-125590904D02*
X112727619Y-125723952D01*
X113211428Y-125723952D01*
X113453333Y-125590904D01*
X113574285Y-125457857D01*
X113695238Y-125191761D01*
X113695238Y-124393476D01*
X113574285Y-124127380D01*
X113453333Y-123994333D01*
X113211428Y-123861285D01*
X112727619Y-123861285D01*
X112485714Y-123994333D01*
X108978095Y-125723952D02*
X109220000Y-125590904D01*
X109340952Y-125457857D01*
X109461904Y-125191761D01*
X109461904Y-124393476D01*
X109340952Y-124127380D01*
X109220000Y-123994333D01*
X108978095Y-123861285D01*
X108615238Y-123861285D01*
X108373333Y-123994333D01*
X108252380Y-124127380D01*
X108131428Y-124393476D01*
X108131428Y-125191761D01*
X108252380Y-125457857D01*
X108373333Y-125590904D01*
X108615238Y-125723952D01*
X108978095Y-125723952D01*
X107042857Y-123861285D02*
X107042857Y-125723952D01*
X107042857Y-124127380D02*
X106921904Y-123994333D01*
X106680000Y-123861285D01*
X106317142Y-123861285D01*
X106075238Y-123994333D01*
X105954285Y-124260428D01*
X105954285Y-125723952D01*
X127544285Y-127889000D02*
X127786190Y-127755952D01*
X128149047Y-127755952D01*
X128511904Y-127889000D01*
X128753809Y-128155095D01*
X128874761Y-128421190D01*
X128995714Y-128953380D01*
X128995714Y-129352523D01*
X128874761Y-129884714D01*
X128753809Y-130150809D01*
X128511904Y-130416904D01*
X128149047Y-130549952D01*
X127907142Y-130549952D01*
X127544285Y-130416904D01*
X127423333Y-130283857D01*
X127423333Y-129352523D01*
X127907142Y-129352523D01*
X125971904Y-130549952D02*
X126213809Y-130416904D01*
X126334761Y-130150809D01*
X126334761Y-127755952D01*
X125004285Y-130549952D02*
X125004285Y-128687285D01*
X125004285Y-127755952D02*
X125125238Y-127889000D01*
X125004285Y-128022047D01*
X124883333Y-127889000D01*
X125004285Y-127755952D01*
X125004285Y-128022047D01*
X122464285Y-127889000D02*
X122706190Y-127755952D01*
X123069047Y-127755952D01*
X123431904Y-127889000D01*
X123673809Y-128155095D01*
X123794761Y-128421190D01*
X123915714Y-128953380D01*
X123915714Y-129352523D01*
X123794761Y-129884714D01*
X123673809Y-130150809D01*
X123431904Y-130416904D01*
X123069047Y-130549952D01*
X122827142Y-130549952D01*
X122464285Y-130416904D01*
X122343333Y-130283857D01*
X122343333Y-129352523D01*
X122827142Y-129352523D01*
X120891904Y-130549952D02*
X121133809Y-130416904D01*
X121254761Y-130150809D01*
X121254761Y-127755952D01*
X119924285Y-130549952D02*
X119924285Y-128687285D01*
X119924285Y-127755952D02*
X120045238Y-127889000D01*
X119924285Y-128022047D01*
X119803333Y-127889000D01*
X119924285Y-127755952D01*
X119924285Y-128022047D01*
X118593809Y-127755952D02*
X118835714Y-128288142D01*
X117626190Y-130416904D02*
X117384285Y-130549952D01*
X116900476Y-130549952D01*
X116658571Y-130416904D01*
X116537619Y-130150809D01*
X116537619Y-130017761D01*
X116658571Y-129751666D01*
X116900476Y-129618619D01*
X117263333Y-129618619D01*
X117505238Y-129485571D01*
X117626190Y-129219476D01*
X117626190Y-129086428D01*
X117505238Y-128820333D01*
X117263333Y-128687285D01*
X116900476Y-128687285D01*
X116658571Y-128820333D01*
X112062380Y-130549952D02*
X112909047Y-129219476D01*
X113513809Y-130549952D02*
X113513809Y-127755952D01*
X112546190Y-127755952D01*
X112304285Y-127889000D01*
X112183333Y-128022047D01*
X112062380Y-128288142D01*
X112062380Y-128687285D01*
X112183333Y-128953380D01*
X112304285Y-129086428D01*
X112546190Y-129219476D01*
X113513809Y-129219476D01*
X111215714Y-127755952D02*
X109522380Y-130549952D01*
X109522380Y-127755952D02*
X111215714Y-130549952D01*
X107345238Y-127755952D02*
X108554761Y-127755952D01*
X108675714Y-129086428D01*
X108554761Y-128953380D01*
X108312857Y-128820333D01*
X107708095Y-128820333D01*
X107466190Y-128953380D01*
X107345238Y-129086428D01*
X107224285Y-129352523D01*
X107224285Y-130017761D01*
X107345238Y-130283857D01*
X107466190Y-130416904D01*
X107708095Y-130549952D01*
X108312857Y-130549952D01*
X108554761Y-130416904D01*
X108675714Y-130283857D01*
X106135714Y-127755952D02*
X106135714Y-130017761D01*
X106014761Y-130283857D01*
X105893809Y-130416904D01*
X105651904Y-130549952D01*
X105168095Y-130549952D01*
X104926190Y-130416904D01*
X104805238Y-130283857D01*
X104684285Y-130017761D01*
X104684285Y-127755952D01*
X103595714Y-130416904D02*
X103232857Y-130549952D01*
X102628095Y-130549952D01*
X102386190Y-130416904D01*
X102265238Y-130283857D01*
X102144285Y-130017761D01*
X102144285Y-129751666D01*
X102265238Y-129485571D01*
X102386190Y-129352523D01*
X102628095Y-129219476D01*
X103111904Y-129086428D01*
X103353809Y-128953380D01*
X103474761Y-128820333D01*
X103595714Y-128554238D01*
X103595714Y-128288142D01*
X103474761Y-128022047D01*
X103353809Y-127889000D01*
X103111904Y-127755952D01*
X102507142Y-127755952D01*
X102144285Y-127889000D01*
X100209047Y-129086428D02*
X99846190Y-129219476D01*
X99725238Y-129352523D01*
X99604285Y-129618619D01*
X99604285Y-130017761D01*
X99725238Y-130283857D01*
X99846190Y-130416904D01*
X100088095Y-130549952D01*
X101055714Y-130549952D01*
X101055714Y-127755952D01*
X100209047Y-127755952D01*
X99967142Y-127889000D01*
X99846190Y-128022047D01*
X99725238Y-128288142D01*
X99725238Y-128554238D01*
X99846190Y-128820333D01*
X99967142Y-128953380D01*
X100209047Y-129086428D01*
X101055714Y-129086428D01*
D12*
X143510000Y-119380000D03*
X143510000Y-116840000D03*
D13*
X162560000Y-54626600D03*
X147320000Y-92726600D03*
X162560000Y-57166600D03*
X147320000Y-90186600D03*
X162560000Y-59706600D03*
X147320000Y-87646600D03*
X162560000Y-62246600D03*
X147320000Y-85106600D03*
X162560000Y-64786600D03*
X147320000Y-82566600D03*
X162560000Y-67326600D03*
X147320000Y-80026600D03*
X162560000Y-69866600D03*
X147320000Y-77486600D03*
X162560000Y-72406600D03*
X147320000Y-74946600D03*
X162560000Y-74946600D03*
X147320000Y-72406600D03*
X162560000Y-77486600D03*
X147320000Y-69866600D03*
X162560000Y-80026600D03*
X147320000Y-67326600D03*
X162560000Y-82566600D03*
X147320000Y-64786600D03*
X162560000Y-85106600D03*
X147320000Y-62246600D03*
X162560000Y-87646600D03*
X147320000Y-59706600D03*
X162560000Y-90186600D03*
X147320000Y-57166600D03*
X162560000Y-92726600D03*
D14*
X147320000Y-54626600D03*
D13*
X131496001Y-54626600D03*
X116256001Y-92726600D03*
X131496001Y-57166600D03*
X116256001Y-90186600D03*
X131496001Y-59706600D03*
X116256001Y-87646600D03*
X131496001Y-62246600D03*
X116256001Y-85106600D03*
X131496001Y-64786600D03*
X116256001Y-82566600D03*
X131496001Y-67326600D03*
X116256001Y-80026600D03*
X131496001Y-69866600D03*
X116256001Y-77486600D03*
X131496001Y-72406600D03*
X116256001Y-74946600D03*
X131496001Y-74946600D03*
X116256001Y-72406600D03*
X131496001Y-77486600D03*
X116256001Y-69866600D03*
X131496001Y-80026600D03*
X116256001Y-67326600D03*
X131496001Y-82566600D03*
X116256001Y-64786600D03*
X131496001Y-85106600D03*
X116256001Y-62246600D03*
X131496001Y-87646600D03*
X116256001Y-59706600D03*
X131496001Y-90186600D03*
X116256001Y-57166600D03*
X131496001Y-92726600D03*
D14*
X116256001Y-54626600D03*
D15*
X83365340Y-49593500D03*
D16*
X83365340Y-52133500D03*
X83365340Y-54673500D03*
X83365340Y-57213500D03*
X83365340Y-59753500D03*
X83365340Y-62293500D03*
X83365340Y-64833500D03*
X83365340Y-67373500D03*
X83365340Y-69913500D03*
X83365340Y-72453500D03*
X83365340Y-74993500D03*
X83365340Y-77533500D03*
X83365340Y-80073500D03*
X83365340Y-82613500D03*
X83365340Y-85153500D03*
X83365340Y-87693500D03*
X83365340Y-90233500D03*
X83365340Y-92773500D03*
X83365340Y-95313500D03*
X83365340Y-97853500D03*
X98605340Y-97853500D03*
X98605340Y-95313500D03*
X98605340Y-92773500D03*
X98605340Y-90233500D03*
X98605340Y-87693500D03*
X98605340Y-85153500D03*
X98605340Y-82613500D03*
X98605340Y-80073500D03*
X98605340Y-77533500D03*
X98605340Y-74993500D03*
X98605340Y-72453500D03*
X98605340Y-69913500D03*
X98605340Y-67373500D03*
X98605340Y-64833500D03*
X98605340Y-62293500D03*
X98605340Y-59753500D03*
X98605340Y-57213500D03*
X98605340Y-54673500D03*
X98605340Y-52133500D03*
X98605340Y-49593500D03*
D17*
X161290000Y-119380000D03*
X151130000Y-119380000D03*
D18*
X39509700Y-59969400D03*
X39509700Y-62969140D03*
X39509700Y-65971420D03*
X39509700Y-68971160D03*
X39509700Y-71970900D03*
X39509700Y-74970640D03*
X39509700Y-77970380D03*
X39509700Y-80970120D03*
X39509700Y-83969860D03*
X39509700Y-86969600D03*
X39509700Y-89969340D03*
X39509700Y-92969080D03*
X39509700Y-95971360D03*
X39509700Y-98971100D03*
X39509700Y-101970840D03*
X39509700Y-104970580D03*
X39509700Y-107970320D03*
D17*
X72443340Y-110934500D03*
D19*
X72443340Y-121094500D03*
D20*
X161290000Y-104140000D03*
X156210000Y-104140000D03*
D19*
X161290000Y-110490000D03*
D17*
X156210000Y-110490000D03*
D21*
X135890000Y-101600000D03*
X137160000Y-102870000D03*
X120650000Y-44450000D03*
X135890000Y-76200000D03*
X119380000Y-45720000D03*
X128270000Y-76200000D03*
X146050000Y-111760000D03*
X116840000Y-46990000D03*
X147320000Y-113030000D03*
X73660000Y-104140000D03*
X114300000Y-49530000D03*
X92710000Y-109220000D03*
X102933500Y-50863500D03*
X147320000Y-49530000D03*
X138430000Y-104140000D03*
X139700000Y-105410000D03*
X140970000Y-106680000D03*
X142240000Y-107950000D03*
X143510000Y-109220000D03*
X144780000Y-110490000D03*
X123190000Y-41910000D03*
X122073999Y-43333999D03*
X121974610Y-92764610D03*
X112213380Y-93163380D03*
X109134558Y-92795442D03*
X109220000Y-95250000D03*
X109156500Y-98996500D03*
X109220000Y-66040000D03*
X109220000Y-53340000D03*
X106680000Y-49530000D03*
X83820000Y-43180000D03*
X119380000Y-92710000D03*
X119380000Y-99060000D03*
X95250000Y-101600000D03*
X95250000Y-107950000D03*
X105410000Y-53340000D03*
X105410000Y-57150000D03*
X133933999Y-51486001D03*
X88900000Y-105410000D03*
X90170000Y-106680000D03*
X125730000Y-104140000D03*
X85725000Y-108585000D03*
X60680600Y-59969400D03*
X81670207Y-46990000D03*
X129540000Y-49530000D03*
D22*
X124822101Y-74000500D02*
X116256001Y-82566600D01*
X85343970Y-44547464D02*
X93175885Y-36715549D01*
X85343970Y-52694870D02*
X85343970Y-44547464D01*
X83365340Y-54673500D02*
X85343970Y-52694870D01*
X93175885Y-36715549D02*
X118110000Y-36715549D01*
X127508040Y-71314561D02*
X116256001Y-82566600D01*
X127508040Y-49137824D02*
X127508040Y-71314561D01*
X129794071Y-46851793D02*
X127508040Y-49137824D01*
X126009039Y-35305929D02*
X129794071Y-39090961D01*
X129794071Y-39090961D02*
X129794071Y-46851793D01*
X119519620Y-35305929D02*
X126009039Y-35305929D01*
X118110000Y-36715549D02*
X119519620Y-35305929D01*
X149028010Y-84274610D02*
X147320000Y-82566600D01*
X149028010Y-93268395D02*
X149028010Y-84274610D01*
X140696405Y-101600000D02*
X149028010Y-93268395D01*
X135890000Y-101600000D02*
X140696405Y-101600000D01*
X86105980Y-44863098D02*
X93491519Y-37477559D01*
X124060091Y-72222510D02*
X116256001Y-80026600D01*
X86105980Y-54472860D02*
X86105980Y-44863098D01*
X83365340Y-57213500D02*
X86105980Y-54472860D01*
X93491519Y-37477559D02*
X118449439Y-37477559D01*
X125693405Y-36067939D02*
X129032061Y-39406595D01*
X119859059Y-36067939D02*
X125693405Y-36067939D01*
X118449439Y-37477559D02*
X119859059Y-36067939D01*
X129032061Y-39406595D02*
X129032061Y-46536159D01*
X129032061Y-46536159D02*
X126746030Y-48822190D01*
X126746030Y-69536571D02*
X124060091Y-72222510D01*
X126746030Y-48822190D02*
X126746030Y-69536571D01*
X149790020Y-82496620D02*
X147320000Y-80026600D01*
X149790020Y-93584029D02*
X149790020Y-82496620D01*
X140504049Y-102870000D02*
X149790020Y-93584029D01*
X137160000Y-102870000D02*
X140504049Y-102870000D01*
X83365340Y-85153500D02*
X86873568Y-85153500D01*
X86873568Y-85153500D02*
X93344265Y-78682803D01*
X93344265Y-47323609D02*
X96332225Y-44335649D01*
X93344265Y-78682803D02*
X93344265Y-47323609D01*
X96332225Y-44335649D02*
X106680000Y-44335649D01*
D23*
X106680000Y-44335649D02*
X119265649Y-44335649D01*
X119647331Y-44335649D02*
X119761682Y-44450000D01*
X119265649Y-44335649D02*
X119647331Y-44335649D01*
X119761682Y-44450000D02*
X120650000Y-44450000D01*
X120650000Y-44450000D02*
X120650000Y-44450000D01*
D22*
X156648108Y-77470000D02*
X162543400Y-77470000D01*
X156648108Y-56978506D02*
X156648108Y-77470000D01*
X146710399Y-48259999D02*
X147929601Y-48259999D01*
X144780000Y-50190398D02*
X146710399Y-48259999D01*
X144780000Y-76200000D02*
X144780000Y-50190398D01*
X162543400Y-77470000D02*
X162560000Y-77486600D01*
X147929601Y-48259999D02*
X156648108Y-56978506D01*
X135890000Y-76200000D02*
X144780000Y-76200000D01*
X94106275Y-78998437D02*
X94106275Y-47639243D01*
X96647859Y-45097659D02*
X106680000Y-45097659D01*
X85411212Y-87693500D02*
X94106275Y-78998437D01*
X83365340Y-87693500D02*
X85411212Y-87693500D01*
X94106275Y-47639243D02*
X96647859Y-45097659D01*
D23*
X117687116Y-45097659D02*
X118309457Y-45720000D01*
X106680000Y-45097659D02*
X117687116Y-45097659D01*
X118309457Y-45720000D02*
X119380000Y-45720000D01*
X119380000Y-45720000D02*
X119380000Y-45720000D01*
D22*
X130985770Y-72406600D02*
X131496001Y-72406600D01*
X128270000Y-75122370D02*
X130985770Y-72406600D01*
X128270000Y-76200000D02*
X128270000Y-75122370D01*
X131496001Y-72406600D02*
X143239380Y-72406600D01*
X148560871Y-46735981D02*
X158242010Y-56417120D01*
X146079129Y-46735981D02*
X148560871Y-46735981D01*
X143255980Y-49559130D02*
X146079129Y-46735981D01*
X143255980Y-72390000D02*
X143255980Y-49559130D01*
X143239380Y-72406600D02*
X143255980Y-72390000D01*
X158242010Y-56417120D02*
X158242010Y-72390000D01*
X162543400Y-72390000D02*
X162560000Y-72406600D01*
X158242010Y-72390000D02*
X162543400Y-72390000D01*
X118726021Y-46996419D02*
X118726021Y-59776580D01*
X116230399Y-45719999D02*
X117449601Y-45719999D01*
X96963493Y-45859669D02*
X116090729Y-45859669D01*
X94868285Y-47954877D02*
X96963493Y-45859669D01*
X94868285Y-79314071D02*
X94868285Y-47954877D01*
X118726021Y-59776580D02*
X116256001Y-62246600D01*
X116090729Y-45859669D02*
X116230399Y-45719999D01*
X85026500Y-89155856D02*
X94868285Y-79314071D01*
X85026500Y-90233500D02*
X85026500Y-89155856D01*
X117449601Y-45719999D02*
X118726021Y-46996419D01*
X83365340Y-90233500D02*
X85026500Y-90233500D01*
X146050000Y-111760000D02*
X146050000Y-105025288D01*
X155124088Y-70050688D02*
X147320000Y-62246600D01*
X155124088Y-95951200D02*
X155124088Y-70050688D01*
X146050000Y-105025288D02*
X155124088Y-95951200D01*
X83365340Y-92773500D02*
X86296500Y-92773500D01*
X86296500Y-92773500D02*
X86296500Y-88963500D01*
X95250000Y-80010000D02*
X95314661Y-80010000D01*
X86296500Y-88963500D02*
X95250000Y-80010000D01*
X95314661Y-80010000D02*
X95630295Y-79694366D01*
X95630295Y-48270511D02*
X97279127Y-46621679D01*
X95630295Y-79694366D02*
X95630295Y-48270511D01*
X97279127Y-46621679D02*
X114300000Y-46621679D01*
X114300000Y-46621679D02*
X116471679Y-46621679D01*
X116471679Y-46621679D02*
X116840000Y-46990000D01*
X116840000Y-46990000D02*
X116840000Y-46990000D01*
X131496001Y-64786600D02*
X140682780Y-64786600D01*
X149667595Y-44449951D02*
X160528040Y-55310396D01*
X144972405Y-44449951D02*
X149667595Y-44449951D01*
X140682780Y-48739576D02*
X144972405Y-44449951D01*
X140682780Y-64786600D02*
X140682780Y-48739576D01*
X160528040Y-55310396D02*
X160528040Y-64770000D01*
X162543400Y-64770000D02*
X162560000Y-64786600D01*
X160528040Y-64770000D02*
X162543400Y-64770000D01*
X83365340Y-95313500D02*
X87312480Y-95313500D01*
X87312480Y-95313500D02*
X87312480Y-89089825D01*
X87312480Y-89089825D02*
X96392305Y-80010000D01*
X117964011Y-57998590D02*
X116256001Y-59706600D01*
X117964011Y-50846367D02*
X117964011Y-57998590D01*
X97594761Y-47383689D02*
X114501333Y-47383689D01*
X96392305Y-48586145D02*
X97594761Y-47383689D01*
X96392305Y-80010000D02*
X96392305Y-48586145D01*
X114501333Y-47383689D02*
X117964011Y-50846367D01*
X147320000Y-113030000D02*
X147320000Y-104832932D01*
X155886098Y-68272698D02*
X147320000Y-59706600D01*
X155886098Y-96266834D02*
X155886098Y-68272698D01*
X147320000Y-104832932D02*
X155886098Y-96266834D01*
X39509700Y-95971360D02*
X66435556Y-95971360D01*
X66435556Y-95971360D02*
X73660000Y-103195804D01*
X73660000Y-103195804D02*
X73660000Y-104140000D01*
X73660000Y-104140000D02*
X73660000Y-104140000D01*
X83365340Y-97853500D02*
X85947836Y-97853500D01*
X85947836Y-97853500D02*
X88137990Y-95663346D01*
X88137990Y-89463206D02*
X97157539Y-80443657D01*
X88137990Y-95663346D02*
X88137990Y-89463206D01*
X97157539Y-48898555D02*
X97910395Y-48145699D01*
X97157539Y-80443657D02*
X97157539Y-48898555D01*
X97910395Y-48145699D02*
X112915699Y-48145699D01*
X112915699Y-48145699D02*
X114300000Y-49530000D01*
X114300000Y-49530000D02*
X114300000Y-49530000D01*
X66611498Y-98971100D02*
X78130398Y-110490000D01*
X39509700Y-98971100D02*
X66611498Y-98971100D01*
X78130398Y-110490000D02*
X91440000Y-110490000D01*
X91440000Y-110490000D02*
X92710000Y-109220000D01*
X92710000Y-109220000D02*
X92710000Y-109220000D01*
X106049101Y-67373500D02*
X116256001Y-57166600D01*
X102933500Y-67373500D02*
X102933500Y-50863500D01*
X98605340Y-67373500D02*
X102933500Y-67373500D01*
X102933500Y-67373500D02*
X106049101Y-67373500D01*
X102933500Y-50863500D02*
X102933500Y-50863500D01*
X146945598Y-57166600D02*
X145611999Y-55833001D01*
X147320000Y-57166600D02*
X146945598Y-57166600D01*
X145611999Y-55833001D02*
X145611999Y-51238001D01*
X145611999Y-51238001D02*
X147320000Y-49530000D01*
X147320000Y-49530000D02*
X147320000Y-49530000D01*
X123298081Y-70444520D02*
X116256001Y-77486600D01*
X83365340Y-59753500D02*
X86867990Y-56250850D01*
X120174693Y-36829949D02*
X125377771Y-36829949D01*
X86867990Y-56250850D02*
X86867990Y-45178732D01*
X86867990Y-45178732D02*
X93807153Y-38239569D01*
X93807153Y-38239569D02*
X118765073Y-38239569D01*
X118765073Y-38239569D02*
X120174693Y-36829949D01*
X125377771Y-36829949D02*
X128270051Y-39722229D01*
X128270051Y-39722229D02*
X128270051Y-46220525D01*
X128270051Y-46220525D02*
X128270049Y-46220527D01*
X128270051Y-46220525D02*
X125984020Y-48506556D01*
X125984020Y-67758581D02*
X123298081Y-70444520D01*
X125984020Y-48506556D02*
X125984020Y-67758581D01*
X150552030Y-80718630D02*
X147320000Y-77486600D01*
X150552030Y-93899663D02*
X150552030Y-80718630D01*
X140311693Y-104140000D02*
X150552030Y-93899663D01*
X138430000Y-104140000D02*
X140311693Y-104140000D01*
X122536071Y-68666530D02*
X116256001Y-74946600D01*
X125062137Y-37591959D02*
X127508041Y-40037863D01*
X120490327Y-37591959D02*
X125062137Y-37591959D01*
X87630000Y-45494366D02*
X94122787Y-39001579D01*
X119080707Y-39001579D02*
X120490327Y-37591959D01*
X87630000Y-62230000D02*
X87630000Y-45494366D01*
X94122787Y-39001579D02*
X119080707Y-39001579D01*
X87566500Y-62293500D02*
X87630000Y-62230000D01*
X83365340Y-62293500D02*
X87566500Y-62293500D01*
X127508041Y-40037863D02*
X127508041Y-45904891D01*
X125222010Y-65980591D02*
X122536071Y-68666530D01*
X125222010Y-48190922D02*
X125222010Y-65980591D01*
X127508041Y-45904891D02*
X125222010Y-48190922D01*
X151314038Y-78940638D02*
X147320000Y-74946600D01*
X151314038Y-94215299D02*
X151314038Y-78940638D01*
X140627327Y-104902010D02*
X151314038Y-94215299D01*
X140207990Y-104902010D02*
X140627327Y-104902010D01*
X139700000Y-105410000D02*
X140207990Y-104902010D01*
X121774061Y-66888540D02*
X116256001Y-72406600D01*
X88518980Y-45683030D02*
X94438421Y-39763589D01*
X88518980Y-64833500D02*
X88518980Y-45683030D01*
X83365340Y-64833500D02*
X88518980Y-64833500D01*
X94438421Y-39763589D02*
X119396341Y-39763589D01*
X124746503Y-38353969D02*
X126746031Y-40353497D01*
X120805961Y-38353969D02*
X124746503Y-38353969D01*
X119396341Y-39763589D02*
X120805961Y-38353969D01*
X126746031Y-45589257D02*
X124460000Y-47875288D01*
X126746031Y-40353497D02*
X126746031Y-45589257D01*
X124460000Y-64202601D02*
X121774061Y-66888540D01*
X124460000Y-47875288D02*
X124460000Y-64202601D01*
X140970000Y-106680000D02*
X140970000Y-105636981D01*
X152076048Y-77162648D02*
X147320000Y-72406600D01*
X152076048Y-94530933D02*
X152076048Y-77162648D01*
X140970000Y-105636981D02*
X152076048Y-94530933D01*
X121012051Y-65110550D02*
X116256001Y-69866600D01*
X89344490Y-45935164D02*
X94754055Y-40525599D01*
X89344490Y-66865510D02*
X89344490Y-45935164D01*
X88836500Y-67373500D02*
X89344490Y-66865510D01*
X83365340Y-67373500D02*
X88836500Y-67373500D01*
X94754055Y-40525599D02*
X119711975Y-40525599D01*
X124430869Y-39115979D02*
X125984021Y-40669131D01*
X121121595Y-39115979D02*
X124430869Y-39115979D01*
X119711975Y-40525599D02*
X121121595Y-39115979D01*
X125984021Y-45273623D02*
X123444020Y-47813624D01*
X125984021Y-40669131D02*
X125984021Y-45273623D01*
X123444020Y-62678581D02*
X121012051Y-65110550D01*
X123444020Y-47813624D02*
X123444020Y-62678581D01*
X142240000Y-107950000D02*
X142240000Y-105444625D01*
X152838058Y-75384658D02*
X147320000Y-69866600D01*
X152838058Y-94846567D02*
X152838058Y-75384658D01*
X142240000Y-105444625D02*
X152838058Y-94846567D01*
X120250041Y-63332560D02*
X116256001Y-67326600D01*
X90106500Y-46250798D02*
X95069689Y-41287609D01*
X90106500Y-69913500D02*
X90106500Y-46250798D01*
X95069689Y-41287609D02*
X120027609Y-41287609D01*
X83365340Y-69913500D02*
X90106500Y-69913500D01*
X124115235Y-39877989D02*
X125222011Y-40984765D01*
X121437229Y-39877989D02*
X124115235Y-39877989D01*
X120027609Y-41287609D02*
X121437229Y-39877989D01*
X125222011Y-44957989D02*
X122682010Y-47497990D01*
X125222011Y-40984765D02*
X125222011Y-44957989D01*
X122682010Y-60900591D02*
X120250041Y-63332560D01*
X122682010Y-47497990D02*
X122682010Y-60900591D01*
X153600068Y-73606668D02*
X153600068Y-95319932D01*
X147320000Y-67326600D02*
X153600068Y-73606668D01*
X153600068Y-95319932D02*
X143510000Y-105410000D01*
X143510000Y-105410000D02*
X143510000Y-109220000D01*
X119488031Y-61554570D02*
X116256001Y-64786600D01*
X123799601Y-40639999D02*
X124460001Y-41300399D01*
X121975295Y-40639999D02*
X123799601Y-40639999D01*
X120565675Y-42049619D02*
X121975295Y-40639999D01*
X95385323Y-42049619D02*
X120565675Y-42049619D01*
X90994735Y-46440207D02*
X95385323Y-42049619D01*
X90994735Y-72453500D02*
X90994735Y-46440207D01*
X83365340Y-72453500D02*
X90994735Y-72453500D01*
X124460001Y-41300399D02*
X124460001Y-44449999D01*
X124460001Y-44449999D02*
X121920000Y-46990000D01*
X121920000Y-59122601D02*
X119488031Y-61554570D01*
X121920000Y-46990000D02*
X121920000Y-59122601D01*
X144780000Y-110490000D02*
X144780000Y-105217644D01*
X154362078Y-71828678D02*
X147320000Y-64786600D01*
X154362078Y-95635566D02*
X154362078Y-71828678D01*
X144780000Y-105217644D02*
X154362078Y-95635566D01*
X83365340Y-80073500D02*
X89798280Y-80073500D01*
X89798280Y-80073500D02*
X91820245Y-78051535D01*
X91820245Y-78051535D02*
X91820245Y-46692341D01*
X91820245Y-46692341D02*
X95700957Y-42811629D01*
X95700957Y-42811629D02*
X106311629Y-42811629D01*
D23*
X120944687Y-42811629D02*
X121846316Y-41910000D01*
X106311629Y-42811629D02*
X120944687Y-42811629D01*
X121846316Y-41910000D02*
X123190000Y-41910000D01*
X123190000Y-41910000D02*
X123190000Y-41910000D01*
D22*
X131496001Y-67326600D02*
X140953400Y-67326600D01*
X141461390Y-66818610D02*
X141461390Y-49038610D01*
X140953400Y-67326600D02*
X141461390Y-66818610D01*
X145288039Y-45211961D02*
X149351961Y-45211961D01*
X141461390Y-49038610D02*
X145288039Y-45211961D01*
X159766030Y-55626030D02*
X159766030Y-67056030D01*
X149351961Y-45211961D02*
X159766030Y-55626030D01*
X160036600Y-67326600D02*
X162560000Y-67326600D01*
X159766030Y-67056030D02*
X160036600Y-67326600D01*
X83365340Y-82613500D02*
X88335924Y-82613500D01*
X88335924Y-82613500D02*
X92582255Y-78367169D01*
X92582255Y-78367169D02*
X92582255Y-47007975D01*
X92582255Y-47007975D02*
X95570215Y-44020015D01*
X96016591Y-43573639D02*
X106627263Y-43573639D01*
X95570215Y-44020015D02*
X96016591Y-43573639D01*
D23*
X106627263Y-43573639D02*
X119773639Y-43573639D01*
X120013279Y-43333999D02*
X122073999Y-43333999D01*
X119773639Y-43573639D02*
X120013279Y-43333999D01*
X122073999Y-43333999D02*
X122073999Y-43333999D01*
D22*
X131496001Y-69866600D02*
X142223400Y-69866600D01*
X148876505Y-45973971D02*
X159004020Y-56101486D01*
X142223400Y-49514066D02*
X145763495Y-45973971D01*
X145763495Y-45973971D02*
X148876505Y-45973971D01*
X142223400Y-69866600D02*
X142223400Y-49514066D01*
X159004020Y-56101486D02*
X159004020Y-69850000D01*
X162543400Y-69850000D02*
X162560000Y-69866600D01*
X159004020Y-69850000D02*
X162543400Y-69850000D01*
X39509700Y-62969140D02*
X45459650Y-62969140D01*
X45459650Y-62969140D02*
X82550000Y-100059490D01*
X82550000Y-100059490D02*
X84819490Y-100059490D01*
X84819490Y-100059490D02*
X88900000Y-95978980D01*
X88900000Y-89778840D02*
X98605340Y-80073500D01*
X88900000Y-95978980D02*
X88900000Y-89778840D01*
X111222901Y-80073500D02*
X116256001Y-85106600D01*
X98605340Y-80073500D02*
X111222901Y-80073500D01*
X39509700Y-65971420D02*
X45459650Y-65971420D01*
X39509700Y-65971420D02*
X46921420Y-65971420D01*
X47384286Y-65971420D02*
X82234366Y-100821500D01*
X46921420Y-65971420D02*
X47384286Y-65971420D01*
X85135124Y-100821500D02*
X85135126Y-100821498D01*
X82234366Y-100821500D02*
X85135124Y-100821500D01*
X90170000Y-95786624D02*
X90170000Y-91048840D01*
X90170000Y-91048840D02*
X98605340Y-82613500D01*
X85135124Y-100821500D02*
X90170000Y-95786624D01*
X111222901Y-82613500D02*
X116256001Y-87646600D01*
X98605340Y-82613500D02*
X111222901Y-82613500D01*
X39509700Y-68971160D02*
X49306382Y-68971160D01*
X49306382Y-68971160D02*
X81935222Y-101600000D01*
X85434268Y-101600000D02*
X91440000Y-95594268D01*
X81935222Y-101600000D02*
X85434268Y-101600000D01*
X91440000Y-92318840D02*
X98605340Y-85153500D01*
X91440000Y-95594268D02*
X91440000Y-92318840D01*
X111222901Y-85153500D02*
X116256001Y-90186600D01*
X98605340Y-85153500D02*
X111222901Y-85153500D01*
X39509700Y-71970900D02*
X51228478Y-71970900D01*
X81619586Y-102362008D02*
X85749904Y-102362008D01*
X51228478Y-71970900D02*
X81619586Y-102362008D01*
X85749904Y-102362008D02*
X92710000Y-95401912D01*
X92710000Y-93588840D02*
X98605340Y-87693500D01*
X92710000Y-95401912D02*
X92710000Y-93588840D01*
X98605340Y-87693500D02*
X110553500Y-87693500D01*
X114300000Y-93020404D02*
X115314206Y-94034610D01*
X114300000Y-91440000D02*
X114300000Y-93020404D01*
X110553500Y-87693500D02*
X114300000Y-91440000D01*
X130187991Y-94034610D02*
X131496001Y-92726600D01*
X115314206Y-94034610D02*
X121974610Y-94034610D01*
X121974610Y-94034610D02*
X121974610Y-92764610D01*
X121974610Y-94034610D02*
X130187991Y-94034610D01*
X121974610Y-92764610D02*
X121974610Y-92764610D01*
X93980000Y-94858840D02*
X98605340Y-90233500D01*
X93980000Y-95250000D02*
X93980000Y-94858840D01*
X86105982Y-103124018D02*
X93980000Y-95250000D01*
X81303952Y-103124018D02*
X86105982Y-103124018D01*
X53150574Y-74970640D02*
X81303952Y-103124018D01*
X39509700Y-74970640D02*
X53150574Y-74970640D01*
X133204011Y-91894610D02*
X131496001Y-90186600D01*
X133204011Y-93268395D02*
X133204011Y-91894610D01*
X131675786Y-94796620D02*
X133204011Y-93268395D01*
X112213380Y-94796620D02*
X112213380Y-93163380D01*
X112213380Y-94796620D02*
X131675786Y-94796620D01*
X112213380Y-93163380D02*
X112213380Y-93163380D01*
X98605340Y-90233500D02*
X99938840Y-88900000D01*
X107950000Y-88900000D02*
X112213380Y-93163380D01*
X99938840Y-88900000D02*
X107950000Y-88900000D01*
X39509700Y-77970380D02*
X55072670Y-77970380D01*
X55072670Y-77970380D02*
X80988316Y-103886026D01*
X80988316Y-103886026D02*
X86421618Y-103886026D01*
X97534144Y-92773500D02*
X98605340Y-92773500D01*
X86421618Y-103886026D02*
X97534144Y-92773500D01*
X133966021Y-90116620D02*
X131496001Y-87646600D01*
X133966021Y-93584029D02*
X133966021Y-90116620D01*
X131991420Y-95558630D02*
X133966021Y-93584029D01*
X111897746Y-95558630D02*
X131991420Y-95558630D01*
X109112616Y-92773500D02*
X109134558Y-92795442D01*
X98605340Y-92773500D02*
X105473500Y-92773500D01*
X105473500Y-92773500D02*
X107886500Y-92773500D01*
X107886500Y-92773500D02*
X109112616Y-92773500D01*
X109134558Y-92795442D02*
X111897746Y-95558630D01*
X96071788Y-95313500D02*
X98605340Y-95313500D01*
X56840120Y-80970120D02*
X80518036Y-104648036D01*
X86737252Y-104648036D02*
X96071788Y-95313500D01*
X80518036Y-104648036D02*
X86737252Y-104648036D01*
X39509700Y-80970120D02*
X56840120Y-80970120D01*
X98605340Y-95313500D02*
X99811840Y-96520000D01*
X134728031Y-88338630D02*
X131496001Y-85106600D01*
X134728031Y-93899663D02*
X134728031Y-88338630D01*
X132107694Y-96520000D02*
X134728031Y-93899663D01*
X99811840Y-96520000D02*
X102870000Y-96520000D01*
X102870000Y-96520000D02*
X105410000Y-96520000D01*
X109220000Y-96520000D02*
X109220000Y-95250000D01*
X105410000Y-96520000D02*
X109220000Y-96520000D01*
X109220000Y-96520000D02*
X132107694Y-96520000D01*
X109220000Y-95250000D02*
X109220000Y-95250000D01*
X87052886Y-105410046D02*
X94672932Y-97790000D01*
X80202402Y-105410046D02*
X87052886Y-105410046D01*
X58762216Y-83969860D02*
X80202402Y-105410046D01*
X98541840Y-97790000D02*
X98605340Y-97853500D01*
X94672932Y-97790000D02*
X98541840Y-97790000D01*
X39509700Y-83969860D02*
X58762216Y-83969860D01*
X109156500Y-97853500D02*
X109156500Y-98996500D01*
X98605340Y-97853500D02*
X109156500Y-97853500D01*
X109156500Y-98996500D02*
X109156500Y-98996500D01*
X109727990Y-97282010D02*
X109156500Y-97853500D01*
X132423328Y-97282010D02*
X109727990Y-97282010D01*
X135490041Y-94215297D02*
X132423328Y-97282010D01*
X135490041Y-86560640D02*
X135490041Y-94215297D01*
X131496001Y-82566600D02*
X135490041Y-86560640D01*
D24*
X39509700Y-104970580D02*
X49090580Y-104970580D01*
X39509700Y-101970840D02*
X49159160Y-101970840D01*
D25*
X39509700Y-59969400D02*
X50520600Y-59969400D01*
D22*
X109220000Y-53340000D02*
X109220000Y-52070000D01*
X109220000Y-52070000D02*
X106680000Y-49530000D01*
X106680000Y-49530000D02*
X106680000Y-49530000D01*
X119380000Y-99060000D02*
X116840000Y-101600000D01*
X116840000Y-101600000D02*
X95250000Y-101600000D01*
X95250000Y-101600000D02*
X95250000Y-101600000D01*
X105410000Y-53340000D02*
X105410000Y-57150000D01*
X133933999Y-56978407D02*
X131496001Y-59416405D01*
X131496001Y-59416405D02*
X131496001Y-59706600D01*
X133933999Y-51486001D02*
X133933999Y-56978407D01*
D25*
X69479160Y-107970320D02*
X72443340Y-110934500D01*
X39509700Y-107970320D02*
X69479160Y-107970320D01*
D22*
X39509700Y-86969600D02*
X60684312Y-86969600D01*
X79886768Y-106172056D02*
X88137944Y-106172056D01*
X60684312Y-86969600D02*
X79886768Y-106172056D01*
X88137944Y-106172056D02*
X88900000Y-105410000D01*
X88900000Y-105410000D02*
X88900000Y-105410000D01*
X136252051Y-84782650D02*
X131496001Y-80026600D01*
X136252051Y-94530931D02*
X136252051Y-84782650D01*
X129361491Y-101421491D02*
X136252051Y-94530931D01*
X88900000Y-105410000D02*
X90932010Y-103377990D01*
X126568907Y-101421491D02*
X129361491Y-101421491D01*
X124612408Y-103377990D02*
X126568907Y-101421491D01*
X90932010Y-103377990D02*
X124612408Y-103377990D01*
X62606408Y-89969340D02*
X79571134Y-106934066D01*
X39509700Y-89969340D02*
X62606408Y-89969340D01*
X79571134Y-106934066D02*
X89915934Y-106934066D01*
X89915934Y-106934066D02*
X90170000Y-106680000D01*
X90170000Y-106680000D02*
X92710000Y-104140000D01*
X92710000Y-104140000D02*
X125730000Y-104140000D01*
X125730000Y-104140000D02*
X125730000Y-104140000D01*
X39509700Y-92969080D02*
X64510920Y-92969080D01*
X64510920Y-92969080D02*
X79491840Y-107950000D01*
X79491840Y-107950000D02*
X85090000Y-107950000D01*
X85090000Y-107950000D02*
X85725000Y-108585000D01*
X137014061Y-80464660D02*
X131496001Y-74946600D01*
X137014061Y-94846565D02*
X137014061Y-80464660D01*
X93878388Y-106172010D02*
X125688616Y-106172010D01*
X125688616Y-106172010D02*
X137014061Y-94846565D01*
X91465398Y-108585000D02*
X93878388Y-106172010D01*
X85725000Y-108585000D02*
X91465398Y-108585000D01*
X162543400Y-74930000D02*
X162560000Y-74946600D01*
X157480000Y-74930000D02*
X162543400Y-74930000D01*
X146394765Y-47497989D02*
X148245235Y-47497989D01*
X144017990Y-49874764D02*
X146394765Y-47497989D01*
X148245235Y-47497989D02*
X157480000Y-56732754D01*
X144017990Y-74929999D02*
X144017990Y-49874764D01*
X135280399Y-74929999D02*
X144017990Y-74929999D01*
X157480000Y-56732754D02*
X157480000Y-74930000D01*
X135263798Y-74946600D02*
X135280399Y-74929999D01*
X131496001Y-74946600D02*
X135263798Y-74946600D01*
D24*
X68690807Y-59969400D02*
X81670207Y-46990000D01*
X60680600Y-59969400D02*
X68690807Y-59969400D01*
X81670207Y-46990000D02*
X81670207Y-46990000D01*
D22*
X129540000Y-60290599D02*
X131496001Y-62246600D01*
X129540000Y-49530000D02*
X129540000Y-60290599D01*
X131496001Y-62246600D02*
X139683400Y-62246600D01*
X164268010Y-60538590D02*
X162560000Y-62246600D01*
X153871146Y-43687941D02*
X164268010Y-54084805D01*
X164268010Y-54084805D02*
X164268010Y-60538590D01*
X144656771Y-43687941D02*
X153871146Y-43687941D01*
X139683400Y-48661312D02*
X144656771Y-43687941D01*
X139683400Y-62246600D02*
X139683400Y-48661312D01*
D26*
X169354501Y-36979947D02*
X169354500Y-130352712D01*
X169354501Y-130352722D01*
X169354500Y-133985000D01*
X70342760Y-133985000D01*
X70342760Y-128635760D01*
X71022029Y-128635760D01*
X71022029Y-133258560D01*
X81377972Y-133258560D01*
X81377972Y-128635760D01*
X71022029Y-128635760D01*
X70342760Y-128635760D01*
X70342760Y-120205500D01*
X70916268Y-120205500D01*
X70916268Y-121983500D01*
X70928528Y-122107982D01*
X70964838Y-122227680D01*
X71023803Y-122337994D01*
X71103155Y-122434685D01*
X71199846Y-122514037D01*
X71310160Y-122573002D01*
X71429858Y-122609312D01*
X71554340Y-122621572D01*
X73332340Y-122621572D01*
X73456822Y-122609312D01*
X73576520Y-122573002D01*
X73686834Y-122514037D01*
X73783525Y-122434685D01*
X73862877Y-122337994D01*
X73921842Y-122227680D01*
X73958152Y-122107982D01*
X73970412Y-121983500D01*
X73970412Y-120205500D01*
X73958152Y-120081018D01*
X73921842Y-119961320D01*
X73862877Y-119851006D01*
X73783525Y-119754315D01*
X73686834Y-119674963D01*
X73576520Y-119615998D01*
X73456822Y-119579688D01*
X73332340Y-119567428D01*
X71554340Y-119567428D01*
X71429858Y-119579688D01*
X71310160Y-119615998D01*
X71199846Y-119674963D01*
X71103155Y-119754315D01*
X71023803Y-119851006D01*
X70964838Y-119961320D01*
X70928528Y-120081018D01*
X70916268Y-120205500D01*
X70342760Y-120205500D01*
X70342760Y-116828570D01*
X87887024Y-116828570D01*
X87887024Y-132576570D01*
X140712976Y-132576570D01*
X140712976Y-119234902D01*
X142036800Y-119234902D01*
X142036800Y-119525098D01*
X142093414Y-119809717D01*
X142204467Y-120077822D01*
X142365691Y-120319110D01*
X142570890Y-120524309D01*
X142812178Y-120685533D01*
X143080283Y-120796586D01*
X143364902Y-120853200D01*
X143655098Y-120853200D01*
X143939717Y-120796586D01*
X144207822Y-120685533D01*
X144449110Y-120524309D01*
X144654309Y-120319110D01*
X144815533Y-120077822D01*
X144926586Y-119809717D01*
X144983200Y-119525098D01*
X144983200Y-119234902D01*
X144982205Y-119229899D01*
X149606000Y-119229899D01*
X149606000Y-119530101D01*
X149664566Y-119824534D01*
X149779449Y-120101885D01*
X149946232Y-120351493D01*
X150158507Y-120563768D01*
X150408115Y-120730551D01*
X150685466Y-120845434D01*
X150979899Y-120904000D01*
X151280101Y-120904000D01*
X151574534Y-120845434D01*
X151851885Y-120730551D01*
X152101493Y-120563768D01*
X152313768Y-120351493D01*
X152480551Y-120101885D01*
X152595434Y-119824534D01*
X152654000Y-119530101D01*
X152654000Y-119229899D01*
X159766000Y-119229899D01*
X159766000Y-119530101D01*
X159824566Y-119824534D01*
X159939449Y-120101885D01*
X160106232Y-120351493D01*
X160318507Y-120563768D01*
X160568115Y-120730551D01*
X160845466Y-120845434D01*
X161139899Y-120904000D01*
X161440101Y-120904000D01*
X161734534Y-120845434D01*
X162011885Y-120730551D01*
X162261493Y-120563768D01*
X162473768Y-120351493D01*
X162640551Y-120101885D01*
X162755434Y-119824534D01*
X162814000Y-119530101D01*
X162814000Y-119229899D01*
X162755434Y-118935466D01*
X162640551Y-118658115D01*
X162473768Y-118408507D01*
X162261493Y-118196232D01*
X162011885Y-118029449D01*
X161734534Y-117914566D01*
X161440101Y-117856000D01*
X161139899Y-117856000D01*
X160845466Y-117914566D01*
X160568115Y-118029449D01*
X160318507Y-118196232D01*
X160106232Y-118408507D01*
X159939449Y-118658115D01*
X159824566Y-118935466D01*
X159766000Y-119229899D01*
X152654000Y-119229899D01*
X152595434Y-118935466D01*
X152480551Y-118658115D01*
X152313768Y-118408507D01*
X152101493Y-118196232D01*
X151851885Y-118029449D01*
X151574534Y-117914566D01*
X151280101Y-117856000D01*
X150979899Y-117856000D01*
X150685466Y-117914566D01*
X150408115Y-118029449D01*
X150158507Y-118196232D01*
X149946232Y-118408507D01*
X149779449Y-118658115D01*
X149664566Y-118935466D01*
X149606000Y-119229899D01*
X144982205Y-119229899D01*
X144926586Y-118950283D01*
X144815533Y-118682178D01*
X144654309Y-118440890D01*
X144449110Y-118235691D01*
X144265057Y-118112711D01*
X144274162Y-118107844D01*
X144350370Y-117859975D01*
X143510000Y-117019605D01*
X142669630Y-117859975D01*
X142745838Y-118107844D01*
X142755408Y-118112399D01*
X142570890Y-118235691D01*
X142365691Y-118440890D01*
X142204467Y-118682178D01*
X142093414Y-118950283D01*
X142036800Y-119234902D01*
X140712976Y-119234902D01*
X140712976Y-116908999D01*
X142031281Y-116908999D01*
X142073155Y-117196157D01*
X142170246Y-117469628D01*
X142242156Y-117604162D01*
X142490025Y-117680370D01*
X143330395Y-116840000D01*
X143689605Y-116840000D01*
X144529975Y-117680370D01*
X144777844Y-117604162D01*
X144902563Y-117342135D01*
X144973768Y-117060811D01*
X144988719Y-116771001D01*
X144946845Y-116483843D01*
X144849754Y-116210372D01*
X144777844Y-116075838D01*
X144529975Y-115999630D01*
X143689605Y-116840000D01*
X143330395Y-116840000D01*
X142490025Y-115999630D01*
X142242156Y-116075838D01*
X142117437Y-116337865D01*
X142046232Y-116619189D01*
X142031281Y-116908999D01*
X140712976Y-116908999D01*
X140712976Y-116828570D01*
X87887024Y-116828570D01*
X70342760Y-116828570D01*
X70342760Y-115820025D01*
X142669630Y-115820025D01*
X143510000Y-116660395D01*
X144350370Y-115820025D01*
X144274162Y-115572156D01*
X144012135Y-115447437D01*
X143730811Y-115376232D01*
X143441001Y-115361281D01*
X143153843Y-115403155D01*
X142880372Y-115500246D01*
X142745838Y-115572156D01*
X142669630Y-115820025D01*
X70342760Y-115820025D01*
X70342760Y-110809576D01*
X71024355Y-111491170D01*
X71092789Y-111656385D01*
X71259572Y-111905993D01*
X71471847Y-112118268D01*
X71721455Y-112285051D01*
X71998806Y-112399934D01*
X72293239Y-112458500D01*
X72593441Y-112458500D01*
X72887874Y-112399934D01*
X73165225Y-112285051D01*
X73414833Y-112118268D01*
X73627108Y-111905993D01*
X73793891Y-111656385D01*
X73908774Y-111379034D01*
X73967340Y-111084601D01*
X73967340Y-110784399D01*
X73908774Y-110489966D01*
X73793891Y-110212615D01*
X73627108Y-109963007D01*
X73414833Y-109750732D01*
X73165225Y-109583949D01*
X73000010Y-109515515D01*
X70515524Y-107031029D01*
X70471768Y-106977712D01*
X70259047Y-106803137D01*
X70016355Y-106673416D01*
X69753020Y-106593534D01*
X69547785Y-106573320D01*
X69479160Y-106566561D01*
X69410535Y-106573320D01*
X48387000Y-106573320D01*
X48387000Y-99860100D01*
X66243263Y-99860100D01*
X77470904Y-111087742D01*
X77498739Y-111121659D01*
X77634107Y-111232753D01*
X77788547Y-111315303D01*
X77905290Y-111350716D01*
X77956123Y-111366136D01*
X78130398Y-111383301D01*
X78174066Y-111379000D01*
X91396340Y-111379000D01*
X91440000Y-111383300D01*
X91483660Y-111379000D01*
X91483667Y-111379000D01*
X91614274Y-111366136D01*
X91781851Y-111315303D01*
X91936291Y-111232753D01*
X92071659Y-111121659D01*
X92099499Y-111087736D01*
X92570596Y-110616640D01*
X92572408Y-110617000D01*
X92847592Y-110617000D01*
X93117490Y-110563314D01*
X93371727Y-110458005D01*
X93600535Y-110305120D01*
X93795120Y-110110535D01*
X93948005Y-109881727D01*
X94053314Y-109627490D01*
X94107000Y-109357592D01*
X94107000Y-109082408D01*
X94053314Y-108812510D01*
X93948005Y-108558273D01*
X93795120Y-108329465D01*
X93600535Y-108134880D01*
X93371727Y-107981995D01*
X93339138Y-107968496D01*
X94246624Y-107061010D01*
X125644956Y-107061010D01*
X125688616Y-107065310D01*
X125732276Y-107061010D01*
X125732283Y-107061010D01*
X125862890Y-107048146D01*
X126030467Y-106997313D01*
X126184907Y-106914763D01*
X126320275Y-106803669D01*
X126348115Y-106769746D01*
X137611804Y-95506058D01*
X137645720Y-95478224D01*
X137675833Y-95441532D01*
X137722756Y-95384356D01*
X137756814Y-95342856D01*
X137839364Y-95188416D01*
X137884203Y-95040600D01*
X137890197Y-95020840D01*
X137891870Y-95003852D01*
X137903061Y-94890232D01*
X137903061Y-94890225D01*
X137907361Y-94846565D01*
X137903061Y-94802905D01*
X137903061Y-80508319D01*
X137907361Y-80464659D01*
X137903061Y-80420999D01*
X137903061Y-80420993D01*
X137891923Y-80307909D01*
X137890197Y-80290384D01*
X137839363Y-80122807D01*
X137828137Y-80101805D01*
X137756814Y-79968369D01*
X137645720Y-79833001D01*
X137611797Y-79805161D01*
X135256215Y-77449579D01*
X135482510Y-77543314D01*
X135752408Y-77597000D01*
X136027592Y-77597000D01*
X136297490Y-77543314D01*
X136551727Y-77438005D01*
X136780535Y-77285120D01*
X136975120Y-77090535D01*
X136976146Y-77089000D01*
X144736333Y-77089000D01*
X144780000Y-77093301D01*
X144823667Y-77089000D01*
X144954274Y-77076136D01*
X145121851Y-77025303D01*
X145276291Y-76942753D01*
X145411659Y-76831659D01*
X145522753Y-76696291D01*
X145605303Y-76541851D01*
X145656136Y-76374274D01*
X145673301Y-76200000D01*
X145669000Y-76156333D01*
X145669000Y-75650289D01*
X145721068Y-75747701D01*
X145900392Y-75966208D01*
X146118899Y-76145532D01*
X146251858Y-76216600D01*
X146118899Y-76287668D01*
X145900392Y-76466992D01*
X145721068Y-76685499D01*
X145587818Y-76934792D01*
X145505764Y-77205291D01*
X145478057Y-77486600D01*
X145505764Y-77767909D01*
X145587818Y-78038408D01*
X145721068Y-78287701D01*
X145900392Y-78506208D01*
X146118899Y-78685532D01*
X146251858Y-78756600D01*
X146118899Y-78827668D01*
X145900392Y-79006992D01*
X145721068Y-79225499D01*
X145587818Y-79474792D01*
X145505764Y-79745291D01*
X145478057Y-80026600D01*
X145505764Y-80307909D01*
X145587818Y-80578408D01*
X145721068Y-80827701D01*
X145900392Y-81046208D01*
X146118899Y-81225532D01*
X146251858Y-81296600D01*
X146118899Y-81367668D01*
X145900392Y-81546992D01*
X145721068Y-81765499D01*
X145587818Y-82014792D01*
X145505764Y-82285291D01*
X145478057Y-82566600D01*
X145505764Y-82847909D01*
X145587818Y-83118408D01*
X145721068Y-83367701D01*
X145900392Y-83586208D01*
X146118899Y-83765532D01*
X146251858Y-83836600D01*
X146118899Y-83907668D01*
X145900392Y-84086992D01*
X145721068Y-84305499D01*
X145587818Y-84554792D01*
X145505764Y-84825291D01*
X145478057Y-85106600D01*
X145505764Y-85387909D01*
X145587818Y-85658408D01*
X145721068Y-85907701D01*
X145900392Y-86126208D01*
X146118899Y-86305532D01*
X146251858Y-86376600D01*
X146118899Y-86447668D01*
X145900392Y-86626992D01*
X145721068Y-86845499D01*
X145587818Y-87094792D01*
X145505764Y-87365291D01*
X145478057Y-87646600D01*
X145505764Y-87927909D01*
X145587818Y-88198408D01*
X145721068Y-88447701D01*
X145900392Y-88666208D01*
X146118899Y-88845532D01*
X146251858Y-88916600D01*
X146118899Y-88987668D01*
X145900392Y-89166992D01*
X145721068Y-89385499D01*
X145587818Y-89634792D01*
X145505764Y-89905291D01*
X145478057Y-90186600D01*
X145505764Y-90467909D01*
X145587818Y-90738408D01*
X145721068Y-90987701D01*
X145900392Y-91206208D01*
X146118899Y-91385532D01*
X146246741Y-91453865D01*
X146017161Y-91603999D01*
X145815500Y-91801705D01*
X145656285Y-92034954D01*
X145545633Y-92294782D01*
X145528096Y-92377561D01*
X145650085Y-92599600D01*
X147193000Y-92599600D01*
X147193000Y-92579600D01*
X147447000Y-92579600D01*
X147447000Y-92599600D01*
X147467000Y-92599600D01*
X147467000Y-92853600D01*
X147447000Y-92853600D01*
X147447000Y-92873600D01*
X147193000Y-92873600D01*
X147193000Y-92853600D01*
X145650085Y-92853600D01*
X145528096Y-93075639D01*
X145545633Y-93158418D01*
X145656285Y-93418246D01*
X145815500Y-93651495D01*
X146017161Y-93849201D01*
X146253517Y-94003766D01*
X146515486Y-94109250D01*
X146793000Y-94161600D01*
X146877569Y-94161600D01*
X140328170Y-100711000D01*
X136976146Y-100711000D01*
X136975120Y-100709465D01*
X136780535Y-100514880D01*
X136551727Y-100361995D01*
X136297490Y-100256686D01*
X136027592Y-100203000D01*
X135752408Y-100203000D01*
X135482510Y-100256686D01*
X135228273Y-100361995D01*
X134999465Y-100514880D01*
X134804880Y-100709465D01*
X134651995Y-100938273D01*
X134546686Y-101192510D01*
X134493000Y-101462408D01*
X134493000Y-101737592D01*
X134546686Y-102007490D01*
X134651995Y-102261727D01*
X134804880Y-102490535D01*
X134999465Y-102685120D01*
X135228273Y-102838005D01*
X135482510Y-102943314D01*
X135752408Y-102997000D01*
X135763000Y-102997000D01*
X135763000Y-103007592D01*
X135816686Y-103277490D01*
X135921995Y-103531727D01*
X136074880Y-103760535D01*
X136269465Y-103955120D01*
X136498273Y-104108005D01*
X136752510Y-104213314D01*
X137022408Y-104267000D01*
X137033000Y-104267000D01*
X137033000Y-104277592D01*
X137086686Y-104547490D01*
X137191995Y-104801727D01*
X137344880Y-105030535D01*
X137539465Y-105225120D01*
X137768273Y-105378005D01*
X138022510Y-105483314D01*
X138292408Y-105537000D01*
X138303000Y-105537000D01*
X138303000Y-105547592D01*
X138356686Y-105817490D01*
X138461995Y-106071727D01*
X138614880Y-106300535D01*
X138809465Y-106495120D01*
X139038273Y-106648005D01*
X139292510Y-106753314D01*
X139562408Y-106807000D01*
X139573000Y-106807000D01*
X139573000Y-106817592D01*
X139626686Y-107087490D01*
X139731995Y-107341727D01*
X139884880Y-107570535D01*
X140079465Y-107765120D01*
X140308273Y-107918005D01*
X140562510Y-108023314D01*
X140832408Y-108077000D01*
X140843000Y-108077000D01*
X140843000Y-108087592D01*
X140896686Y-108357490D01*
X141001995Y-108611727D01*
X141154880Y-108840535D01*
X141349465Y-109035120D01*
X141578273Y-109188005D01*
X141832510Y-109293314D01*
X142102408Y-109347000D01*
X142113000Y-109347000D01*
X142113000Y-109357592D01*
X142166686Y-109627490D01*
X142271995Y-109881727D01*
X142424880Y-110110535D01*
X142619465Y-110305120D01*
X142848273Y-110458005D01*
X143102510Y-110563314D01*
X143372408Y-110617000D01*
X143383000Y-110617000D01*
X143383000Y-110627592D01*
X143436686Y-110897490D01*
X143541995Y-111151727D01*
X143694880Y-111380535D01*
X143889465Y-111575120D01*
X144118273Y-111728005D01*
X144372510Y-111833314D01*
X144642408Y-111887000D01*
X144653000Y-111887000D01*
X144653000Y-111897592D01*
X144706686Y-112167490D01*
X144811995Y-112421727D01*
X144964880Y-112650535D01*
X145159465Y-112845120D01*
X145388273Y-112998005D01*
X145642510Y-113103314D01*
X145912408Y-113157000D01*
X145923000Y-113157000D01*
X145923000Y-113167592D01*
X145976686Y-113437490D01*
X146081995Y-113691727D01*
X146234880Y-113920535D01*
X146429465Y-114115120D01*
X146658273Y-114268005D01*
X146912510Y-114373314D01*
X147182408Y-114427000D01*
X147457592Y-114427000D01*
X147727490Y-114373314D01*
X147981727Y-114268005D01*
X148210535Y-114115120D01*
X148405120Y-113920535D01*
X148558005Y-113691727D01*
X148663314Y-113437490D01*
X148717000Y-113167592D01*
X148717000Y-112892408D01*
X148663314Y-112622510D01*
X148558005Y-112368273D01*
X148405120Y-112139465D01*
X148210535Y-111944880D01*
X148209000Y-111943854D01*
X148209000Y-111546231D01*
X155333374Y-111546231D01*
X155415727Y-111799289D01*
X155686418Y-111929086D01*
X155977230Y-112003580D01*
X156276988Y-112019908D01*
X156574171Y-111977443D01*
X156857359Y-111877816D01*
X157004273Y-111799289D01*
X157086626Y-111546231D01*
X156210000Y-110669605D01*
X155333374Y-111546231D01*
X148209000Y-111546231D01*
X148209000Y-110556988D01*
X154680092Y-110556988D01*
X154722557Y-110854171D01*
X154822184Y-111137359D01*
X154900711Y-111284273D01*
X155153769Y-111366626D01*
X156030395Y-110490000D01*
X156389605Y-110490000D01*
X157266231Y-111366626D01*
X157519289Y-111284273D01*
X157649086Y-111013582D01*
X157723580Y-110722770D01*
X157739908Y-110423012D01*
X157697443Y-110125829D01*
X157597816Y-109842641D01*
X157519289Y-109695727D01*
X157266231Y-109613374D01*
X156389605Y-110490000D01*
X156030395Y-110490000D01*
X155153769Y-109613374D01*
X154900711Y-109695727D01*
X154770914Y-109966418D01*
X154696420Y-110257230D01*
X154680092Y-110556988D01*
X148209000Y-110556988D01*
X148209000Y-109433769D01*
X155333374Y-109433769D01*
X156210000Y-110310395D01*
X156919395Y-109601000D01*
X159762928Y-109601000D01*
X159762928Y-111379000D01*
X159775188Y-111503482D01*
X159811498Y-111623180D01*
X159870463Y-111733494D01*
X159949815Y-111830185D01*
X160046506Y-111909537D01*
X160156820Y-111968502D01*
X160276518Y-112004812D01*
X160401000Y-112017072D01*
X162179000Y-112017072D01*
X162303482Y-112004812D01*
X162423180Y-111968502D01*
X162533494Y-111909537D01*
X162630185Y-111830185D01*
X162709537Y-111733494D01*
X162768502Y-111623180D01*
X162804812Y-111503482D01*
X162817072Y-111379000D01*
X162817072Y-109601000D01*
X162804812Y-109476518D01*
X162768502Y-109356820D01*
X162709537Y-109246506D01*
X162630185Y-109149815D01*
X162533494Y-109070463D01*
X162423180Y-109011498D01*
X162303482Y-108975188D01*
X162179000Y-108962928D01*
X160401000Y-108962928D01*
X160276518Y-108975188D01*
X160156820Y-109011498D01*
X160046506Y-109070463D01*
X159949815Y-109149815D01*
X159870463Y-109246506D01*
X159811498Y-109356820D01*
X159775188Y-109476518D01*
X159762928Y-109601000D01*
X156919395Y-109601000D01*
X157086626Y-109433769D01*
X157004273Y-109180711D01*
X156733582Y-109050914D01*
X156442770Y-108976420D01*
X156143012Y-108960092D01*
X155845829Y-109002557D01*
X155562641Y-109102184D01*
X155415727Y-109180711D01*
X155333374Y-109433769D01*
X148209000Y-109433769D01*
X148209000Y-105201167D01*
X148349970Y-105060197D01*
X155469408Y-105060197D01*
X155528686Y-105293812D01*
X155766875Y-105404559D01*
X156022093Y-105466711D01*
X156284533Y-105477876D01*
X156544107Y-105437629D01*
X156790842Y-105347514D01*
X156891314Y-105293812D01*
X156950592Y-105060197D01*
X156210000Y-104319605D01*
X155469408Y-105060197D01*
X148349970Y-105060197D01*
X149195634Y-104214533D01*
X154872124Y-104214533D01*
X154912371Y-104474107D01*
X155002486Y-104720842D01*
X155056188Y-104821314D01*
X155289803Y-104880592D01*
X156030395Y-104140000D01*
X156389605Y-104140000D01*
X157130197Y-104880592D01*
X157363812Y-104821314D01*
X157474559Y-104583125D01*
X157536711Y-104327907D01*
X157547876Y-104065467D01*
X157539069Y-104008662D01*
X159956500Y-104008662D01*
X159956500Y-104271338D01*
X160007746Y-104528968D01*
X160108268Y-104771649D01*
X160254203Y-104990057D01*
X160439943Y-105175797D01*
X160658351Y-105321732D01*
X160901032Y-105422254D01*
X161158662Y-105473500D01*
X161421338Y-105473500D01*
X161678968Y-105422254D01*
X161921649Y-105321732D01*
X162140057Y-105175797D01*
X162325797Y-104990057D01*
X162471732Y-104771649D01*
X162572254Y-104528968D01*
X162623500Y-104271338D01*
X162623500Y-104008662D01*
X162572254Y-103751032D01*
X162471732Y-103508351D01*
X162325797Y-103289943D01*
X162140057Y-103104203D01*
X161921649Y-102958268D01*
X161678968Y-102857746D01*
X161421338Y-102806500D01*
X161158662Y-102806500D01*
X160901032Y-102857746D01*
X160658351Y-102958268D01*
X160439943Y-103104203D01*
X160254203Y-103289943D01*
X160108268Y-103508351D01*
X160007746Y-103751032D01*
X159956500Y-104008662D01*
X157539069Y-104008662D01*
X157507629Y-103805893D01*
X157417514Y-103559158D01*
X157363812Y-103458686D01*
X157130197Y-103399408D01*
X156389605Y-104140000D01*
X156030395Y-104140000D01*
X155289803Y-103399408D01*
X155056188Y-103458686D01*
X154945441Y-103696875D01*
X154883289Y-103952093D01*
X154872124Y-104214533D01*
X149195634Y-104214533D01*
X150190364Y-103219803D01*
X155469408Y-103219803D01*
X156210000Y-103960395D01*
X156950592Y-103219803D01*
X156891314Y-102986188D01*
X156653125Y-102875441D01*
X156397907Y-102813289D01*
X156135467Y-102802124D01*
X155875893Y-102842371D01*
X155629158Y-102932486D01*
X155528686Y-102986188D01*
X155469408Y-103219803D01*
X150190364Y-103219803D01*
X156483841Y-96926327D01*
X156517757Y-96898493D01*
X156547829Y-96861851D01*
X156601327Y-96796663D01*
X156628851Y-96763125D01*
X156711401Y-96608685D01*
X156748008Y-96488005D01*
X156762234Y-96441109D01*
X156768418Y-96378319D01*
X156775098Y-96310501D01*
X156775098Y-96310494D01*
X156779398Y-96266834D01*
X156775098Y-96223174D01*
X156775098Y-78359000D01*
X161019582Y-78359000D01*
X161140392Y-78506208D01*
X161358899Y-78685532D01*
X161491858Y-78756600D01*
X161358899Y-78827668D01*
X161140392Y-79006992D01*
X160961068Y-79225499D01*
X160827818Y-79474792D01*
X160745764Y-79745291D01*
X160718057Y-80026600D01*
X160745764Y-80307909D01*
X160827818Y-80578408D01*
X160961068Y-80827701D01*
X161140392Y-81046208D01*
X161358899Y-81225532D01*
X161491858Y-81296600D01*
X161358899Y-81367668D01*
X161140392Y-81546992D01*
X160961068Y-81765499D01*
X160827818Y-82014792D01*
X160745764Y-82285291D01*
X160718057Y-82566600D01*
X160745764Y-82847909D01*
X160827818Y-83118408D01*
X160961068Y-83367701D01*
X161140392Y-83586208D01*
X161358899Y-83765532D01*
X161491858Y-83836600D01*
X161358899Y-83907668D01*
X161140392Y-84086992D01*
X160961068Y-84305499D01*
X160827818Y-84554792D01*
X160745764Y-84825291D01*
X160718057Y-85106600D01*
X160745764Y-85387909D01*
X160827818Y-85658408D01*
X160961068Y-85907701D01*
X161140392Y-86126208D01*
X161358899Y-86305532D01*
X161491858Y-86376600D01*
X161358899Y-86447668D01*
X161140392Y-86626992D01*
X160961068Y-86845499D01*
X160827818Y-87094792D01*
X160745764Y-87365291D01*
X160718057Y-87646600D01*
X160745764Y-87927909D01*
X160827818Y-88198408D01*
X160961068Y-88447701D01*
X161140392Y-88666208D01*
X161358899Y-88845532D01*
X161491858Y-88916600D01*
X161358899Y-88987668D01*
X161140392Y-89166992D01*
X160961068Y-89385499D01*
X160827818Y-89634792D01*
X160745764Y-89905291D01*
X160718057Y-90186600D01*
X160745764Y-90467909D01*
X160827818Y-90738408D01*
X160961068Y-90987701D01*
X161140392Y-91206208D01*
X161358899Y-91385532D01*
X161491858Y-91456600D01*
X161358899Y-91527668D01*
X161140392Y-91706992D01*
X160961068Y-91925499D01*
X160827818Y-92174792D01*
X160745764Y-92445291D01*
X160718057Y-92726600D01*
X160745764Y-93007909D01*
X160827818Y-93278408D01*
X160961068Y-93527701D01*
X161140392Y-93746208D01*
X161358899Y-93925532D01*
X161608192Y-94058782D01*
X161878691Y-94140836D01*
X162089508Y-94161600D01*
X163030492Y-94161600D01*
X163241309Y-94140836D01*
X163511808Y-94058782D01*
X163761101Y-93925532D01*
X163979608Y-93746208D01*
X164158932Y-93527701D01*
X164292182Y-93278408D01*
X164374236Y-93007909D01*
X164401943Y-92726600D01*
X164374236Y-92445291D01*
X164292182Y-92174792D01*
X164158932Y-91925499D01*
X163979608Y-91706992D01*
X163761101Y-91527668D01*
X163628142Y-91456600D01*
X163761101Y-91385532D01*
X163979608Y-91206208D01*
X164158932Y-90987701D01*
X164292182Y-90738408D01*
X164374236Y-90467909D01*
X164401943Y-90186600D01*
X164374236Y-89905291D01*
X164292182Y-89634792D01*
X164158932Y-89385499D01*
X163979608Y-89166992D01*
X163761101Y-88987668D01*
X163628142Y-88916600D01*
X163761101Y-88845532D01*
X163979608Y-88666208D01*
X164158932Y-88447701D01*
X164292182Y-88198408D01*
X164374236Y-87927909D01*
X164401943Y-87646600D01*
X164374236Y-87365291D01*
X164292182Y-87094792D01*
X164158932Y-86845499D01*
X163979608Y-86626992D01*
X163761101Y-86447668D01*
X163628142Y-86376600D01*
X163761101Y-86305532D01*
X163979608Y-86126208D01*
X164158932Y-85907701D01*
X164292182Y-85658408D01*
X164374236Y-85387909D01*
X164401943Y-85106600D01*
X164374236Y-84825291D01*
X164292182Y-84554792D01*
X164158932Y-84305499D01*
X163979608Y-84086992D01*
X163761101Y-83907668D01*
X163628142Y-83836600D01*
X163761101Y-83765532D01*
X163979608Y-83586208D01*
X164158932Y-83367701D01*
X164292182Y-83118408D01*
X164374236Y-82847909D01*
X164401943Y-82566600D01*
X164374236Y-82285291D01*
X164292182Y-82014792D01*
X164158932Y-81765499D01*
X163979608Y-81546992D01*
X163761101Y-81367668D01*
X163628142Y-81296600D01*
X163761101Y-81225532D01*
X163979608Y-81046208D01*
X164158932Y-80827701D01*
X164292182Y-80578408D01*
X164374236Y-80307909D01*
X164401943Y-80026600D01*
X164374236Y-79745291D01*
X164292182Y-79474792D01*
X164158932Y-79225499D01*
X163979608Y-79006992D01*
X163761101Y-78827668D01*
X163628142Y-78756600D01*
X163761101Y-78685532D01*
X163979608Y-78506208D01*
X164158932Y-78287701D01*
X164292182Y-78038408D01*
X164374236Y-77767909D01*
X164401943Y-77486600D01*
X164374236Y-77205291D01*
X164292182Y-76934792D01*
X164158932Y-76685499D01*
X163979608Y-76466992D01*
X163761101Y-76287668D01*
X163628142Y-76216600D01*
X163761101Y-76145532D01*
X163979608Y-75966208D01*
X164158932Y-75747701D01*
X164292182Y-75498408D01*
X164374236Y-75227909D01*
X164401943Y-74946600D01*
X164374236Y-74665291D01*
X164292182Y-74394792D01*
X164158932Y-74145499D01*
X163979608Y-73926992D01*
X163761101Y-73747668D01*
X163628142Y-73676600D01*
X163761101Y-73605532D01*
X163979608Y-73426208D01*
X164158932Y-73207701D01*
X164292182Y-72958408D01*
X164374236Y-72687909D01*
X164401943Y-72406600D01*
X164374236Y-72125291D01*
X164292182Y-71854792D01*
X164158932Y-71605499D01*
X163979608Y-71386992D01*
X163761101Y-71207668D01*
X163628142Y-71136600D01*
X163761101Y-71065532D01*
X163979608Y-70886208D01*
X164158932Y-70667701D01*
X164292182Y-70418408D01*
X164374236Y-70147909D01*
X164401943Y-69866600D01*
X164374236Y-69585291D01*
X164292182Y-69314792D01*
X164158932Y-69065499D01*
X163979608Y-68846992D01*
X163761101Y-68667668D01*
X163628142Y-68596600D01*
X163761101Y-68525532D01*
X163979608Y-68346208D01*
X164158932Y-68127701D01*
X164292182Y-67878408D01*
X164374236Y-67607909D01*
X164401943Y-67326600D01*
X164374236Y-67045291D01*
X164292182Y-66774792D01*
X164158932Y-66525499D01*
X163979608Y-66306992D01*
X163761101Y-66127668D01*
X163628142Y-66056600D01*
X163761101Y-65985532D01*
X163979608Y-65806208D01*
X164158932Y-65587701D01*
X164292182Y-65338408D01*
X164374236Y-65067909D01*
X164401943Y-64786600D01*
X164374236Y-64505291D01*
X164292182Y-64234792D01*
X164158932Y-63985499D01*
X163979608Y-63766992D01*
X163761101Y-63587668D01*
X163628142Y-63516600D01*
X163761101Y-63445532D01*
X163979608Y-63266208D01*
X164158932Y-63047701D01*
X164292182Y-62798408D01*
X164374236Y-62527909D01*
X164401943Y-62246600D01*
X164374236Y-61965291D01*
X164310071Y-61753765D01*
X164865752Y-61198084D01*
X164899669Y-61170249D01*
X165010763Y-61034881D01*
X165093313Y-60880441D01*
X165139170Y-60729268D01*
X165144146Y-60712865D01*
X165147537Y-60678434D01*
X165157010Y-60582257D01*
X165157010Y-60582250D01*
X165161310Y-60538590D01*
X165157010Y-60494930D01*
X165157010Y-54128464D01*
X165161310Y-54084804D01*
X165157010Y-54041139D01*
X165157010Y-54041138D01*
X165147416Y-53943729D01*
X165144146Y-53910529D01*
X165093312Y-53742952D01*
X165074790Y-53708300D01*
X165010763Y-53588514D01*
X164899669Y-53453146D01*
X164865753Y-53425312D01*
X154530645Y-43090205D01*
X154502805Y-43056282D01*
X154367437Y-42945188D01*
X154212997Y-42862638D01*
X154045420Y-42811805D01*
X153914813Y-42798941D01*
X153914806Y-42798941D01*
X153871146Y-42794641D01*
X153827486Y-42798941D01*
X144700431Y-42798941D01*
X144656771Y-42794641D01*
X144613111Y-42798941D01*
X144613104Y-42798941D01*
X144499096Y-42810170D01*
X144482496Y-42811805D01*
X144431663Y-42827225D01*
X144314920Y-42862638D01*
X144160480Y-42945188D01*
X144025112Y-43056282D01*
X143997277Y-43090199D01*
X139085659Y-48001818D01*
X139051742Y-48029653D01*
X139023907Y-48063570D01*
X139023905Y-48063572D01*
X138940648Y-48165021D01*
X138858098Y-48319460D01*
X138807264Y-48487038D01*
X138790100Y-48661312D01*
X138794401Y-48704982D01*
X138794400Y-61357600D01*
X133022796Y-61357600D01*
X132915609Y-61226992D01*
X132697102Y-61047668D01*
X132564143Y-60976600D01*
X132697102Y-60905532D01*
X132915609Y-60726208D01*
X133094933Y-60507701D01*
X133228183Y-60258408D01*
X133310237Y-59987909D01*
X133337944Y-59706600D01*
X133310237Y-59425291D01*
X133228183Y-59154792D01*
X133153873Y-59015768D01*
X134531741Y-57637901D01*
X134565658Y-57610066D01*
X134676752Y-57474698D01*
X134759302Y-57320258D01*
X134803884Y-57173288D01*
X134810135Y-57152682D01*
X134817627Y-57076615D01*
X134822999Y-57022074D01*
X134822999Y-57022067D01*
X134827299Y-56978407D01*
X134822999Y-56934747D01*
X134822999Y-52572147D01*
X134824534Y-52571121D01*
X135019119Y-52376536D01*
X135172004Y-52147728D01*
X135277313Y-51893491D01*
X135330999Y-51623593D01*
X135330999Y-51348409D01*
X135277313Y-51078511D01*
X135172004Y-50824274D01*
X135019119Y-50595466D01*
X134824534Y-50400881D01*
X134595726Y-50247996D01*
X134341489Y-50142687D01*
X134071591Y-50089001D01*
X133796407Y-50089001D01*
X133526509Y-50142687D01*
X133272272Y-50247996D01*
X133043464Y-50400881D01*
X132848879Y-50595466D01*
X132695994Y-50824274D01*
X132590685Y-51078511D01*
X132536999Y-51348409D01*
X132536999Y-51623593D01*
X132590685Y-51893491D01*
X132695994Y-52147728D01*
X132848879Y-52376536D01*
X133043464Y-52571121D01*
X133044999Y-52572147D01*
X133044999Y-53764655D01*
X132915609Y-53606992D01*
X132697102Y-53427668D01*
X132447809Y-53294418D01*
X132177310Y-53212364D01*
X131966493Y-53191600D01*
X131025509Y-53191600D01*
X130814692Y-53212364D01*
X130544193Y-53294418D01*
X130429000Y-53355990D01*
X130429000Y-50616146D01*
X130430535Y-50615120D01*
X130625120Y-50420535D01*
X130778005Y-50191727D01*
X130883314Y-49937490D01*
X130937000Y-49667592D01*
X130937000Y-49392408D01*
X130883314Y-49122510D01*
X130778005Y-48868273D01*
X130625120Y-48639465D01*
X130430535Y-48444880D01*
X130201727Y-48291995D01*
X129947490Y-48186686D01*
X129754752Y-48148348D01*
X130391813Y-47511287D01*
X130425730Y-47483452D01*
X130536824Y-47348084D01*
X130619374Y-47193644D01*
X130656616Y-47070871D01*
X130670207Y-47026068D01*
X130673925Y-46988321D01*
X130683071Y-46895460D01*
X130683071Y-46895454D01*
X130687371Y-46851794D01*
X130683071Y-46808134D01*
X130683071Y-39134629D01*
X130687372Y-39090961D01*
X130670207Y-38916686D01*
X130643094Y-38827305D01*
X130619374Y-38749110D01*
X130536824Y-38594670D01*
X130425730Y-38459302D01*
X130391814Y-38431468D01*
X126668538Y-34708193D01*
X126640698Y-34674270D01*
X126505330Y-34563176D01*
X126350890Y-34480626D01*
X126183313Y-34429793D01*
X126052706Y-34416929D01*
X126052699Y-34416929D01*
X126009039Y-34412629D01*
X125965379Y-34416929D01*
X119563280Y-34416929D01*
X119519620Y-34412629D01*
X119475960Y-34416929D01*
X119475953Y-34416929D01*
X119361945Y-34428158D01*
X119345345Y-34429793D01*
X119294512Y-34445213D01*
X119177769Y-34480626D01*
X119023329Y-34563176D01*
X118887961Y-34674270D01*
X118860126Y-34708188D01*
X117741765Y-35826549D01*
X93219544Y-35826549D01*
X93175884Y-35822249D01*
X93132224Y-35826549D01*
X93132218Y-35826549D01*
X93034809Y-35836143D01*
X93001609Y-35839413D01*
X92899943Y-35870253D01*
X92834034Y-35890246D01*
X92834032Y-35890247D01*
X92827085Y-35893960D01*
X92679594Y-35972796D01*
X92544226Y-36083890D01*
X92516386Y-36117813D01*
X84746229Y-43887970D01*
X84712312Y-43915805D01*
X84684477Y-43949722D01*
X84684475Y-43949724D01*
X84601218Y-44051173D01*
X84518668Y-44205612D01*
X84467834Y-44373190D01*
X84450670Y-44547464D01*
X84454971Y-44591134D01*
X84454971Y-48035577D01*
X84429622Y-48027888D01*
X84305140Y-48015628D01*
X83651090Y-48018700D01*
X83492340Y-48177450D01*
X83492340Y-49466500D01*
X83512340Y-49466500D01*
X83512340Y-49720500D01*
X83492340Y-49720500D01*
X83492340Y-49740500D01*
X83238340Y-49740500D01*
X83238340Y-49720500D01*
X81949290Y-49720500D01*
X81790540Y-49879250D01*
X81787468Y-50533300D01*
X81799728Y-50657782D01*
X81836038Y-50777480D01*
X81895003Y-50887794D01*
X81974355Y-50984485D01*
X82071046Y-51063837D01*
X82160229Y-51111507D01*
X82142113Y-51129623D01*
X81969770Y-51387552D01*
X81851058Y-51674148D01*
X81790540Y-51978396D01*
X81790540Y-52288604D01*
X81851058Y-52592852D01*
X81969770Y-52879448D01*
X82142113Y-53137377D01*
X82361463Y-53356727D01*
X82431464Y-53403500D01*
X82361463Y-53450273D01*
X82142113Y-53669623D01*
X81969770Y-53927552D01*
X81851058Y-54214148D01*
X81790540Y-54518396D01*
X81790540Y-54828604D01*
X81851058Y-55132852D01*
X81969770Y-55419448D01*
X82142113Y-55677377D01*
X82361463Y-55896727D01*
X82431464Y-55943500D01*
X82361463Y-55990273D01*
X82142113Y-56209623D01*
X81969770Y-56467552D01*
X81851058Y-56754148D01*
X81790540Y-57058396D01*
X81790540Y-57368604D01*
X81851058Y-57672852D01*
X81969770Y-57959448D01*
X82142113Y-58217377D01*
X82361463Y-58436727D01*
X82431464Y-58483500D01*
X82361463Y-58530273D01*
X82142113Y-58749623D01*
X81969770Y-59007552D01*
X81851058Y-59294148D01*
X81790540Y-59598396D01*
X81790540Y-59908604D01*
X81851058Y-60212852D01*
X81969770Y-60499448D01*
X82142113Y-60757377D01*
X82361463Y-60976727D01*
X82431464Y-61023500D01*
X82361463Y-61070273D01*
X82142113Y-61289623D01*
X81969770Y-61547552D01*
X81851058Y-61834148D01*
X81790540Y-62138396D01*
X81790540Y-62448604D01*
X81851058Y-62752852D01*
X81969770Y-63039448D01*
X82142113Y-63297377D01*
X82361463Y-63516727D01*
X82431464Y-63563500D01*
X82361463Y-63610273D01*
X82142113Y-63829623D01*
X81969770Y-64087552D01*
X81851058Y-64374148D01*
X81790540Y-64678396D01*
X81790540Y-64988604D01*
X81851058Y-65292852D01*
X81969770Y-65579448D01*
X82142113Y-65837377D01*
X82361463Y-66056727D01*
X82431464Y-66103500D01*
X82361463Y-66150273D01*
X82142113Y-66369623D01*
X81969770Y-66627552D01*
X81851058Y-66914148D01*
X81790540Y-67218396D01*
X81790540Y-67528604D01*
X81851058Y-67832852D01*
X81969770Y-68119448D01*
X82142113Y-68377377D01*
X82361463Y-68596727D01*
X82431464Y-68643500D01*
X82361463Y-68690273D01*
X82142113Y-68909623D01*
X81969770Y-69167552D01*
X81851058Y-69454148D01*
X81790540Y-69758396D01*
X81790540Y-70068604D01*
X81851058Y-70372852D01*
X81969770Y-70659448D01*
X82142113Y-70917377D01*
X82361463Y-71136727D01*
X82431464Y-71183500D01*
X82361463Y-71230273D01*
X82142113Y-71449623D01*
X81969770Y-71707552D01*
X81851058Y-71994148D01*
X81790540Y-72298396D01*
X81790540Y-72608604D01*
X81851058Y-72912852D01*
X81969770Y-73199448D01*
X82142113Y-73457377D01*
X82361463Y-73676727D01*
X82431464Y-73723500D01*
X82361463Y-73770273D01*
X82142113Y-73989623D01*
X81969770Y-74247552D01*
X81851058Y-74534148D01*
X81790540Y-74838396D01*
X81790540Y-75148604D01*
X81851058Y-75452852D01*
X81969770Y-75739448D01*
X82142113Y-75997377D01*
X82361463Y-76216727D01*
X82431464Y-76263500D01*
X82361463Y-76310273D01*
X82142113Y-76529623D01*
X81969770Y-76787552D01*
X81851058Y-77074148D01*
X81790540Y-77378396D01*
X81790540Y-77688604D01*
X81851058Y-77992852D01*
X81969770Y-78279448D01*
X82142113Y-78537377D01*
X82361463Y-78756727D01*
X82431464Y-78803500D01*
X82361463Y-78850273D01*
X82142113Y-79069623D01*
X81969770Y-79327552D01*
X81851058Y-79614148D01*
X81790540Y-79918396D01*
X81790540Y-80228604D01*
X81851058Y-80532852D01*
X81969770Y-80819448D01*
X82142113Y-81077377D01*
X82361463Y-81296727D01*
X82431464Y-81343500D01*
X82361463Y-81390273D01*
X82142113Y-81609623D01*
X81969770Y-81867552D01*
X81851058Y-82154148D01*
X81790540Y-82458396D01*
X81790540Y-82768604D01*
X81851058Y-83072852D01*
X81969770Y-83359448D01*
X82142113Y-83617377D01*
X82361463Y-83836727D01*
X82431464Y-83883500D01*
X82361463Y-83930273D01*
X82142113Y-84149623D01*
X81969770Y-84407552D01*
X81851058Y-84694148D01*
X81790540Y-84998396D01*
X81790540Y-85308604D01*
X81851058Y-85612852D01*
X81969770Y-85899448D01*
X82142113Y-86157377D01*
X82361463Y-86376727D01*
X82431464Y-86423500D01*
X82361463Y-86470273D01*
X82142113Y-86689623D01*
X81969770Y-86947552D01*
X81851058Y-87234148D01*
X81790540Y-87538396D01*
X81790540Y-87848604D01*
X81851058Y-88152852D01*
X81969770Y-88439448D01*
X82142113Y-88697377D01*
X82361463Y-88916727D01*
X82431464Y-88963500D01*
X82361463Y-89010273D01*
X82142113Y-89229623D01*
X81969770Y-89487552D01*
X81851058Y-89774148D01*
X81790540Y-90078396D01*
X81790540Y-90388604D01*
X81851058Y-90692852D01*
X81969770Y-90979448D01*
X82142113Y-91237377D01*
X82361463Y-91456727D01*
X82431464Y-91503500D01*
X82361463Y-91550273D01*
X82142113Y-91769623D01*
X81969770Y-92027552D01*
X81851058Y-92314148D01*
X81790540Y-92618396D01*
X81790540Y-92928604D01*
X81851058Y-93232852D01*
X81969770Y-93519448D01*
X82142113Y-93777377D01*
X82361463Y-93996727D01*
X82431464Y-94043500D01*
X82361463Y-94090273D01*
X82142113Y-94309623D01*
X81969770Y-94567552D01*
X81851058Y-94854148D01*
X81790540Y-95158396D01*
X81790540Y-95468604D01*
X81851058Y-95772852D01*
X81969770Y-96059448D01*
X82142113Y-96317377D01*
X82361463Y-96536727D01*
X82431464Y-96583500D01*
X82361463Y-96630273D01*
X82142113Y-96849623D01*
X81969770Y-97107552D01*
X81851058Y-97394148D01*
X81790540Y-97698396D01*
X81790540Y-98008604D01*
X81799029Y-98051283D01*
X48387000Y-64639255D01*
X48387000Y-58801000D01*
X59914702Y-58801000D01*
X59790065Y-58884280D01*
X59595480Y-59078865D01*
X59442595Y-59307673D01*
X59337286Y-59561910D01*
X59283600Y-59831808D01*
X59283600Y-60106992D01*
X59337286Y-60376890D01*
X59442595Y-60631127D01*
X59595480Y-60859935D01*
X59790065Y-61054520D01*
X60018873Y-61207405D01*
X60273110Y-61312714D01*
X60543008Y-61366400D01*
X60818192Y-61366400D01*
X61088090Y-61312714D01*
X61342327Y-61207405D01*
X61571135Y-61054520D01*
X61640255Y-60985400D01*
X68640905Y-60985400D01*
X68690807Y-60990315D01*
X68740709Y-60985400D01*
X68889978Y-60970698D01*
X69081494Y-60912602D01*
X69257997Y-60818260D01*
X69412703Y-60691296D01*
X69444519Y-60652528D01*
X81710048Y-48387000D01*
X81807799Y-48387000D01*
X81852867Y-48378035D01*
X81836038Y-48409520D01*
X81799728Y-48529218D01*
X81787468Y-48653700D01*
X81790540Y-49307750D01*
X81949290Y-49466500D01*
X83238340Y-49466500D01*
X83238340Y-48177450D01*
X83079590Y-48018700D01*
X82619324Y-48016538D01*
X82755327Y-47880535D01*
X82908212Y-47651727D01*
X83013521Y-47397490D01*
X83067207Y-47127592D01*
X83067207Y-46852408D01*
X83013521Y-46582510D01*
X82908212Y-46328273D01*
X82755327Y-46099465D01*
X82560742Y-45904880D01*
X82331934Y-45751995D01*
X82077697Y-45646686D01*
X81807799Y-45593000D01*
X81532615Y-45593000D01*
X81262717Y-45646686D01*
X81008480Y-45751995D01*
X80779672Y-45904880D01*
X80585087Y-46099465D01*
X80432202Y-46328273D01*
X80326893Y-46582510D01*
X80273207Y-46852408D01*
X80273207Y-46950159D01*
X70342760Y-56880607D01*
X70342760Y-33845500D01*
X169354500Y-33845500D01*
X169354501Y-36979947D01*
G04 #@! TA.AperFunction,Conductor*
D27*
G36*
X169354501Y-36979947D02*
G01*
X169354500Y-130352712D01*
X169354501Y-130352722D01*
X169354500Y-133985000D01*
X70342760Y-133985000D01*
X70342760Y-128635760D01*
X71022029Y-128635760D01*
X71022029Y-133258560D01*
X81377972Y-133258560D01*
X81377972Y-128635760D01*
X71022029Y-128635760D01*
X70342760Y-128635760D01*
X70342760Y-120205500D01*
X70916268Y-120205500D01*
X70916268Y-121983500D01*
X70928528Y-122107982D01*
X70964838Y-122227680D01*
X71023803Y-122337994D01*
X71103155Y-122434685D01*
X71199846Y-122514037D01*
X71310160Y-122573002D01*
X71429858Y-122609312D01*
X71554340Y-122621572D01*
X73332340Y-122621572D01*
X73456822Y-122609312D01*
X73576520Y-122573002D01*
X73686834Y-122514037D01*
X73783525Y-122434685D01*
X73862877Y-122337994D01*
X73921842Y-122227680D01*
X73958152Y-122107982D01*
X73970412Y-121983500D01*
X73970412Y-120205500D01*
X73958152Y-120081018D01*
X73921842Y-119961320D01*
X73862877Y-119851006D01*
X73783525Y-119754315D01*
X73686834Y-119674963D01*
X73576520Y-119615998D01*
X73456822Y-119579688D01*
X73332340Y-119567428D01*
X71554340Y-119567428D01*
X71429858Y-119579688D01*
X71310160Y-119615998D01*
X71199846Y-119674963D01*
X71103155Y-119754315D01*
X71023803Y-119851006D01*
X70964838Y-119961320D01*
X70928528Y-120081018D01*
X70916268Y-120205500D01*
X70342760Y-120205500D01*
X70342760Y-116828570D01*
X87887024Y-116828570D01*
X87887024Y-132576570D01*
X140712976Y-132576570D01*
X140712976Y-119234902D01*
X142036800Y-119234902D01*
X142036800Y-119525098D01*
X142093414Y-119809717D01*
X142204467Y-120077822D01*
X142365691Y-120319110D01*
X142570890Y-120524309D01*
X142812178Y-120685533D01*
X143080283Y-120796586D01*
X143364902Y-120853200D01*
X143655098Y-120853200D01*
X143939717Y-120796586D01*
X144207822Y-120685533D01*
X144449110Y-120524309D01*
X144654309Y-120319110D01*
X144815533Y-120077822D01*
X144926586Y-119809717D01*
X144983200Y-119525098D01*
X144983200Y-119234902D01*
X144982205Y-119229899D01*
X149606000Y-119229899D01*
X149606000Y-119530101D01*
X149664566Y-119824534D01*
X149779449Y-120101885D01*
X149946232Y-120351493D01*
X150158507Y-120563768D01*
X150408115Y-120730551D01*
X150685466Y-120845434D01*
X150979899Y-120904000D01*
X151280101Y-120904000D01*
X151574534Y-120845434D01*
X151851885Y-120730551D01*
X152101493Y-120563768D01*
X152313768Y-120351493D01*
X152480551Y-120101885D01*
X152595434Y-119824534D01*
X152654000Y-119530101D01*
X152654000Y-119229899D01*
X159766000Y-119229899D01*
X159766000Y-119530101D01*
X159824566Y-119824534D01*
X159939449Y-120101885D01*
X160106232Y-120351493D01*
X160318507Y-120563768D01*
X160568115Y-120730551D01*
X160845466Y-120845434D01*
X161139899Y-120904000D01*
X161440101Y-120904000D01*
X161734534Y-120845434D01*
X162011885Y-120730551D01*
X162261493Y-120563768D01*
X162473768Y-120351493D01*
X162640551Y-120101885D01*
X162755434Y-119824534D01*
X162814000Y-119530101D01*
X162814000Y-119229899D01*
X162755434Y-118935466D01*
X162640551Y-118658115D01*
X162473768Y-118408507D01*
X162261493Y-118196232D01*
X162011885Y-118029449D01*
X161734534Y-117914566D01*
X161440101Y-117856000D01*
X161139899Y-117856000D01*
X160845466Y-117914566D01*
X160568115Y-118029449D01*
X160318507Y-118196232D01*
X160106232Y-118408507D01*
X159939449Y-118658115D01*
X159824566Y-118935466D01*
X159766000Y-119229899D01*
X152654000Y-119229899D01*
X152595434Y-118935466D01*
X152480551Y-118658115D01*
X152313768Y-118408507D01*
X152101493Y-118196232D01*
X151851885Y-118029449D01*
X151574534Y-117914566D01*
X151280101Y-117856000D01*
X150979899Y-117856000D01*
X150685466Y-117914566D01*
X150408115Y-118029449D01*
X150158507Y-118196232D01*
X149946232Y-118408507D01*
X149779449Y-118658115D01*
X149664566Y-118935466D01*
X149606000Y-119229899D01*
X144982205Y-119229899D01*
X144926586Y-118950283D01*
X144815533Y-118682178D01*
X144654309Y-118440890D01*
X144449110Y-118235691D01*
X144265057Y-118112711D01*
X144274162Y-118107844D01*
X144350370Y-117859975D01*
X143510000Y-117019605D01*
X142669630Y-117859975D01*
X142745838Y-118107844D01*
X142755408Y-118112399D01*
X142570890Y-118235691D01*
X142365691Y-118440890D01*
X142204467Y-118682178D01*
X142093414Y-118950283D01*
X142036800Y-119234902D01*
X140712976Y-119234902D01*
X140712976Y-116908999D01*
X142031281Y-116908999D01*
X142073155Y-117196157D01*
X142170246Y-117469628D01*
X142242156Y-117604162D01*
X142490025Y-117680370D01*
X143330395Y-116840000D01*
X143689605Y-116840000D01*
X144529975Y-117680370D01*
X144777844Y-117604162D01*
X144902563Y-117342135D01*
X144973768Y-117060811D01*
X144988719Y-116771001D01*
X144946845Y-116483843D01*
X144849754Y-116210372D01*
X144777844Y-116075838D01*
X144529975Y-115999630D01*
X143689605Y-116840000D01*
X143330395Y-116840000D01*
X142490025Y-115999630D01*
X142242156Y-116075838D01*
X142117437Y-116337865D01*
X142046232Y-116619189D01*
X142031281Y-116908999D01*
X140712976Y-116908999D01*
X140712976Y-116828570D01*
X87887024Y-116828570D01*
X70342760Y-116828570D01*
X70342760Y-115820025D01*
X142669630Y-115820025D01*
X143510000Y-116660395D01*
X144350370Y-115820025D01*
X144274162Y-115572156D01*
X144012135Y-115447437D01*
X143730811Y-115376232D01*
X143441001Y-115361281D01*
X143153843Y-115403155D01*
X142880372Y-115500246D01*
X142745838Y-115572156D01*
X142669630Y-115820025D01*
X70342760Y-115820025D01*
X70342760Y-110809576D01*
X71024355Y-111491170D01*
X71092789Y-111656385D01*
X71259572Y-111905993D01*
X71471847Y-112118268D01*
X71721455Y-112285051D01*
X71998806Y-112399934D01*
X72293239Y-112458500D01*
X72593441Y-112458500D01*
X72887874Y-112399934D01*
X73165225Y-112285051D01*
X73414833Y-112118268D01*
X73627108Y-111905993D01*
X73793891Y-111656385D01*
X73908774Y-111379034D01*
X73967340Y-111084601D01*
X73967340Y-110784399D01*
X73908774Y-110489966D01*
X73793891Y-110212615D01*
X73627108Y-109963007D01*
X73414833Y-109750732D01*
X73165225Y-109583949D01*
X73000010Y-109515515D01*
X70515524Y-107031029D01*
X70471768Y-106977712D01*
X70259047Y-106803137D01*
X70016355Y-106673416D01*
X69753020Y-106593534D01*
X69547785Y-106573320D01*
X69479160Y-106566561D01*
X69410535Y-106573320D01*
X48387000Y-106573320D01*
X48387000Y-99860100D01*
X66243263Y-99860100D01*
X77470904Y-111087742D01*
X77498739Y-111121659D01*
X77634107Y-111232753D01*
X77788547Y-111315303D01*
X77905290Y-111350716D01*
X77956123Y-111366136D01*
X78130398Y-111383301D01*
X78174066Y-111379000D01*
X91396340Y-111379000D01*
X91440000Y-111383300D01*
X91483660Y-111379000D01*
X91483667Y-111379000D01*
X91614274Y-111366136D01*
X91781851Y-111315303D01*
X91936291Y-111232753D01*
X92071659Y-111121659D01*
X92099499Y-111087736D01*
X92570596Y-110616640D01*
X92572408Y-110617000D01*
X92847592Y-110617000D01*
X93117490Y-110563314D01*
X93371727Y-110458005D01*
X93600535Y-110305120D01*
X93795120Y-110110535D01*
X93948005Y-109881727D01*
X94053314Y-109627490D01*
X94107000Y-109357592D01*
X94107000Y-109082408D01*
X94053314Y-108812510D01*
X93948005Y-108558273D01*
X93795120Y-108329465D01*
X93600535Y-108134880D01*
X93371727Y-107981995D01*
X93339138Y-107968496D01*
X94246624Y-107061010D01*
X125644956Y-107061010D01*
X125688616Y-107065310D01*
X125732276Y-107061010D01*
X125732283Y-107061010D01*
X125862890Y-107048146D01*
X126030467Y-106997313D01*
X126184907Y-106914763D01*
X126320275Y-106803669D01*
X126348115Y-106769746D01*
X137611804Y-95506058D01*
X137645720Y-95478224D01*
X137675833Y-95441532D01*
X137722756Y-95384356D01*
X137756814Y-95342856D01*
X137839364Y-95188416D01*
X137884203Y-95040600D01*
X137890197Y-95020840D01*
X137891870Y-95003852D01*
X137903061Y-94890232D01*
X137903061Y-94890225D01*
X137907361Y-94846565D01*
X137903061Y-94802905D01*
X137903061Y-80508319D01*
X137907361Y-80464659D01*
X137903061Y-80420999D01*
X137903061Y-80420993D01*
X137891923Y-80307909D01*
X137890197Y-80290384D01*
X137839363Y-80122807D01*
X137828137Y-80101805D01*
X137756814Y-79968369D01*
X137645720Y-79833001D01*
X137611797Y-79805161D01*
X135256215Y-77449579D01*
X135482510Y-77543314D01*
X135752408Y-77597000D01*
X136027592Y-77597000D01*
X136297490Y-77543314D01*
X136551727Y-77438005D01*
X136780535Y-77285120D01*
X136975120Y-77090535D01*
X136976146Y-77089000D01*
X144736333Y-77089000D01*
X144780000Y-77093301D01*
X144823667Y-77089000D01*
X144954274Y-77076136D01*
X145121851Y-77025303D01*
X145276291Y-76942753D01*
X145411659Y-76831659D01*
X145522753Y-76696291D01*
X145605303Y-76541851D01*
X145656136Y-76374274D01*
X145673301Y-76200000D01*
X145669000Y-76156333D01*
X145669000Y-75650289D01*
X145721068Y-75747701D01*
X145900392Y-75966208D01*
X146118899Y-76145532D01*
X146251858Y-76216600D01*
X146118899Y-76287668D01*
X145900392Y-76466992D01*
X145721068Y-76685499D01*
X145587818Y-76934792D01*
X145505764Y-77205291D01*
X145478057Y-77486600D01*
X145505764Y-77767909D01*
X145587818Y-78038408D01*
X145721068Y-78287701D01*
X145900392Y-78506208D01*
X146118899Y-78685532D01*
X146251858Y-78756600D01*
X146118899Y-78827668D01*
X145900392Y-79006992D01*
X145721068Y-79225499D01*
X145587818Y-79474792D01*
X145505764Y-79745291D01*
X145478057Y-80026600D01*
X145505764Y-80307909D01*
X145587818Y-80578408D01*
X145721068Y-80827701D01*
X145900392Y-81046208D01*
X146118899Y-81225532D01*
X146251858Y-81296600D01*
X146118899Y-81367668D01*
X145900392Y-81546992D01*
X145721068Y-81765499D01*
X145587818Y-82014792D01*
X145505764Y-82285291D01*
X145478057Y-82566600D01*
X145505764Y-82847909D01*
X145587818Y-83118408D01*
X145721068Y-83367701D01*
X145900392Y-83586208D01*
X146118899Y-83765532D01*
X146251858Y-83836600D01*
X146118899Y-83907668D01*
X145900392Y-84086992D01*
X145721068Y-84305499D01*
X145587818Y-84554792D01*
X145505764Y-84825291D01*
X145478057Y-85106600D01*
X145505764Y-85387909D01*
X145587818Y-85658408D01*
X145721068Y-85907701D01*
X145900392Y-86126208D01*
X146118899Y-86305532D01*
X146251858Y-86376600D01*
X146118899Y-86447668D01*
X145900392Y-86626992D01*
X145721068Y-86845499D01*
X145587818Y-87094792D01*
X145505764Y-87365291D01*
X145478057Y-87646600D01*
X145505764Y-87927909D01*
X145587818Y-88198408D01*
X145721068Y-88447701D01*
X145900392Y-88666208D01*
X146118899Y-88845532D01*
X146251858Y-88916600D01*
X146118899Y-88987668D01*
X145900392Y-89166992D01*
X145721068Y-89385499D01*
X145587818Y-89634792D01*
X145505764Y-89905291D01*
X145478057Y-90186600D01*
X145505764Y-90467909D01*
X145587818Y-90738408D01*
X145721068Y-90987701D01*
X145900392Y-91206208D01*
X146118899Y-91385532D01*
X146246741Y-91453865D01*
X146017161Y-91603999D01*
X145815500Y-91801705D01*
X145656285Y-92034954D01*
X145545633Y-92294782D01*
X145528096Y-92377561D01*
X145650085Y-92599600D01*
X147193000Y-92599600D01*
X147193000Y-92579600D01*
X147447000Y-92579600D01*
X147447000Y-92599600D01*
X147467000Y-92599600D01*
X147467000Y-92853600D01*
X147447000Y-92853600D01*
X147447000Y-92873600D01*
X147193000Y-92873600D01*
X147193000Y-92853600D01*
X145650085Y-92853600D01*
X145528096Y-93075639D01*
X145545633Y-93158418D01*
X145656285Y-93418246D01*
X145815500Y-93651495D01*
X146017161Y-93849201D01*
X146253517Y-94003766D01*
X146515486Y-94109250D01*
X146793000Y-94161600D01*
X146877569Y-94161600D01*
X140328170Y-100711000D01*
X136976146Y-100711000D01*
X136975120Y-100709465D01*
X136780535Y-100514880D01*
X136551727Y-100361995D01*
X136297490Y-100256686D01*
X136027592Y-100203000D01*
X135752408Y-100203000D01*
X135482510Y-100256686D01*
X135228273Y-100361995D01*
X134999465Y-100514880D01*
X134804880Y-100709465D01*
X134651995Y-100938273D01*
X134546686Y-101192510D01*
X134493000Y-101462408D01*
X134493000Y-101737592D01*
X134546686Y-102007490D01*
X134651995Y-102261727D01*
X134804880Y-102490535D01*
X134999465Y-102685120D01*
X135228273Y-102838005D01*
X135482510Y-102943314D01*
X135752408Y-102997000D01*
X135763000Y-102997000D01*
X135763000Y-103007592D01*
X135816686Y-103277490D01*
X135921995Y-103531727D01*
X136074880Y-103760535D01*
X136269465Y-103955120D01*
X136498273Y-104108005D01*
X136752510Y-104213314D01*
X137022408Y-104267000D01*
X137033000Y-104267000D01*
X137033000Y-104277592D01*
X137086686Y-104547490D01*
X137191995Y-104801727D01*
X137344880Y-105030535D01*
X137539465Y-105225120D01*
X137768273Y-105378005D01*
X138022510Y-105483314D01*
X138292408Y-105537000D01*
X138303000Y-105537000D01*
X138303000Y-105547592D01*
X138356686Y-105817490D01*
X138461995Y-106071727D01*
X138614880Y-106300535D01*
X138809465Y-106495120D01*
X139038273Y-106648005D01*
X139292510Y-106753314D01*
X139562408Y-106807000D01*
X139573000Y-106807000D01*
X139573000Y-106817592D01*
X139626686Y-107087490D01*
X139731995Y-107341727D01*
X139884880Y-107570535D01*
X140079465Y-107765120D01*
X140308273Y-107918005D01*
X140562510Y-108023314D01*
X140832408Y-108077000D01*
X140843000Y-108077000D01*
X140843000Y-108087592D01*
X140896686Y-108357490D01*
X141001995Y-108611727D01*
X141154880Y-108840535D01*
X141349465Y-109035120D01*
X141578273Y-109188005D01*
X141832510Y-109293314D01*
X142102408Y-109347000D01*
X142113000Y-109347000D01*
X142113000Y-109357592D01*
X142166686Y-109627490D01*
X142271995Y-109881727D01*
X142424880Y-110110535D01*
X142619465Y-110305120D01*
X142848273Y-110458005D01*
X143102510Y-110563314D01*
X143372408Y-110617000D01*
X143383000Y-110617000D01*
X143383000Y-110627592D01*
X143436686Y-110897490D01*
X143541995Y-111151727D01*
X143694880Y-111380535D01*
X143889465Y-111575120D01*
X144118273Y-111728005D01*
X144372510Y-111833314D01*
X144642408Y-111887000D01*
X144653000Y-111887000D01*
X144653000Y-111897592D01*
X144706686Y-112167490D01*
X144811995Y-112421727D01*
X144964880Y-112650535D01*
X145159465Y-112845120D01*
X145388273Y-112998005D01*
X145642510Y-113103314D01*
X145912408Y-113157000D01*
X145923000Y-113157000D01*
X145923000Y-113167592D01*
X145976686Y-113437490D01*
X146081995Y-113691727D01*
X146234880Y-113920535D01*
X146429465Y-114115120D01*
X146658273Y-114268005D01*
X146912510Y-114373314D01*
X147182408Y-114427000D01*
X147457592Y-114427000D01*
X147727490Y-114373314D01*
X147981727Y-114268005D01*
X148210535Y-114115120D01*
X148405120Y-113920535D01*
X148558005Y-113691727D01*
X148663314Y-113437490D01*
X148717000Y-113167592D01*
X148717000Y-112892408D01*
X148663314Y-112622510D01*
X148558005Y-112368273D01*
X148405120Y-112139465D01*
X148210535Y-111944880D01*
X148209000Y-111943854D01*
X148209000Y-111546231D01*
X155333374Y-111546231D01*
X155415727Y-111799289D01*
X155686418Y-111929086D01*
X155977230Y-112003580D01*
X156276988Y-112019908D01*
X156574171Y-111977443D01*
X156857359Y-111877816D01*
X157004273Y-111799289D01*
X157086626Y-111546231D01*
X156210000Y-110669605D01*
X155333374Y-111546231D01*
X148209000Y-111546231D01*
X148209000Y-110556988D01*
X154680092Y-110556988D01*
X154722557Y-110854171D01*
X154822184Y-111137359D01*
X154900711Y-111284273D01*
X155153769Y-111366626D01*
X156030395Y-110490000D01*
X156389605Y-110490000D01*
X157266231Y-111366626D01*
X157519289Y-111284273D01*
X157649086Y-111013582D01*
X157723580Y-110722770D01*
X157739908Y-110423012D01*
X157697443Y-110125829D01*
X157597816Y-109842641D01*
X157519289Y-109695727D01*
X157266231Y-109613374D01*
X156389605Y-110490000D01*
X156030395Y-110490000D01*
X155153769Y-109613374D01*
X154900711Y-109695727D01*
X154770914Y-109966418D01*
X154696420Y-110257230D01*
X154680092Y-110556988D01*
X148209000Y-110556988D01*
X148209000Y-109433769D01*
X155333374Y-109433769D01*
X156210000Y-110310395D01*
X156919395Y-109601000D01*
X159762928Y-109601000D01*
X159762928Y-111379000D01*
X159775188Y-111503482D01*
X159811498Y-111623180D01*
X159870463Y-111733494D01*
X159949815Y-111830185D01*
X160046506Y-111909537D01*
X160156820Y-111968502D01*
X160276518Y-112004812D01*
X160401000Y-112017072D01*
X162179000Y-112017072D01*
X162303482Y-112004812D01*
X162423180Y-111968502D01*
X162533494Y-111909537D01*
X162630185Y-111830185D01*
X162709537Y-111733494D01*
X162768502Y-111623180D01*
X162804812Y-111503482D01*
X162817072Y-111379000D01*
X162817072Y-109601000D01*
X162804812Y-109476518D01*
X162768502Y-109356820D01*
X162709537Y-109246506D01*
X162630185Y-109149815D01*
X162533494Y-109070463D01*
X162423180Y-109011498D01*
X162303482Y-108975188D01*
X162179000Y-108962928D01*
X160401000Y-108962928D01*
X160276518Y-108975188D01*
X160156820Y-109011498D01*
X160046506Y-109070463D01*
X159949815Y-109149815D01*
X159870463Y-109246506D01*
X159811498Y-109356820D01*
X159775188Y-109476518D01*
X159762928Y-109601000D01*
X156919395Y-109601000D01*
X157086626Y-109433769D01*
X157004273Y-109180711D01*
X156733582Y-109050914D01*
X156442770Y-108976420D01*
X156143012Y-108960092D01*
X155845829Y-109002557D01*
X155562641Y-109102184D01*
X155415727Y-109180711D01*
X155333374Y-109433769D01*
X148209000Y-109433769D01*
X148209000Y-105201167D01*
X148349970Y-105060197D01*
X155469408Y-105060197D01*
X155528686Y-105293812D01*
X155766875Y-105404559D01*
X156022093Y-105466711D01*
X156284533Y-105477876D01*
X156544107Y-105437629D01*
X156790842Y-105347514D01*
X156891314Y-105293812D01*
X156950592Y-105060197D01*
X156210000Y-104319605D01*
X155469408Y-105060197D01*
X148349970Y-105060197D01*
X149195634Y-104214533D01*
X154872124Y-104214533D01*
X154912371Y-104474107D01*
X155002486Y-104720842D01*
X155056188Y-104821314D01*
X155289803Y-104880592D01*
X156030395Y-104140000D01*
X156389605Y-104140000D01*
X157130197Y-104880592D01*
X157363812Y-104821314D01*
X157474559Y-104583125D01*
X157536711Y-104327907D01*
X157547876Y-104065467D01*
X157539069Y-104008662D01*
X159956500Y-104008662D01*
X159956500Y-104271338D01*
X160007746Y-104528968D01*
X160108268Y-104771649D01*
X160254203Y-104990057D01*
X160439943Y-105175797D01*
X160658351Y-105321732D01*
X160901032Y-105422254D01*
X161158662Y-105473500D01*
X161421338Y-105473500D01*
X161678968Y-105422254D01*
X161921649Y-105321732D01*
X162140057Y-105175797D01*
X162325797Y-104990057D01*
X162471732Y-104771649D01*
X162572254Y-104528968D01*
X162623500Y-104271338D01*
X162623500Y-104008662D01*
X162572254Y-103751032D01*
X162471732Y-103508351D01*
X162325797Y-103289943D01*
X162140057Y-103104203D01*
X161921649Y-102958268D01*
X161678968Y-102857746D01*
X161421338Y-102806500D01*
X161158662Y-102806500D01*
X160901032Y-102857746D01*
X160658351Y-102958268D01*
X160439943Y-103104203D01*
X160254203Y-103289943D01*
X160108268Y-103508351D01*
X160007746Y-103751032D01*
X159956500Y-104008662D01*
X157539069Y-104008662D01*
X157507629Y-103805893D01*
X157417514Y-103559158D01*
X157363812Y-103458686D01*
X157130197Y-103399408D01*
X156389605Y-104140000D01*
X156030395Y-104140000D01*
X155289803Y-103399408D01*
X155056188Y-103458686D01*
X154945441Y-103696875D01*
X154883289Y-103952093D01*
X154872124Y-104214533D01*
X149195634Y-104214533D01*
X150190364Y-103219803D01*
X155469408Y-103219803D01*
X156210000Y-103960395D01*
X156950592Y-103219803D01*
X156891314Y-102986188D01*
X156653125Y-102875441D01*
X156397907Y-102813289D01*
X156135467Y-102802124D01*
X155875893Y-102842371D01*
X155629158Y-102932486D01*
X155528686Y-102986188D01*
X155469408Y-103219803D01*
X150190364Y-103219803D01*
X156483841Y-96926327D01*
X156517757Y-96898493D01*
X156547829Y-96861851D01*
X156601327Y-96796663D01*
X156628851Y-96763125D01*
X156711401Y-96608685D01*
X156748008Y-96488005D01*
X156762234Y-96441109D01*
X156768418Y-96378319D01*
X156775098Y-96310501D01*
X156775098Y-96310494D01*
X156779398Y-96266834D01*
X156775098Y-96223174D01*
X156775098Y-78359000D01*
X161019582Y-78359000D01*
X161140392Y-78506208D01*
X161358899Y-78685532D01*
X161491858Y-78756600D01*
X161358899Y-78827668D01*
X161140392Y-79006992D01*
X160961068Y-79225499D01*
X160827818Y-79474792D01*
X160745764Y-79745291D01*
X160718057Y-80026600D01*
X160745764Y-80307909D01*
X160827818Y-80578408D01*
X160961068Y-80827701D01*
X161140392Y-81046208D01*
X161358899Y-81225532D01*
X161491858Y-81296600D01*
X161358899Y-81367668D01*
X161140392Y-81546992D01*
X160961068Y-81765499D01*
X160827818Y-82014792D01*
X160745764Y-82285291D01*
X160718057Y-82566600D01*
X160745764Y-82847909D01*
X160827818Y-83118408D01*
X160961068Y-83367701D01*
X161140392Y-83586208D01*
X161358899Y-83765532D01*
X161491858Y-83836600D01*
X161358899Y-83907668D01*
X161140392Y-84086992D01*
X160961068Y-84305499D01*
X160827818Y-84554792D01*
X160745764Y-84825291D01*
X160718057Y-85106600D01*
X160745764Y-85387909D01*
X160827818Y-85658408D01*
X160961068Y-85907701D01*
X161140392Y-86126208D01*
X161358899Y-86305532D01*
X161491858Y-86376600D01*
X161358899Y-86447668D01*
X161140392Y-86626992D01*
X160961068Y-86845499D01*
X160827818Y-87094792D01*
X160745764Y-87365291D01*
X160718057Y-87646600D01*
X160745764Y-87927909D01*
X160827818Y-88198408D01*
X160961068Y-88447701D01*
X161140392Y-88666208D01*
X161358899Y-88845532D01*
X161491858Y-88916600D01*
X161358899Y-88987668D01*
X161140392Y-89166992D01*
X160961068Y-89385499D01*
X160827818Y-89634792D01*
X160745764Y-89905291D01*
X160718057Y-90186600D01*
X160745764Y-90467909D01*
X160827818Y-90738408D01*
X160961068Y-90987701D01*
X161140392Y-91206208D01*
X161358899Y-91385532D01*
X161491858Y-91456600D01*
X161358899Y-91527668D01*
X161140392Y-91706992D01*
X160961068Y-91925499D01*
X160827818Y-92174792D01*
X160745764Y-92445291D01*
X160718057Y-92726600D01*
X160745764Y-93007909D01*
X160827818Y-93278408D01*
X160961068Y-93527701D01*
X161140392Y-93746208D01*
X161358899Y-93925532D01*
X161608192Y-94058782D01*
X161878691Y-94140836D01*
X162089508Y-94161600D01*
X163030492Y-94161600D01*
X163241309Y-94140836D01*
X163511808Y-94058782D01*
X163761101Y-93925532D01*
X163979608Y-93746208D01*
X164158932Y-93527701D01*
X164292182Y-93278408D01*
X164374236Y-93007909D01*
X164401943Y-92726600D01*
X164374236Y-92445291D01*
X164292182Y-92174792D01*
X164158932Y-91925499D01*
X163979608Y-91706992D01*
X163761101Y-91527668D01*
X163628142Y-91456600D01*
X163761101Y-91385532D01*
X163979608Y-91206208D01*
X164158932Y-90987701D01*
X164292182Y-90738408D01*
X164374236Y-90467909D01*
X164401943Y-90186600D01*
X164374236Y-89905291D01*
X164292182Y-89634792D01*
X164158932Y-89385499D01*
X163979608Y-89166992D01*
X163761101Y-88987668D01*
X163628142Y-88916600D01*
X163761101Y-88845532D01*
X163979608Y-88666208D01*
X164158932Y-88447701D01*
X164292182Y-88198408D01*
X164374236Y-87927909D01*
X164401943Y-87646600D01*
X164374236Y-87365291D01*
X164292182Y-87094792D01*
X164158932Y-86845499D01*
X163979608Y-86626992D01*
X163761101Y-86447668D01*
X163628142Y-86376600D01*
X163761101Y-86305532D01*
X163979608Y-86126208D01*
X164158932Y-85907701D01*
X164292182Y-85658408D01*
X164374236Y-85387909D01*
X164401943Y-85106600D01*
X164374236Y-84825291D01*
X164292182Y-84554792D01*
X164158932Y-84305499D01*
X163979608Y-84086992D01*
X163761101Y-83907668D01*
X163628142Y-83836600D01*
X163761101Y-83765532D01*
X163979608Y-83586208D01*
X164158932Y-83367701D01*
X164292182Y-83118408D01*
X164374236Y-82847909D01*
X164401943Y-82566600D01*
X164374236Y-82285291D01*
X164292182Y-82014792D01*
X164158932Y-81765499D01*
X163979608Y-81546992D01*
X163761101Y-81367668D01*
X163628142Y-81296600D01*
X163761101Y-81225532D01*
X163979608Y-81046208D01*
X164158932Y-80827701D01*
X164292182Y-80578408D01*
X164374236Y-80307909D01*
X164401943Y-80026600D01*
X164374236Y-79745291D01*
X164292182Y-79474792D01*
X164158932Y-79225499D01*
X163979608Y-79006992D01*
X163761101Y-78827668D01*
X163628142Y-78756600D01*
X163761101Y-78685532D01*
X163979608Y-78506208D01*
X164158932Y-78287701D01*
X164292182Y-78038408D01*
X164374236Y-77767909D01*
X164401943Y-77486600D01*
X164374236Y-77205291D01*
X164292182Y-76934792D01*
X164158932Y-76685499D01*
X163979608Y-76466992D01*
X163761101Y-76287668D01*
X163628142Y-76216600D01*
X163761101Y-76145532D01*
X163979608Y-75966208D01*
X164158932Y-75747701D01*
X164292182Y-75498408D01*
X164374236Y-75227909D01*
X164401943Y-74946600D01*
X164374236Y-74665291D01*
X164292182Y-74394792D01*
X164158932Y-74145499D01*
X163979608Y-73926992D01*
X163761101Y-73747668D01*
X163628142Y-73676600D01*
X163761101Y-73605532D01*
X163979608Y-73426208D01*
X164158932Y-73207701D01*
X164292182Y-72958408D01*
X164374236Y-72687909D01*
X164401943Y-72406600D01*
X164374236Y-72125291D01*
X164292182Y-71854792D01*
X164158932Y-71605499D01*
X163979608Y-71386992D01*
X163761101Y-71207668D01*
X163628142Y-71136600D01*
X163761101Y-71065532D01*
X163979608Y-70886208D01*
X164158932Y-70667701D01*
X164292182Y-70418408D01*
X164374236Y-70147909D01*
X164401943Y-69866600D01*
X164374236Y-69585291D01*
X164292182Y-69314792D01*
X164158932Y-69065499D01*
X163979608Y-68846992D01*
X163761101Y-68667668D01*
X163628142Y-68596600D01*
X163761101Y-68525532D01*
X163979608Y-68346208D01*
X164158932Y-68127701D01*
X164292182Y-67878408D01*
X164374236Y-67607909D01*
X164401943Y-67326600D01*
X164374236Y-67045291D01*
X164292182Y-66774792D01*
X164158932Y-66525499D01*
X163979608Y-66306992D01*
X163761101Y-66127668D01*
X163628142Y-66056600D01*
X163761101Y-65985532D01*
X163979608Y-65806208D01*
X164158932Y-65587701D01*
X164292182Y-65338408D01*
X164374236Y-65067909D01*
X164401943Y-64786600D01*
X164374236Y-64505291D01*
X164292182Y-64234792D01*
X164158932Y-63985499D01*
X163979608Y-63766992D01*
X163761101Y-63587668D01*
X163628142Y-63516600D01*
X163761101Y-63445532D01*
X163979608Y-63266208D01*
X164158932Y-63047701D01*
X164292182Y-62798408D01*
X164374236Y-62527909D01*
X164401943Y-62246600D01*
X164374236Y-61965291D01*
X164310071Y-61753765D01*
X164865752Y-61198084D01*
X164899669Y-61170249D01*
X165010763Y-61034881D01*
X165093313Y-60880441D01*
X165139170Y-60729268D01*
X165144146Y-60712865D01*
X165147537Y-60678434D01*
X165157010Y-60582257D01*
X165157010Y-60582250D01*
X165161310Y-60538590D01*
X165157010Y-60494930D01*
X165157010Y-54128464D01*
X165161310Y-54084804D01*
X165157010Y-54041139D01*
X165157010Y-54041138D01*
X165147416Y-53943729D01*
X165144146Y-53910529D01*
X165093312Y-53742952D01*
X165074790Y-53708300D01*
X165010763Y-53588514D01*
X164899669Y-53453146D01*
X164865753Y-53425312D01*
X154530645Y-43090205D01*
X154502805Y-43056282D01*
X154367437Y-42945188D01*
X154212997Y-42862638D01*
X154045420Y-42811805D01*
X153914813Y-42798941D01*
X153914806Y-42798941D01*
X153871146Y-42794641D01*
X153827486Y-42798941D01*
X144700431Y-42798941D01*
X144656771Y-42794641D01*
X144613111Y-42798941D01*
X144613104Y-42798941D01*
X144499096Y-42810170D01*
X144482496Y-42811805D01*
X144431663Y-42827225D01*
X144314920Y-42862638D01*
X144160480Y-42945188D01*
X144025112Y-43056282D01*
X143997277Y-43090199D01*
X139085659Y-48001818D01*
X139051742Y-48029653D01*
X139023907Y-48063570D01*
X139023905Y-48063572D01*
X138940648Y-48165021D01*
X138858098Y-48319460D01*
X138807264Y-48487038D01*
X138790100Y-48661312D01*
X138794401Y-48704982D01*
X138794400Y-61357600D01*
X133022796Y-61357600D01*
X132915609Y-61226992D01*
X132697102Y-61047668D01*
X132564143Y-60976600D01*
X132697102Y-60905532D01*
X132915609Y-60726208D01*
X133094933Y-60507701D01*
X133228183Y-60258408D01*
X133310237Y-59987909D01*
X133337944Y-59706600D01*
X133310237Y-59425291D01*
X133228183Y-59154792D01*
X133153873Y-59015768D01*
X134531741Y-57637901D01*
X134565658Y-57610066D01*
X134676752Y-57474698D01*
X134759302Y-57320258D01*
X134803884Y-57173288D01*
X134810135Y-57152682D01*
X134817627Y-57076615D01*
X134822999Y-57022074D01*
X134822999Y-57022067D01*
X134827299Y-56978407D01*
X134822999Y-56934747D01*
X134822999Y-52572147D01*
X134824534Y-52571121D01*
X135019119Y-52376536D01*
X135172004Y-52147728D01*
X135277313Y-51893491D01*
X135330999Y-51623593D01*
X135330999Y-51348409D01*
X135277313Y-51078511D01*
X135172004Y-50824274D01*
X135019119Y-50595466D01*
X134824534Y-50400881D01*
X134595726Y-50247996D01*
X134341489Y-50142687D01*
X134071591Y-50089001D01*
X133796407Y-50089001D01*
X133526509Y-50142687D01*
X133272272Y-50247996D01*
X133043464Y-50400881D01*
X132848879Y-50595466D01*
X132695994Y-50824274D01*
X132590685Y-51078511D01*
X132536999Y-51348409D01*
X132536999Y-51623593D01*
X132590685Y-51893491D01*
X132695994Y-52147728D01*
X132848879Y-52376536D01*
X133043464Y-52571121D01*
X133044999Y-52572147D01*
X133044999Y-53764655D01*
X132915609Y-53606992D01*
X132697102Y-53427668D01*
X132447809Y-53294418D01*
X132177310Y-53212364D01*
X131966493Y-53191600D01*
X131025509Y-53191600D01*
X130814692Y-53212364D01*
X130544193Y-53294418D01*
X130429000Y-53355990D01*
X130429000Y-50616146D01*
X130430535Y-50615120D01*
X130625120Y-50420535D01*
X130778005Y-50191727D01*
X130883314Y-49937490D01*
X130937000Y-49667592D01*
X130937000Y-49392408D01*
X130883314Y-49122510D01*
X130778005Y-48868273D01*
X130625120Y-48639465D01*
X130430535Y-48444880D01*
X130201727Y-48291995D01*
X129947490Y-48186686D01*
X129754752Y-48148348D01*
X130391813Y-47511287D01*
X130425730Y-47483452D01*
X130536824Y-47348084D01*
X130619374Y-47193644D01*
X130656616Y-47070871D01*
X130670207Y-47026068D01*
X130673925Y-46988321D01*
X130683071Y-46895460D01*
X130683071Y-46895454D01*
X130687371Y-46851794D01*
X130683071Y-46808134D01*
X130683071Y-39134629D01*
X130687372Y-39090961D01*
X130670207Y-38916686D01*
X130643094Y-38827305D01*
X130619374Y-38749110D01*
X130536824Y-38594670D01*
X130425730Y-38459302D01*
X130391814Y-38431468D01*
X126668538Y-34708193D01*
X126640698Y-34674270D01*
X126505330Y-34563176D01*
X126350890Y-34480626D01*
X126183313Y-34429793D01*
X126052706Y-34416929D01*
X126052699Y-34416929D01*
X126009039Y-34412629D01*
X125965379Y-34416929D01*
X119563280Y-34416929D01*
X119519620Y-34412629D01*
X119475960Y-34416929D01*
X119475953Y-34416929D01*
X119361945Y-34428158D01*
X119345345Y-34429793D01*
X119294512Y-34445213D01*
X119177769Y-34480626D01*
X119023329Y-34563176D01*
X118887961Y-34674270D01*
X118860126Y-34708188D01*
X117741765Y-35826549D01*
X93219544Y-35826549D01*
X93175884Y-35822249D01*
X93132224Y-35826549D01*
X93132218Y-35826549D01*
X93034809Y-35836143D01*
X93001609Y-35839413D01*
X92899943Y-35870253D01*
X92834034Y-35890246D01*
X92834032Y-35890247D01*
X92827085Y-35893960D01*
X92679594Y-35972796D01*
X92544226Y-36083890D01*
X92516386Y-36117813D01*
X84746229Y-43887970D01*
X84712312Y-43915805D01*
X84684477Y-43949722D01*
X84684475Y-43949724D01*
X84601218Y-44051173D01*
X84518668Y-44205612D01*
X84467834Y-44373190D01*
X84450670Y-44547464D01*
X84454971Y-44591134D01*
X84454971Y-48035577D01*
X84429622Y-48027888D01*
X84305140Y-48015628D01*
X83651090Y-48018700D01*
X83492340Y-48177450D01*
X83492340Y-49466500D01*
X83512340Y-49466500D01*
X83512340Y-49720500D01*
X83492340Y-49720500D01*
X83492340Y-49740500D01*
X83238340Y-49740500D01*
X83238340Y-49720500D01*
X81949290Y-49720500D01*
X81790540Y-49879250D01*
X81787468Y-50533300D01*
X81799728Y-50657782D01*
X81836038Y-50777480D01*
X81895003Y-50887794D01*
X81974355Y-50984485D01*
X82071046Y-51063837D01*
X82160229Y-51111507D01*
X82142113Y-51129623D01*
X81969770Y-51387552D01*
X81851058Y-51674148D01*
X81790540Y-51978396D01*
X81790540Y-52288604D01*
X81851058Y-52592852D01*
X81969770Y-52879448D01*
X82142113Y-53137377D01*
X82361463Y-53356727D01*
X82431464Y-53403500D01*
X82361463Y-53450273D01*
X82142113Y-53669623D01*
X81969770Y-53927552D01*
X81851058Y-54214148D01*
X81790540Y-54518396D01*
X81790540Y-54828604D01*
X81851058Y-55132852D01*
X81969770Y-55419448D01*
X82142113Y-55677377D01*
X82361463Y-55896727D01*
X82431464Y-55943500D01*
X82361463Y-55990273D01*
X82142113Y-56209623D01*
X81969770Y-56467552D01*
X81851058Y-56754148D01*
X81790540Y-57058396D01*
X81790540Y-57368604D01*
X81851058Y-57672852D01*
X81969770Y-57959448D01*
X82142113Y-58217377D01*
X82361463Y-58436727D01*
X82431464Y-58483500D01*
X82361463Y-58530273D01*
X82142113Y-58749623D01*
X81969770Y-59007552D01*
X81851058Y-59294148D01*
X81790540Y-59598396D01*
X81790540Y-59908604D01*
X81851058Y-60212852D01*
X81969770Y-60499448D01*
X82142113Y-60757377D01*
X82361463Y-60976727D01*
X82431464Y-61023500D01*
X82361463Y-61070273D01*
X82142113Y-61289623D01*
X81969770Y-61547552D01*
X81851058Y-61834148D01*
X81790540Y-62138396D01*
X81790540Y-62448604D01*
X81851058Y-62752852D01*
X81969770Y-63039448D01*
X82142113Y-63297377D01*
X82361463Y-63516727D01*
X82431464Y-63563500D01*
X82361463Y-63610273D01*
X82142113Y-63829623D01*
X81969770Y-64087552D01*
X81851058Y-64374148D01*
X81790540Y-64678396D01*
X81790540Y-64988604D01*
X81851058Y-65292852D01*
X81969770Y-65579448D01*
X82142113Y-65837377D01*
X82361463Y-66056727D01*
X82431464Y-66103500D01*
X82361463Y-66150273D01*
X82142113Y-66369623D01*
X81969770Y-66627552D01*
X81851058Y-66914148D01*
X81790540Y-67218396D01*
X81790540Y-67528604D01*
X81851058Y-67832852D01*
X81969770Y-68119448D01*
X82142113Y-68377377D01*
X82361463Y-68596727D01*
X82431464Y-68643500D01*
X82361463Y-68690273D01*
X82142113Y-68909623D01*
X81969770Y-69167552D01*
X81851058Y-69454148D01*
X81790540Y-69758396D01*
X81790540Y-70068604D01*
X81851058Y-70372852D01*
X81969770Y-70659448D01*
X82142113Y-70917377D01*
X82361463Y-71136727D01*
X82431464Y-71183500D01*
X82361463Y-71230273D01*
X82142113Y-71449623D01*
X81969770Y-71707552D01*
X81851058Y-71994148D01*
X81790540Y-72298396D01*
X81790540Y-72608604D01*
X81851058Y-72912852D01*
X81969770Y-73199448D01*
X82142113Y-73457377D01*
X82361463Y-73676727D01*
X82431464Y-73723500D01*
X82361463Y-73770273D01*
X82142113Y-73989623D01*
X81969770Y-74247552D01*
X81851058Y-74534148D01*
X81790540Y-74838396D01*
X81790540Y-75148604D01*
X81851058Y-75452852D01*
X81969770Y-75739448D01*
X82142113Y-75997377D01*
X82361463Y-76216727D01*
X82431464Y-76263500D01*
X82361463Y-76310273D01*
X82142113Y-76529623D01*
X81969770Y-76787552D01*
X81851058Y-77074148D01*
X81790540Y-77378396D01*
X81790540Y-77688604D01*
X81851058Y-77992852D01*
X81969770Y-78279448D01*
X82142113Y-78537377D01*
X82361463Y-78756727D01*
X82431464Y-78803500D01*
X82361463Y-78850273D01*
X82142113Y-79069623D01*
X81969770Y-79327552D01*
X81851058Y-79614148D01*
X81790540Y-79918396D01*
X81790540Y-80228604D01*
X81851058Y-80532852D01*
X81969770Y-80819448D01*
X82142113Y-81077377D01*
X82361463Y-81296727D01*
X82431464Y-81343500D01*
X82361463Y-81390273D01*
X82142113Y-81609623D01*
X81969770Y-81867552D01*
X81851058Y-82154148D01*
X81790540Y-82458396D01*
X81790540Y-82768604D01*
X81851058Y-83072852D01*
X81969770Y-83359448D01*
X82142113Y-83617377D01*
X82361463Y-83836727D01*
X82431464Y-83883500D01*
X82361463Y-83930273D01*
X82142113Y-84149623D01*
X81969770Y-84407552D01*
X81851058Y-84694148D01*
X81790540Y-84998396D01*
X81790540Y-85308604D01*
X81851058Y-85612852D01*
X81969770Y-85899448D01*
X82142113Y-86157377D01*
X82361463Y-86376727D01*
X82431464Y-86423500D01*
X82361463Y-86470273D01*
X82142113Y-86689623D01*
X81969770Y-86947552D01*
X81851058Y-87234148D01*
X81790540Y-87538396D01*
X81790540Y-87848604D01*
X81851058Y-88152852D01*
X81969770Y-88439448D01*
X82142113Y-88697377D01*
X82361463Y-88916727D01*
X82431464Y-88963500D01*
X82361463Y-89010273D01*
X82142113Y-89229623D01*
X81969770Y-89487552D01*
X81851058Y-89774148D01*
X81790540Y-90078396D01*
X81790540Y-90388604D01*
X81851058Y-90692852D01*
X81969770Y-90979448D01*
X82142113Y-91237377D01*
X82361463Y-91456727D01*
X82431464Y-91503500D01*
X82361463Y-91550273D01*
X82142113Y-91769623D01*
X81969770Y-92027552D01*
X81851058Y-92314148D01*
X81790540Y-92618396D01*
X81790540Y-92928604D01*
X81851058Y-93232852D01*
X81969770Y-93519448D01*
X82142113Y-93777377D01*
X82361463Y-93996727D01*
X82431464Y-94043500D01*
X82361463Y-94090273D01*
X82142113Y-94309623D01*
X81969770Y-94567552D01*
X81851058Y-94854148D01*
X81790540Y-95158396D01*
X81790540Y-95468604D01*
X81851058Y-95772852D01*
X81969770Y-96059448D01*
X82142113Y-96317377D01*
X82361463Y-96536727D01*
X82431464Y-96583500D01*
X82361463Y-96630273D01*
X82142113Y-96849623D01*
X81969770Y-97107552D01*
X81851058Y-97394148D01*
X81790540Y-97698396D01*
X81790540Y-98008604D01*
X81799029Y-98051283D01*
X48387000Y-64639255D01*
X48387000Y-58801000D01*
X59914702Y-58801000D01*
X59790065Y-58884280D01*
X59595480Y-59078865D01*
X59442595Y-59307673D01*
X59337286Y-59561910D01*
X59283600Y-59831808D01*
X59283600Y-60106992D01*
X59337286Y-60376890D01*
X59442595Y-60631127D01*
X59595480Y-60859935D01*
X59790065Y-61054520D01*
X60018873Y-61207405D01*
X60273110Y-61312714D01*
X60543008Y-61366400D01*
X60818192Y-61366400D01*
X61088090Y-61312714D01*
X61342327Y-61207405D01*
X61571135Y-61054520D01*
X61640255Y-60985400D01*
X68640905Y-60985400D01*
X68690807Y-60990315D01*
X68740709Y-60985400D01*
X68889978Y-60970698D01*
X69081494Y-60912602D01*
X69257997Y-60818260D01*
X69412703Y-60691296D01*
X69444519Y-60652528D01*
X81710048Y-48387000D01*
X81807799Y-48387000D01*
X81852867Y-48378035D01*
X81836038Y-48409520D01*
X81799728Y-48529218D01*
X81787468Y-48653700D01*
X81790540Y-49307750D01*
X81949290Y-49466500D01*
X83238340Y-49466500D01*
X83238340Y-48177450D01*
X83079590Y-48018700D01*
X82619324Y-48016538D01*
X82755327Y-47880535D01*
X82908212Y-47651727D01*
X83013521Y-47397490D01*
X83067207Y-47127592D01*
X83067207Y-46852408D01*
X83013521Y-46582510D01*
X82908212Y-46328273D01*
X82755327Y-46099465D01*
X82560742Y-45904880D01*
X82331934Y-45751995D01*
X82077697Y-45646686D01*
X81807799Y-45593000D01*
X81532615Y-45593000D01*
X81262717Y-45646686D01*
X81008480Y-45751995D01*
X80779672Y-45904880D01*
X80585087Y-46099465D01*
X80432202Y-46328273D01*
X80326893Y-46582510D01*
X80273207Y-46852408D01*
X80273207Y-46950159D01*
X70342760Y-56880607D01*
X70342760Y-33845500D01*
X169354500Y-33845500D01*
X169354501Y-36979947D01*
G37*
G04 #@! TD.AperFunction*
D26*
X128993256Y-100532491D02*
X126612566Y-100532491D01*
X126568906Y-100528191D01*
X126525246Y-100532491D01*
X126525240Y-100532491D01*
X126427831Y-100542085D01*
X126394631Y-100545355D01*
X126292965Y-100576195D01*
X126227056Y-100596188D01*
X126072616Y-100678738D01*
X125937248Y-100789832D01*
X125909408Y-100823755D01*
X124244173Y-102488990D01*
X91231177Y-102488990D01*
X95041167Y-98679000D01*
X97262925Y-98679000D01*
X97382113Y-98857377D01*
X97601463Y-99076727D01*
X97859392Y-99249070D01*
X98145988Y-99367782D01*
X98450236Y-99428300D01*
X98760444Y-99428300D01*
X99064692Y-99367782D01*
X99351288Y-99249070D01*
X99609217Y-99076727D01*
X99828567Y-98857377D01*
X99905326Y-98742500D01*
X107782655Y-98742500D01*
X107759500Y-98858908D01*
X107759500Y-99134092D01*
X107813186Y-99403990D01*
X107918495Y-99658227D01*
X108071380Y-99887035D01*
X108265965Y-100081620D01*
X108494773Y-100234505D01*
X108749010Y-100339814D01*
X109018908Y-100393500D01*
X109294092Y-100393500D01*
X109563990Y-100339814D01*
X109818227Y-100234505D01*
X110047035Y-100081620D01*
X110241620Y-99887035D01*
X110394505Y-99658227D01*
X110499814Y-99403990D01*
X110553500Y-99134092D01*
X110553500Y-98858908D01*
X110499814Y-98589010D01*
X110394505Y-98334773D01*
X110285082Y-98171010D01*
X131354737Y-98171010D01*
X128993256Y-100532491D01*
G04 #@! TA.AperFunction,Conductor*
D27*
G36*
X128993256Y-100532491D02*
G01*
X126612566Y-100532491D01*
X126568906Y-100528191D01*
X126525246Y-100532491D01*
X126525240Y-100532491D01*
X126427831Y-100542085D01*
X126394631Y-100545355D01*
X126292965Y-100576195D01*
X126227056Y-100596188D01*
X126072616Y-100678738D01*
X125937248Y-100789832D01*
X125909408Y-100823755D01*
X124244173Y-102488990D01*
X91231177Y-102488990D01*
X95041167Y-98679000D01*
X97262925Y-98679000D01*
X97382113Y-98857377D01*
X97601463Y-99076727D01*
X97859392Y-99249070D01*
X98145988Y-99367782D01*
X98450236Y-99428300D01*
X98760444Y-99428300D01*
X99064692Y-99367782D01*
X99351288Y-99249070D01*
X99609217Y-99076727D01*
X99828567Y-98857377D01*
X99905326Y-98742500D01*
X107782655Y-98742500D01*
X107759500Y-98858908D01*
X107759500Y-99134092D01*
X107813186Y-99403990D01*
X107918495Y-99658227D01*
X108071380Y-99887035D01*
X108265965Y-100081620D01*
X108494773Y-100234505D01*
X108749010Y-100339814D01*
X109018908Y-100393500D01*
X109294092Y-100393500D01*
X109563990Y-100339814D01*
X109818227Y-100234505D01*
X110047035Y-100081620D01*
X110241620Y-99887035D01*
X110394505Y-99658227D01*
X110499814Y-99403990D01*
X110553500Y-99134092D01*
X110553500Y-98858908D01*
X110499814Y-98589010D01*
X110394505Y-98334773D01*
X110285082Y-98171010D01*
X131354737Y-98171010D01*
X128993256Y-100532491D01*
G37*
G04 #@! TD.AperFunction*
D26*
X128454880Y-50420535D02*
X128649465Y-50615120D01*
X128651000Y-50616146D01*
X128651001Y-60246929D01*
X128646700Y-60290599D01*
X128663864Y-60464873D01*
X128714698Y-60632451D01*
X128797248Y-60786890D01*
X128874024Y-60880441D01*
X128908342Y-60922258D01*
X128942259Y-60950093D01*
X129745930Y-61753765D01*
X129681765Y-61965291D01*
X129654058Y-62246600D01*
X129681765Y-62527909D01*
X129763819Y-62798408D01*
X129897069Y-63047701D01*
X130076393Y-63266208D01*
X130294900Y-63445532D01*
X130427859Y-63516600D01*
X130294900Y-63587668D01*
X130076393Y-63766992D01*
X129897069Y-63985499D01*
X129763819Y-64234792D01*
X129681765Y-64505291D01*
X129654058Y-64786600D01*
X129681765Y-65067909D01*
X129763819Y-65338408D01*
X129897069Y-65587701D01*
X130076393Y-65806208D01*
X130294900Y-65985532D01*
X130427859Y-66056600D01*
X130294900Y-66127668D01*
X130076393Y-66306992D01*
X129897069Y-66525499D01*
X129763819Y-66774792D01*
X129681765Y-67045291D01*
X129654058Y-67326600D01*
X129681765Y-67607909D01*
X129763819Y-67878408D01*
X129897069Y-68127701D01*
X130076393Y-68346208D01*
X130294900Y-68525532D01*
X130427859Y-68596600D01*
X130294900Y-68667668D01*
X130076393Y-68846992D01*
X129897069Y-69065499D01*
X129763819Y-69314792D01*
X129681765Y-69585291D01*
X129654058Y-69866600D01*
X129681765Y-70147909D01*
X129763819Y-70418408D01*
X129897069Y-70667701D01*
X130076393Y-70886208D01*
X130294900Y-71065532D01*
X130427859Y-71136600D01*
X130294900Y-71207668D01*
X130076393Y-71386992D01*
X129897069Y-71605499D01*
X129763819Y-71854792D01*
X129681765Y-72125291D01*
X129654058Y-72406600D01*
X129660736Y-72474399D01*
X127672259Y-74462876D01*
X127638342Y-74490711D01*
X127610507Y-74524628D01*
X127610505Y-74524630D01*
X127527248Y-74626079D01*
X127444698Y-74780518D01*
X127393864Y-74948096D01*
X127377216Y-75117129D01*
X127184880Y-75309465D01*
X127031995Y-75538273D01*
X126926686Y-75792510D01*
X126873000Y-76062408D01*
X126873000Y-76337592D01*
X126926686Y-76607490D01*
X127031995Y-76861727D01*
X127184880Y-77090535D01*
X127379465Y-77285120D01*
X127608273Y-77438005D01*
X127862510Y-77543314D01*
X128132408Y-77597000D01*
X128407592Y-77597000D01*
X128677490Y-77543314D01*
X128931727Y-77438005D01*
X129160535Y-77285120D01*
X129355120Y-77090535D01*
X129508005Y-76861727D01*
X129613314Y-76607490D01*
X129667000Y-76337592D01*
X129667000Y-76062408D01*
X129613314Y-75792510D01*
X129508005Y-75538273D01*
X129355120Y-75309465D01*
X129347630Y-75301975D01*
X129658447Y-74991159D01*
X129681765Y-75227909D01*
X129763819Y-75498408D01*
X129897069Y-75747701D01*
X130076393Y-75966208D01*
X130294900Y-76145532D01*
X130427859Y-76216600D01*
X130294900Y-76287668D01*
X130076393Y-76466992D01*
X129897069Y-76685499D01*
X129763819Y-76934792D01*
X129681765Y-77205291D01*
X129654058Y-77486600D01*
X129681765Y-77767909D01*
X129763819Y-78038408D01*
X129897069Y-78287701D01*
X130076393Y-78506208D01*
X130294900Y-78685532D01*
X130427859Y-78756600D01*
X130294900Y-78827668D01*
X130076393Y-79006992D01*
X129897069Y-79225499D01*
X129763819Y-79474792D01*
X129681765Y-79745291D01*
X129654058Y-80026600D01*
X129681765Y-80307909D01*
X129763819Y-80578408D01*
X129897069Y-80827701D01*
X130076393Y-81046208D01*
X130294900Y-81225532D01*
X130427859Y-81296600D01*
X130294900Y-81367668D01*
X130076393Y-81546992D01*
X129897069Y-81765499D01*
X129763819Y-82014792D01*
X129681765Y-82285291D01*
X129654058Y-82566600D01*
X129681765Y-82847909D01*
X129763819Y-83118408D01*
X129897069Y-83367701D01*
X130076393Y-83586208D01*
X130294900Y-83765532D01*
X130427859Y-83836600D01*
X130294900Y-83907668D01*
X130076393Y-84086992D01*
X129897069Y-84305499D01*
X129763819Y-84554792D01*
X129681765Y-84825291D01*
X129654058Y-85106600D01*
X129681765Y-85387909D01*
X129763819Y-85658408D01*
X129897069Y-85907701D01*
X130076393Y-86126208D01*
X130294900Y-86305532D01*
X130427859Y-86376600D01*
X130294900Y-86447668D01*
X130076393Y-86626992D01*
X129897069Y-86845499D01*
X129763819Y-87094792D01*
X129681765Y-87365291D01*
X129654058Y-87646600D01*
X129681765Y-87927909D01*
X129763819Y-88198408D01*
X129897069Y-88447701D01*
X130076393Y-88666208D01*
X130294900Y-88845532D01*
X130427859Y-88916600D01*
X130294900Y-88987668D01*
X130076393Y-89166992D01*
X129897069Y-89385499D01*
X129763819Y-89634792D01*
X129681765Y-89905291D01*
X129654058Y-90186600D01*
X129681765Y-90467909D01*
X129763819Y-90738408D01*
X129897069Y-90987701D01*
X130076393Y-91206208D01*
X130294900Y-91385532D01*
X130427859Y-91456600D01*
X130294900Y-91527668D01*
X130076393Y-91706992D01*
X129897069Y-91925499D01*
X129763819Y-92174792D01*
X129681765Y-92445291D01*
X129654058Y-92726600D01*
X129681765Y-93007909D01*
X129723536Y-93145610D01*
X123323193Y-93145610D01*
X123371610Y-92902202D01*
X123371610Y-92627018D01*
X123317924Y-92357120D01*
X123212615Y-92102883D01*
X123059730Y-91874075D01*
X122865145Y-91679490D01*
X122636337Y-91526605D01*
X122382100Y-91421296D01*
X122112202Y-91367610D01*
X121837018Y-91367610D01*
X121567120Y-91421296D01*
X121312883Y-91526605D01*
X121084075Y-91679490D01*
X120889490Y-91874075D01*
X120736605Y-92102883D01*
X120631296Y-92357120D01*
X120577610Y-92627018D01*
X120577610Y-92902202D01*
X120626027Y-93145610D01*
X118033081Y-93145610D01*
X118047905Y-93075639D01*
X117925916Y-92853600D01*
X116383001Y-92853600D01*
X116383001Y-92873600D01*
X116129001Y-92873600D01*
X116129001Y-92853600D01*
X116109001Y-92853600D01*
X116109001Y-92599600D01*
X116129001Y-92599600D01*
X116129001Y-92579600D01*
X116383001Y-92579600D01*
X116383001Y-92599600D01*
X117925916Y-92599600D01*
X118047905Y-92377561D01*
X118030368Y-92294782D01*
X117919716Y-92034954D01*
X117760501Y-91801705D01*
X117558840Y-91603999D01*
X117329260Y-91453865D01*
X117457102Y-91385532D01*
X117675609Y-91206208D01*
X117854933Y-90987701D01*
X117988183Y-90738408D01*
X118070237Y-90467909D01*
X118097944Y-90186600D01*
X118070237Y-89905291D01*
X117988183Y-89634792D01*
X117854933Y-89385499D01*
X117675609Y-89166992D01*
X117457102Y-88987668D01*
X117324143Y-88916600D01*
X117457102Y-88845532D01*
X117675609Y-88666208D01*
X117854933Y-88447701D01*
X117988183Y-88198408D01*
X118070237Y-87927909D01*
X118097944Y-87646600D01*
X118070237Y-87365291D01*
X117988183Y-87094792D01*
X117854933Y-86845499D01*
X117675609Y-86626992D01*
X117457102Y-86447668D01*
X117324143Y-86376600D01*
X117457102Y-86305532D01*
X117675609Y-86126208D01*
X117854933Y-85907701D01*
X117988183Y-85658408D01*
X118070237Y-85387909D01*
X118097944Y-85106600D01*
X118070237Y-84825291D01*
X117988183Y-84554792D01*
X117854933Y-84305499D01*
X117675609Y-84086992D01*
X117457102Y-83907668D01*
X117324143Y-83836600D01*
X117457102Y-83765532D01*
X117675609Y-83586208D01*
X117854933Y-83367701D01*
X117988183Y-83118408D01*
X118070237Y-82847909D01*
X118097944Y-82566600D01*
X118070237Y-82285291D01*
X118006072Y-82073764D01*
X121158236Y-78921600D01*
X125481596Y-74598241D01*
X128105782Y-71974055D01*
X128139699Y-71946220D01*
X128169171Y-71910309D01*
X128182794Y-71893709D01*
X128250793Y-71810852D01*
X128333343Y-71656412D01*
X128356128Y-71581298D01*
X128384176Y-71488837D01*
X128390189Y-71427782D01*
X128397040Y-71358228D01*
X128397040Y-71358222D01*
X128401340Y-71314562D01*
X128397040Y-71270902D01*
X128397040Y-50333972D01*
X128454880Y-50420535D01*
G04 #@! TA.AperFunction,Conductor*
D27*
G36*
X128454880Y-50420535D02*
G01*
X128649465Y-50615120D01*
X128651000Y-50616146D01*
X128651001Y-60246929D01*
X128646700Y-60290599D01*
X128663864Y-60464873D01*
X128714698Y-60632451D01*
X128797248Y-60786890D01*
X128874024Y-60880441D01*
X128908342Y-60922258D01*
X128942259Y-60950093D01*
X129745930Y-61753765D01*
X129681765Y-61965291D01*
X129654058Y-62246600D01*
X129681765Y-62527909D01*
X129763819Y-62798408D01*
X129897069Y-63047701D01*
X130076393Y-63266208D01*
X130294900Y-63445532D01*
X130427859Y-63516600D01*
X130294900Y-63587668D01*
X130076393Y-63766992D01*
X129897069Y-63985499D01*
X129763819Y-64234792D01*
X129681765Y-64505291D01*
X129654058Y-64786600D01*
X129681765Y-65067909D01*
X129763819Y-65338408D01*
X129897069Y-65587701D01*
X130076393Y-65806208D01*
X130294900Y-65985532D01*
X130427859Y-66056600D01*
X130294900Y-66127668D01*
X130076393Y-66306992D01*
X129897069Y-66525499D01*
X129763819Y-66774792D01*
X129681765Y-67045291D01*
X129654058Y-67326600D01*
X129681765Y-67607909D01*
X129763819Y-67878408D01*
X129897069Y-68127701D01*
X130076393Y-68346208D01*
X130294900Y-68525532D01*
X130427859Y-68596600D01*
X130294900Y-68667668D01*
X130076393Y-68846992D01*
X129897069Y-69065499D01*
X129763819Y-69314792D01*
X129681765Y-69585291D01*
X129654058Y-69866600D01*
X129681765Y-70147909D01*
X129763819Y-70418408D01*
X129897069Y-70667701D01*
X130076393Y-70886208D01*
X130294900Y-71065532D01*
X130427859Y-71136600D01*
X130294900Y-71207668D01*
X130076393Y-71386992D01*
X129897069Y-71605499D01*
X129763819Y-71854792D01*
X129681765Y-72125291D01*
X129654058Y-72406600D01*
X129660736Y-72474399D01*
X127672259Y-74462876D01*
X127638342Y-74490711D01*
X127610507Y-74524628D01*
X127610505Y-74524630D01*
X127527248Y-74626079D01*
X127444698Y-74780518D01*
X127393864Y-74948096D01*
X127377216Y-75117129D01*
X127184880Y-75309465D01*
X127031995Y-75538273D01*
X126926686Y-75792510D01*
X126873000Y-76062408D01*
X126873000Y-76337592D01*
X126926686Y-76607490D01*
X127031995Y-76861727D01*
X127184880Y-77090535D01*
X127379465Y-77285120D01*
X127608273Y-77438005D01*
X127862510Y-77543314D01*
X128132408Y-77597000D01*
X128407592Y-77597000D01*
X128677490Y-77543314D01*
X128931727Y-77438005D01*
X129160535Y-77285120D01*
X129355120Y-77090535D01*
X129508005Y-76861727D01*
X129613314Y-76607490D01*
X129667000Y-76337592D01*
X129667000Y-76062408D01*
X129613314Y-75792510D01*
X129508005Y-75538273D01*
X129355120Y-75309465D01*
X129347630Y-75301975D01*
X129658447Y-74991159D01*
X129681765Y-75227909D01*
X129763819Y-75498408D01*
X129897069Y-75747701D01*
X130076393Y-75966208D01*
X130294900Y-76145532D01*
X130427859Y-76216600D01*
X130294900Y-76287668D01*
X130076393Y-76466992D01*
X129897069Y-76685499D01*
X129763819Y-76934792D01*
X129681765Y-77205291D01*
X129654058Y-77486600D01*
X129681765Y-77767909D01*
X129763819Y-78038408D01*
X129897069Y-78287701D01*
X130076393Y-78506208D01*
X130294900Y-78685532D01*
X130427859Y-78756600D01*
X130294900Y-78827668D01*
X130076393Y-79006992D01*
X129897069Y-79225499D01*
X129763819Y-79474792D01*
X129681765Y-79745291D01*
X129654058Y-80026600D01*
X129681765Y-80307909D01*
X129763819Y-80578408D01*
X129897069Y-80827701D01*
X130076393Y-81046208D01*
X130294900Y-81225532D01*
X130427859Y-81296600D01*
X130294900Y-81367668D01*
X130076393Y-81546992D01*
X129897069Y-81765499D01*
X129763819Y-82014792D01*
X129681765Y-82285291D01*
X129654058Y-82566600D01*
X129681765Y-82847909D01*
X129763819Y-83118408D01*
X129897069Y-83367701D01*
X130076393Y-83586208D01*
X130294900Y-83765532D01*
X130427859Y-83836600D01*
X130294900Y-83907668D01*
X130076393Y-84086992D01*
X129897069Y-84305499D01*
X129763819Y-84554792D01*
X129681765Y-84825291D01*
X129654058Y-85106600D01*
X129681765Y-85387909D01*
X129763819Y-85658408D01*
X129897069Y-85907701D01*
X130076393Y-86126208D01*
X130294900Y-86305532D01*
X130427859Y-86376600D01*
X130294900Y-86447668D01*
X130076393Y-86626992D01*
X129897069Y-86845499D01*
X129763819Y-87094792D01*
X129681765Y-87365291D01*
X129654058Y-87646600D01*
X129681765Y-87927909D01*
X129763819Y-88198408D01*
X129897069Y-88447701D01*
X130076393Y-88666208D01*
X130294900Y-88845532D01*
X130427859Y-88916600D01*
X130294900Y-88987668D01*
X130076393Y-89166992D01*
X129897069Y-89385499D01*
X129763819Y-89634792D01*
X129681765Y-89905291D01*
X129654058Y-90186600D01*
X129681765Y-90467909D01*
X129763819Y-90738408D01*
X129897069Y-90987701D01*
X130076393Y-91206208D01*
X130294900Y-91385532D01*
X130427859Y-91456600D01*
X130294900Y-91527668D01*
X130076393Y-91706992D01*
X129897069Y-91925499D01*
X129763819Y-92174792D01*
X129681765Y-92445291D01*
X129654058Y-92726600D01*
X129681765Y-93007909D01*
X129723536Y-93145610D01*
X123323193Y-93145610D01*
X123371610Y-92902202D01*
X123371610Y-92627018D01*
X123317924Y-92357120D01*
X123212615Y-92102883D01*
X123059730Y-91874075D01*
X122865145Y-91679490D01*
X122636337Y-91526605D01*
X122382100Y-91421296D01*
X122112202Y-91367610D01*
X121837018Y-91367610D01*
X121567120Y-91421296D01*
X121312883Y-91526605D01*
X121084075Y-91679490D01*
X120889490Y-91874075D01*
X120736605Y-92102883D01*
X120631296Y-92357120D01*
X120577610Y-92627018D01*
X120577610Y-92902202D01*
X120626027Y-93145610D01*
X118033081Y-93145610D01*
X118047905Y-93075639D01*
X117925916Y-92853600D01*
X116383001Y-92853600D01*
X116383001Y-92873600D01*
X116129001Y-92873600D01*
X116129001Y-92853600D01*
X116109001Y-92853600D01*
X116109001Y-92599600D01*
X116129001Y-92599600D01*
X116129001Y-92579600D01*
X116383001Y-92579600D01*
X116383001Y-92599600D01*
X117925916Y-92599600D01*
X118047905Y-92377561D01*
X118030368Y-92294782D01*
X117919716Y-92034954D01*
X117760501Y-91801705D01*
X117558840Y-91603999D01*
X117329260Y-91453865D01*
X117457102Y-91385532D01*
X117675609Y-91206208D01*
X117854933Y-90987701D01*
X117988183Y-90738408D01*
X118070237Y-90467909D01*
X118097944Y-90186600D01*
X118070237Y-89905291D01*
X117988183Y-89634792D01*
X117854933Y-89385499D01*
X117675609Y-89166992D01*
X117457102Y-88987668D01*
X117324143Y-88916600D01*
X117457102Y-88845532D01*
X117675609Y-88666208D01*
X117854933Y-88447701D01*
X117988183Y-88198408D01*
X118070237Y-87927909D01*
X118097944Y-87646600D01*
X118070237Y-87365291D01*
X117988183Y-87094792D01*
X117854933Y-86845499D01*
X117675609Y-86626992D01*
X117457102Y-86447668D01*
X117324143Y-86376600D01*
X117457102Y-86305532D01*
X117675609Y-86126208D01*
X117854933Y-85907701D01*
X117988183Y-85658408D01*
X118070237Y-85387909D01*
X118097944Y-85106600D01*
X118070237Y-84825291D01*
X117988183Y-84554792D01*
X117854933Y-84305499D01*
X117675609Y-84086992D01*
X117457102Y-83907668D01*
X117324143Y-83836600D01*
X117457102Y-83765532D01*
X117675609Y-83586208D01*
X117854933Y-83367701D01*
X117988183Y-83118408D01*
X118070237Y-82847909D01*
X118097944Y-82566600D01*
X118070237Y-82285291D01*
X118006072Y-82073764D01*
X121158236Y-78921600D01*
X125481596Y-74598241D01*
X128105782Y-71974055D01*
X128139699Y-71946220D01*
X128169171Y-71910309D01*
X128182794Y-71893709D01*
X128250793Y-71810852D01*
X128333343Y-71656412D01*
X128356128Y-71581298D01*
X128384176Y-71488837D01*
X128390189Y-71427782D01*
X128397040Y-71358228D01*
X128397040Y-71358222D01*
X128401340Y-71314562D01*
X128397040Y-71270902D01*
X128397040Y-50333972D01*
X128454880Y-50420535D01*
G37*
G04 #@! TD.AperFunction*
D26*
X114523819Y-60258408D02*
X114657069Y-60507701D01*
X114836393Y-60726208D01*
X115054900Y-60905532D01*
X115187859Y-60976600D01*
X115054900Y-61047668D01*
X114836393Y-61226992D01*
X114657069Y-61445499D01*
X114523819Y-61694792D01*
X114441765Y-61965291D01*
X114414058Y-62246600D01*
X114441765Y-62527909D01*
X114523819Y-62798408D01*
X114657069Y-63047701D01*
X114836393Y-63266208D01*
X115054900Y-63445532D01*
X115187859Y-63516600D01*
X115054900Y-63587668D01*
X114836393Y-63766992D01*
X114657069Y-63985499D01*
X114523819Y-64234792D01*
X114441765Y-64505291D01*
X114414058Y-64786600D01*
X114441765Y-65067909D01*
X114523819Y-65338408D01*
X114657069Y-65587701D01*
X114836393Y-65806208D01*
X115054900Y-65985532D01*
X115187859Y-66056600D01*
X115054900Y-66127668D01*
X114836393Y-66306992D01*
X114657069Y-66525499D01*
X114523819Y-66774792D01*
X114441765Y-67045291D01*
X114414058Y-67326600D01*
X114441765Y-67607909D01*
X114523819Y-67878408D01*
X114657069Y-68127701D01*
X114836393Y-68346208D01*
X115054900Y-68525532D01*
X115187859Y-68596600D01*
X115054900Y-68667668D01*
X114836393Y-68846992D01*
X114657069Y-69065499D01*
X114523819Y-69314792D01*
X114441765Y-69585291D01*
X114414058Y-69866600D01*
X114441765Y-70147909D01*
X114523819Y-70418408D01*
X114657069Y-70667701D01*
X114836393Y-70886208D01*
X115054900Y-71065532D01*
X115187859Y-71136600D01*
X115054900Y-71207668D01*
X114836393Y-71386992D01*
X114657069Y-71605499D01*
X114523819Y-71854792D01*
X114441765Y-72125291D01*
X114414058Y-72406600D01*
X114441765Y-72687909D01*
X114523819Y-72958408D01*
X114657069Y-73207701D01*
X114836393Y-73426208D01*
X115054900Y-73605532D01*
X115187859Y-73676600D01*
X115054900Y-73747668D01*
X114836393Y-73926992D01*
X114657069Y-74145499D01*
X114523819Y-74394792D01*
X114441765Y-74665291D01*
X114414058Y-74946600D01*
X114441765Y-75227909D01*
X114523819Y-75498408D01*
X114657069Y-75747701D01*
X114836393Y-75966208D01*
X115054900Y-76145532D01*
X115187859Y-76216600D01*
X115054900Y-76287668D01*
X114836393Y-76466992D01*
X114657069Y-76685499D01*
X114523819Y-76934792D01*
X114441765Y-77205291D01*
X114414058Y-77486600D01*
X114441765Y-77767909D01*
X114523819Y-78038408D01*
X114657069Y-78287701D01*
X114836393Y-78506208D01*
X115054900Y-78685532D01*
X115187859Y-78756600D01*
X115054900Y-78827668D01*
X114836393Y-79006992D01*
X114657069Y-79225499D01*
X114523819Y-79474792D01*
X114441765Y-79745291D01*
X114414058Y-80026600D01*
X114441765Y-80307909D01*
X114523819Y-80578408D01*
X114657069Y-80827701D01*
X114836393Y-81046208D01*
X115054900Y-81225532D01*
X115187859Y-81296600D01*
X115054900Y-81367668D01*
X114836393Y-81546992D01*
X114657069Y-81765499D01*
X114523819Y-82014792D01*
X114499988Y-82093352D01*
X111882400Y-79475764D01*
X111854560Y-79441841D01*
X111719192Y-79330747D01*
X111564752Y-79248197D01*
X111397175Y-79197364D01*
X111266568Y-79184500D01*
X111266561Y-79184500D01*
X111222901Y-79180200D01*
X111179241Y-79184500D01*
X99905326Y-79184500D01*
X99828567Y-79069623D01*
X99609217Y-78850273D01*
X99539216Y-78803500D01*
X99609217Y-78756727D01*
X99828567Y-78537377D01*
X100000910Y-78279448D01*
X100119622Y-77992852D01*
X100180140Y-77688604D01*
X100180140Y-77378396D01*
X100119622Y-77074148D01*
X100000910Y-76787552D01*
X99828567Y-76529623D01*
X99609217Y-76310273D01*
X99472626Y-76219005D01*
X99518211Y-76085976D01*
X98605340Y-75173105D01*
X98591198Y-75187248D01*
X98411593Y-75007643D01*
X98425735Y-74993500D01*
X98784945Y-74993500D01*
X99697816Y-75906371D01*
X99956063Y-75817877D01*
X100090937Y-75538524D01*
X100168721Y-75238225D01*
X100186424Y-74928523D01*
X100143367Y-74621316D01*
X100041205Y-74328414D01*
X99956063Y-74169123D01*
X99697816Y-74080629D01*
X98784945Y-74993500D01*
X98425735Y-74993500D01*
X98411593Y-74979358D01*
X98591198Y-74799753D01*
X98605340Y-74813895D01*
X99518211Y-73901024D01*
X99472626Y-73767995D01*
X99609217Y-73676727D01*
X99828567Y-73457377D01*
X100000910Y-73199448D01*
X100119622Y-72912852D01*
X100180140Y-72608604D01*
X100180140Y-72298396D01*
X100119622Y-71994148D01*
X100000910Y-71707552D01*
X99828567Y-71449623D01*
X99609217Y-71230273D01*
X99539216Y-71183500D01*
X99609217Y-71136727D01*
X99828567Y-70917377D01*
X100000910Y-70659448D01*
X100119622Y-70372852D01*
X100180140Y-70068604D01*
X100180140Y-69758396D01*
X100119622Y-69454148D01*
X100000910Y-69167552D01*
X99828567Y-68909623D01*
X99609217Y-68690273D01*
X99539216Y-68643500D01*
X99609217Y-68596727D01*
X99828567Y-68377377D01*
X99905326Y-68262500D01*
X102889833Y-68262500D01*
X102933500Y-68266801D01*
X102977167Y-68262500D01*
X106005441Y-68262500D01*
X106049101Y-68266800D01*
X106092761Y-68262500D01*
X106092768Y-68262500D01*
X106223375Y-68249636D01*
X106390952Y-68198803D01*
X106545392Y-68116253D01*
X106680760Y-68005159D01*
X106708600Y-67971236D01*
X114499988Y-60179848D01*
X114523819Y-60258408D01*
G04 #@! TA.AperFunction,Conductor*
D27*
G36*
X114523819Y-60258408D02*
G01*
X114657069Y-60507701D01*
X114836393Y-60726208D01*
X115054900Y-60905532D01*
X115187859Y-60976600D01*
X115054900Y-61047668D01*
X114836393Y-61226992D01*
X114657069Y-61445499D01*
X114523819Y-61694792D01*
X114441765Y-61965291D01*
X114414058Y-62246600D01*
X114441765Y-62527909D01*
X114523819Y-62798408D01*
X114657069Y-63047701D01*
X114836393Y-63266208D01*
X115054900Y-63445532D01*
X115187859Y-63516600D01*
X115054900Y-63587668D01*
X114836393Y-63766992D01*
X114657069Y-63985499D01*
X114523819Y-64234792D01*
X114441765Y-64505291D01*
X114414058Y-64786600D01*
X114441765Y-65067909D01*
X114523819Y-65338408D01*
X114657069Y-65587701D01*
X114836393Y-65806208D01*
X115054900Y-65985532D01*
X115187859Y-66056600D01*
X115054900Y-66127668D01*
X114836393Y-66306992D01*
X114657069Y-66525499D01*
X114523819Y-66774792D01*
X114441765Y-67045291D01*
X114414058Y-67326600D01*
X114441765Y-67607909D01*
X114523819Y-67878408D01*
X114657069Y-68127701D01*
X114836393Y-68346208D01*
X115054900Y-68525532D01*
X115187859Y-68596600D01*
X115054900Y-68667668D01*
X114836393Y-68846992D01*
X114657069Y-69065499D01*
X114523819Y-69314792D01*
X114441765Y-69585291D01*
X114414058Y-69866600D01*
X114441765Y-70147909D01*
X114523819Y-70418408D01*
X114657069Y-70667701D01*
X114836393Y-70886208D01*
X115054900Y-71065532D01*
X115187859Y-71136600D01*
X115054900Y-71207668D01*
X114836393Y-71386992D01*
X114657069Y-71605499D01*
X114523819Y-71854792D01*
X114441765Y-72125291D01*
X114414058Y-72406600D01*
X114441765Y-72687909D01*
X114523819Y-72958408D01*
X114657069Y-73207701D01*
X114836393Y-73426208D01*
X115054900Y-73605532D01*
X115187859Y-73676600D01*
X115054900Y-73747668D01*
X114836393Y-73926992D01*
X114657069Y-74145499D01*
X114523819Y-74394792D01*
X114441765Y-74665291D01*
X114414058Y-74946600D01*
X114441765Y-75227909D01*
X114523819Y-75498408D01*
X114657069Y-75747701D01*
X114836393Y-75966208D01*
X115054900Y-76145532D01*
X115187859Y-76216600D01*
X115054900Y-76287668D01*
X114836393Y-76466992D01*
X114657069Y-76685499D01*
X114523819Y-76934792D01*
X114441765Y-77205291D01*
X114414058Y-77486600D01*
X114441765Y-77767909D01*
X114523819Y-78038408D01*
X114657069Y-78287701D01*
X114836393Y-78506208D01*
X115054900Y-78685532D01*
X115187859Y-78756600D01*
X115054900Y-78827668D01*
X114836393Y-79006992D01*
X114657069Y-79225499D01*
X114523819Y-79474792D01*
X114441765Y-79745291D01*
X114414058Y-80026600D01*
X114441765Y-80307909D01*
X114523819Y-80578408D01*
X114657069Y-80827701D01*
X114836393Y-81046208D01*
X115054900Y-81225532D01*
X115187859Y-81296600D01*
X115054900Y-81367668D01*
X114836393Y-81546992D01*
X114657069Y-81765499D01*
X114523819Y-82014792D01*
X114499988Y-82093352D01*
X111882400Y-79475764D01*
X111854560Y-79441841D01*
X111719192Y-79330747D01*
X111564752Y-79248197D01*
X111397175Y-79197364D01*
X111266568Y-79184500D01*
X111266561Y-79184500D01*
X111222901Y-79180200D01*
X111179241Y-79184500D01*
X99905326Y-79184500D01*
X99828567Y-79069623D01*
X99609217Y-78850273D01*
X99539216Y-78803500D01*
X99609217Y-78756727D01*
X99828567Y-78537377D01*
X100000910Y-78279448D01*
X100119622Y-77992852D01*
X100180140Y-77688604D01*
X100180140Y-77378396D01*
X100119622Y-77074148D01*
X100000910Y-76787552D01*
X99828567Y-76529623D01*
X99609217Y-76310273D01*
X99472626Y-76219005D01*
X99518211Y-76085976D01*
X98605340Y-75173105D01*
X98591198Y-75187248D01*
X98411593Y-75007643D01*
X98425735Y-74993500D01*
X98784945Y-74993500D01*
X99697816Y-75906371D01*
X99956063Y-75817877D01*
X100090937Y-75538524D01*
X100168721Y-75238225D01*
X100186424Y-74928523D01*
X100143367Y-74621316D01*
X100041205Y-74328414D01*
X99956063Y-74169123D01*
X99697816Y-74080629D01*
X98784945Y-74993500D01*
X98425735Y-74993500D01*
X98411593Y-74979358D01*
X98591198Y-74799753D01*
X98605340Y-74813895D01*
X99518211Y-73901024D01*
X99472626Y-73767995D01*
X99609217Y-73676727D01*
X99828567Y-73457377D01*
X100000910Y-73199448D01*
X100119622Y-72912852D01*
X100180140Y-72608604D01*
X100180140Y-72298396D01*
X100119622Y-71994148D01*
X100000910Y-71707552D01*
X99828567Y-71449623D01*
X99609217Y-71230273D01*
X99539216Y-71183500D01*
X99609217Y-71136727D01*
X99828567Y-70917377D01*
X100000910Y-70659448D01*
X100119622Y-70372852D01*
X100180140Y-70068604D01*
X100180140Y-69758396D01*
X100119622Y-69454148D01*
X100000910Y-69167552D01*
X99828567Y-68909623D01*
X99609217Y-68690273D01*
X99539216Y-68643500D01*
X99609217Y-68596727D01*
X99828567Y-68377377D01*
X99905326Y-68262500D01*
X102889833Y-68262500D01*
X102933500Y-68266801D01*
X102977167Y-68262500D01*
X106005441Y-68262500D01*
X106049101Y-68266800D01*
X106092761Y-68262500D01*
X106092768Y-68262500D01*
X106223375Y-68249636D01*
X106390952Y-68198803D01*
X106545392Y-68116253D01*
X106680760Y-68005159D01*
X106708600Y-67971236D01*
X114499988Y-60179848D01*
X114523819Y-60258408D01*
G37*
G04 #@! TD.AperFunction*
D26*
X112903361Y-49390596D02*
X112903000Y-49392408D01*
X112903000Y-49667592D01*
X112956686Y-49937490D01*
X113061995Y-50191727D01*
X113214880Y-50420535D01*
X113409465Y-50615120D01*
X113638273Y-50768005D01*
X113892510Y-50873314D01*
X114162408Y-50927000D01*
X114437592Y-50927000D01*
X114707490Y-50873314D01*
X114961727Y-50768005D01*
X115190535Y-50615120D01*
X115385120Y-50420535D01*
X115538005Y-50191727D01*
X115643314Y-49937490D01*
X115668961Y-49808553D01*
X117075011Y-51214603D01*
X117075011Y-53188528D01*
X115056001Y-53188528D01*
X114931519Y-53200788D01*
X114811821Y-53237098D01*
X114701507Y-53296063D01*
X114604816Y-53375415D01*
X114525464Y-53472106D01*
X114466499Y-53582420D01*
X114430189Y-53702118D01*
X114417929Y-53826600D01*
X114417929Y-55426600D01*
X114430189Y-55551082D01*
X114466499Y-55670780D01*
X114525464Y-55781094D01*
X114604816Y-55877785D01*
X114701507Y-55957137D01*
X114811821Y-56016102D01*
X114931519Y-56052412D01*
X114949483Y-56054181D01*
X114836393Y-56146992D01*
X114657069Y-56365499D01*
X114523819Y-56614792D01*
X114441765Y-56885291D01*
X114414058Y-57166600D01*
X114441765Y-57447909D01*
X114505930Y-57659436D01*
X105680866Y-66484500D01*
X103822500Y-66484500D01*
X103822500Y-53202408D01*
X104013000Y-53202408D01*
X104013000Y-53477592D01*
X104066686Y-53747490D01*
X104171995Y-54001727D01*
X104324880Y-54230535D01*
X104519465Y-54425120D01*
X104521000Y-54426146D01*
X104521001Y-56063854D01*
X104519465Y-56064880D01*
X104324880Y-56259465D01*
X104171995Y-56488273D01*
X104066686Y-56742510D01*
X104013000Y-57012408D01*
X104013000Y-57287592D01*
X104066686Y-57557490D01*
X104171995Y-57811727D01*
X104324880Y-58040535D01*
X104519465Y-58235120D01*
X104748273Y-58388005D01*
X105002510Y-58493314D01*
X105272408Y-58547000D01*
X105547592Y-58547000D01*
X105817490Y-58493314D01*
X106071727Y-58388005D01*
X106300535Y-58235120D01*
X106495120Y-58040535D01*
X106648005Y-57811727D01*
X106753314Y-57557490D01*
X106807000Y-57287592D01*
X106807000Y-57012408D01*
X106753314Y-56742510D01*
X106648005Y-56488273D01*
X106495120Y-56259465D01*
X106300535Y-56064880D01*
X106299000Y-56063854D01*
X106299000Y-54426146D01*
X106300535Y-54425120D01*
X106495120Y-54230535D01*
X106648005Y-54001727D01*
X106753314Y-53747490D01*
X106807000Y-53477592D01*
X106807000Y-53202408D01*
X106753314Y-52932510D01*
X106648005Y-52678273D01*
X106495120Y-52449465D01*
X106300535Y-52254880D01*
X106071727Y-52101995D01*
X105817490Y-51996686D01*
X105547592Y-51943000D01*
X105272408Y-51943000D01*
X105002510Y-51996686D01*
X104748273Y-52101995D01*
X104519465Y-52254880D01*
X104324880Y-52449465D01*
X104171995Y-52678273D01*
X104066686Y-52932510D01*
X104013000Y-53202408D01*
X103822500Y-53202408D01*
X103822500Y-51949646D01*
X103824035Y-51948620D01*
X104018620Y-51754035D01*
X104171505Y-51525227D01*
X104276814Y-51270990D01*
X104330500Y-51001092D01*
X104330500Y-50725908D01*
X104276814Y-50456010D01*
X104171505Y-50201773D01*
X104018620Y-49972965D01*
X103824035Y-49778380D01*
X103595227Y-49625495D01*
X103340990Y-49520186D01*
X103071092Y-49466500D01*
X102795908Y-49466500D01*
X102526010Y-49520186D01*
X102271773Y-49625495D01*
X102042965Y-49778380D01*
X101848380Y-49972965D01*
X101695495Y-50201773D01*
X101590186Y-50456010D01*
X101536500Y-50725908D01*
X101536500Y-51001092D01*
X101590186Y-51270990D01*
X101695495Y-51525227D01*
X101848380Y-51754035D01*
X102042965Y-51948620D01*
X102044501Y-51949646D01*
X102044500Y-66484500D01*
X99905326Y-66484500D01*
X99828567Y-66369623D01*
X99609217Y-66150273D01*
X99539216Y-66103500D01*
X99609217Y-66056727D01*
X99828567Y-65837377D01*
X100000910Y-65579448D01*
X100119622Y-65292852D01*
X100180140Y-64988604D01*
X100180140Y-64678396D01*
X100119622Y-64374148D01*
X100000910Y-64087552D01*
X99828567Y-63829623D01*
X99609217Y-63610273D01*
X99539216Y-63563500D01*
X99609217Y-63516727D01*
X99828567Y-63297377D01*
X100000910Y-63039448D01*
X100119622Y-62752852D01*
X100180140Y-62448604D01*
X100180140Y-62138396D01*
X100119622Y-61834148D01*
X100000910Y-61547552D01*
X99828567Y-61289623D01*
X99609217Y-61070273D01*
X99539216Y-61023500D01*
X99609217Y-60976727D01*
X99828567Y-60757377D01*
X100000910Y-60499448D01*
X100119622Y-60212852D01*
X100180140Y-59908604D01*
X100180140Y-59598396D01*
X100119622Y-59294148D01*
X100000910Y-59007552D01*
X99828567Y-58749623D01*
X99609217Y-58530273D01*
X99539216Y-58483500D01*
X99609217Y-58436727D01*
X99828567Y-58217377D01*
X100000910Y-57959448D01*
X100119622Y-57672852D01*
X100180140Y-57368604D01*
X100180140Y-57058396D01*
X100119622Y-56754148D01*
X100000910Y-56467552D01*
X99828567Y-56209623D01*
X99609217Y-55990273D01*
X99539216Y-55943500D01*
X99609217Y-55896727D01*
X99828567Y-55677377D01*
X100000910Y-55419448D01*
X100119622Y-55132852D01*
X100180140Y-54828604D01*
X100180140Y-54518396D01*
X100119622Y-54214148D01*
X100000910Y-53927552D01*
X99828567Y-53669623D01*
X99609217Y-53450273D01*
X99539216Y-53403500D01*
X99609217Y-53356727D01*
X99828567Y-53137377D01*
X100000910Y-52879448D01*
X100119622Y-52592852D01*
X100180140Y-52288604D01*
X100180140Y-51978396D01*
X100119622Y-51674148D01*
X100000910Y-51387552D01*
X99828567Y-51129623D01*
X99609217Y-50910273D01*
X99539216Y-50863500D01*
X99609217Y-50816727D01*
X99828567Y-50597377D01*
X100000910Y-50339448D01*
X100119622Y-50052852D01*
X100180140Y-49748604D01*
X100180140Y-49438396D01*
X100119622Y-49134148D01*
X100078429Y-49034699D01*
X112547464Y-49034699D01*
X112903361Y-49390596D01*
G04 #@! TA.AperFunction,Conductor*
D27*
G36*
X112903361Y-49390596D02*
G01*
X112903000Y-49392408D01*
X112903000Y-49667592D01*
X112956686Y-49937490D01*
X113061995Y-50191727D01*
X113214880Y-50420535D01*
X113409465Y-50615120D01*
X113638273Y-50768005D01*
X113892510Y-50873314D01*
X114162408Y-50927000D01*
X114437592Y-50927000D01*
X114707490Y-50873314D01*
X114961727Y-50768005D01*
X115190535Y-50615120D01*
X115385120Y-50420535D01*
X115538005Y-50191727D01*
X115643314Y-49937490D01*
X115668961Y-49808553D01*
X117075011Y-51214603D01*
X117075011Y-53188528D01*
X115056001Y-53188528D01*
X114931519Y-53200788D01*
X114811821Y-53237098D01*
X114701507Y-53296063D01*
X114604816Y-53375415D01*
X114525464Y-53472106D01*
X114466499Y-53582420D01*
X114430189Y-53702118D01*
X114417929Y-53826600D01*
X114417929Y-55426600D01*
X114430189Y-55551082D01*
X114466499Y-55670780D01*
X114525464Y-55781094D01*
X114604816Y-55877785D01*
X114701507Y-55957137D01*
X114811821Y-56016102D01*
X114931519Y-56052412D01*
X114949483Y-56054181D01*
X114836393Y-56146992D01*
X114657069Y-56365499D01*
X114523819Y-56614792D01*
X114441765Y-56885291D01*
X114414058Y-57166600D01*
X114441765Y-57447909D01*
X114505930Y-57659436D01*
X105680866Y-66484500D01*
X103822500Y-66484500D01*
X103822500Y-53202408D01*
X104013000Y-53202408D01*
X104013000Y-53477592D01*
X104066686Y-53747490D01*
X104171995Y-54001727D01*
X104324880Y-54230535D01*
X104519465Y-54425120D01*
X104521000Y-54426146D01*
X104521001Y-56063854D01*
X104519465Y-56064880D01*
X104324880Y-56259465D01*
X104171995Y-56488273D01*
X104066686Y-56742510D01*
X104013000Y-57012408D01*
X104013000Y-57287592D01*
X104066686Y-57557490D01*
X104171995Y-57811727D01*
X104324880Y-58040535D01*
X104519465Y-58235120D01*
X104748273Y-58388005D01*
X105002510Y-58493314D01*
X105272408Y-58547000D01*
X105547592Y-58547000D01*
X105817490Y-58493314D01*
X106071727Y-58388005D01*
X106300535Y-58235120D01*
X106495120Y-58040535D01*
X106648005Y-57811727D01*
X106753314Y-57557490D01*
X106807000Y-57287592D01*
X106807000Y-57012408D01*
X106753314Y-56742510D01*
X106648005Y-56488273D01*
X106495120Y-56259465D01*
X106300535Y-56064880D01*
X106299000Y-56063854D01*
X106299000Y-54426146D01*
X106300535Y-54425120D01*
X106495120Y-54230535D01*
X106648005Y-54001727D01*
X106753314Y-53747490D01*
X106807000Y-53477592D01*
X106807000Y-53202408D01*
X106753314Y-52932510D01*
X106648005Y-52678273D01*
X106495120Y-52449465D01*
X106300535Y-52254880D01*
X106071727Y-52101995D01*
X105817490Y-51996686D01*
X105547592Y-51943000D01*
X105272408Y-51943000D01*
X105002510Y-51996686D01*
X104748273Y-52101995D01*
X104519465Y-52254880D01*
X104324880Y-52449465D01*
X104171995Y-52678273D01*
X104066686Y-52932510D01*
X104013000Y-53202408D01*
X103822500Y-53202408D01*
X103822500Y-51949646D01*
X103824035Y-51948620D01*
X104018620Y-51754035D01*
X104171505Y-51525227D01*
X104276814Y-51270990D01*
X104330500Y-51001092D01*
X104330500Y-50725908D01*
X104276814Y-50456010D01*
X104171505Y-50201773D01*
X104018620Y-49972965D01*
X103824035Y-49778380D01*
X103595227Y-49625495D01*
X103340990Y-49520186D01*
X103071092Y-49466500D01*
X102795908Y-49466500D01*
X102526010Y-49520186D01*
X102271773Y-49625495D01*
X102042965Y-49778380D01*
X101848380Y-49972965D01*
X101695495Y-50201773D01*
X101590186Y-50456010D01*
X101536500Y-50725908D01*
X101536500Y-51001092D01*
X101590186Y-51270990D01*
X101695495Y-51525227D01*
X101848380Y-51754035D01*
X102042965Y-51948620D01*
X102044501Y-51949646D01*
X102044500Y-66484500D01*
X99905326Y-66484500D01*
X99828567Y-66369623D01*
X99609217Y-66150273D01*
X99539216Y-66103500D01*
X99609217Y-66056727D01*
X99828567Y-65837377D01*
X100000910Y-65579448D01*
X100119622Y-65292852D01*
X100180140Y-64988604D01*
X100180140Y-64678396D01*
X100119622Y-64374148D01*
X100000910Y-64087552D01*
X99828567Y-63829623D01*
X99609217Y-63610273D01*
X99539216Y-63563500D01*
X99609217Y-63516727D01*
X99828567Y-63297377D01*
X100000910Y-63039448D01*
X100119622Y-62752852D01*
X100180140Y-62448604D01*
X100180140Y-62138396D01*
X100119622Y-61834148D01*
X100000910Y-61547552D01*
X99828567Y-61289623D01*
X99609217Y-61070273D01*
X99539216Y-61023500D01*
X99609217Y-60976727D01*
X99828567Y-60757377D01*
X100000910Y-60499448D01*
X100119622Y-60212852D01*
X100180140Y-59908604D01*
X100180140Y-59598396D01*
X100119622Y-59294148D01*
X100000910Y-59007552D01*
X99828567Y-58749623D01*
X99609217Y-58530273D01*
X99539216Y-58483500D01*
X99609217Y-58436727D01*
X99828567Y-58217377D01*
X100000910Y-57959448D01*
X100119622Y-57672852D01*
X100180140Y-57368604D01*
X100180140Y-57058396D01*
X100119622Y-56754148D01*
X100000910Y-56467552D01*
X99828567Y-56209623D01*
X99609217Y-55990273D01*
X99539216Y-55943500D01*
X99609217Y-55896727D01*
X99828567Y-55677377D01*
X100000910Y-55419448D01*
X100119622Y-55132852D01*
X100180140Y-54828604D01*
X100180140Y-54518396D01*
X100119622Y-54214148D01*
X100000910Y-53927552D01*
X99828567Y-53669623D01*
X99609217Y-53450273D01*
X99539216Y-53403500D01*
X99609217Y-53356727D01*
X99828567Y-53137377D01*
X100000910Y-52879448D01*
X100119622Y-52592852D01*
X100180140Y-52288604D01*
X100180140Y-51978396D01*
X100119622Y-51674148D01*
X100000910Y-51387552D01*
X99828567Y-51129623D01*
X99609217Y-50910273D01*
X99539216Y-50863500D01*
X99609217Y-50816727D01*
X99828567Y-50597377D01*
X100000910Y-50339448D01*
X100119622Y-50052852D01*
X100180140Y-49748604D01*
X100180140Y-49438396D01*
X100119622Y-49134148D01*
X100078429Y-49034699D01*
X112547464Y-49034699D01*
X112903361Y-49390596D01*
G37*
G04 #@! TD.AperFunction*
M02*
