G04 #@! TF.GenerationSoftware,KiCad,Pcbnew,5.1.10*
G04 #@! TF.CreationDate,2021-09-01T18:01:51-07:00*
G04 #@! TF.ProjectId,rx5cart,72783563-6172-4742-9e6b-696361645f70,1*
G04 #@! TF.SameCoordinates,Original*
G04 #@! TF.FileFunction,Legend,Top*
G04 #@! TF.FilePolarity,Positive*
%FSLAX46Y46*%
G04 Gerber Fmt 4.6, Leading zero omitted, Abs format (unit mm)*
G04 Created by KiCad (PCBNEW 5.1.10) date 2021-09-01 18:01:51*
%MOMM*%
%LPD*%
G01*
G04 APERTURE LIST*
%ADD10C,0.304800*%
%ADD11C,0.254000*%
%ADD12C,0.152400*%
%ADD13C,0.120000*%
%ADD14C,0.381000*%
%ADD15C,0.088900*%
%ADD16C,0.150000*%
%ADD17C,0.228600*%
%ADD18C,0.203200*%
%ADD19C,2.184400*%
%ADD20O,2.908000X2.108000*%
%ADD21C,2.387600*%
%ADD22C,2.286000*%
%ADD23C,1.905000*%
G04 APERTURE END LIST*
D10*
X160709428Y-108095142D02*
X161870571Y-108095142D01*
X161290000Y-108869238D02*
X161290000Y-107321047D01*
D11*
X144780000Y-116281200D02*
X142240000Y-116281200D01*
D12*
X142534473Y-119026864D02*
G75*
G03*
X143510000Y-119380000I975527J1170864D01*
G01*
X143510469Y-119378111D02*
G75*
G03*
X144520920Y-118993920I-469J1522111D01*
G01*
X143509966Y-116333853D02*
G75*
G03*
X142519400Y-116700300I34J-1522147D01*
G01*
X144485527Y-116685136D02*
G75*
G03*
X143510000Y-116332000I-975527J-1170864D01*
G01*
X142622845Y-116616834D02*
G75*
G03*
X141986000Y-117856000I887155J-1239166D01*
G01*
X141986000Y-117856801D02*
G75*
G03*
X142595600Y-119075200I1524000J801D01*
G01*
X145032206Y-117855558D02*
G75*
G03*
X144444720Y-116654580I-1522206J-442D01*
G01*
X144446171Y-119058564D02*
G75*
G03*
X145034000Y-117856000I-936171J1202564D01*
G01*
X142875000Y-117856000D02*
G75*
G03*
X143510000Y-118491000I635000J0D01*
G01*
X142494000Y-117856000D02*
G75*
G03*
X143510000Y-118872000I1016000J0D01*
G01*
X144145000Y-117856000D02*
G75*
G03*
X143510000Y-117221000I-635000J0D01*
G01*
X144526000Y-117856000D02*
G75*
G03*
X143510000Y-116840000I-1016000J0D01*
G01*
D11*
X142206574Y-116297120D02*
G75*
G03*
X141478000Y-117856000I1303426J-1558880D01*
G01*
X141480540Y-117856975D02*
G75*
G03*
X142554960Y-119646700I2029460J975D01*
G01*
X145539386Y-117853448D02*
G75*
G03*
X144820640Y-116306600I-2029386J-2552D01*
G01*
X144519851Y-119619299D02*
G75*
G03*
X145542000Y-117856000I-1009851J1763299D01*
G01*
X142546653Y-119645130D02*
G75*
G03*
X143510000Y-119888000I963347J1789130D01*
G01*
X143510100Y-119886923D02*
G75*
G03*
X144574260Y-119585740I-100J2030923D01*
G01*
D13*
X153940000Y-53296600D02*
X148880000Y-53296600D01*
X148880000Y-53296600D02*
X148880000Y-94056600D01*
X148880000Y-94056600D02*
X161000000Y-94056600D01*
X161000000Y-94056600D02*
X161000000Y-53296600D01*
X161000000Y-53296600D02*
X155940000Y-53296600D01*
X145880000Y-53236600D02*
X145880000Y-94116600D01*
X145880000Y-94116600D02*
X164000000Y-94116600D01*
X164000000Y-94116600D02*
X164000000Y-53236600D01*
X164000000Y-53236600D02*
X145880000Y-53236600D01*
X155940000Y-53296600D02*
G75*
G02*
X153940000Y-53296600I-1000000J0D01*
G01*
X122876001Y-53296600D02*
X117816001Y-53296600D01*
X117816001Y-53296600D02*
X117816001Y-94056600D01*
X117816001Y-94056600D02*
X129936001Y-94056600D01*
X129936001Y-94056600D02*
X129936001Y-53296600D01*
X129936001Y-53296600D02*
X124876001Y-53296600D01*
X114816001Y-53236600D02*
X114816001Y-94116600D01*
X114816001Y-94116600D02*
X132936001Y-94116600D01*
X132936001Y-94116600D02*
X132936001Y-53236600D01*
X132936001Y-53236600D02*
X114816001Y-53236600D01*
X124876001Y-53296600D02*
G75*
G02*
X122876001Y-53296600I-1000000J0D01*
G01*
D14*
X82095340Y-48323500D02*
X99875340Y-48323500D01*
X82095340Y-99123500D02*
X82095340Y-48323500D01*
X99875340Y-99123500D02*
X82095340Y-99123500D01*
X99875340Y-48323500D02*
X99875340Y-99123500D01*
X97335340Y-48323500D02*
X97335340Y-99123500D01*
X84635340Y-99123500D02*
X84635340Y-48323500D01*
X88445340Y-54673500D02*
X88445340Y-48323500D01*
X93525340Y-54673500D02*
X88445340Y-54673500D01*
X93525340Y-48323500D02*
X93525340Y-54673500D01*
X87175340Y-96583500D02*
X87175340Y-99123500D01*
X94795340Y-96583500D02*
X87175340Y-96583500D01*
X94795340Y-99123500D02*
X94795340Y-96583500D01*
X94795340Y-81343500D02*
X94795340Y-91503500D01*
X89715340Y-81343500D02*
X94795340Y-81343500D01*
X89715340Y-88963500D02*
X89715340Y-81343500D01*
X87175340Y-88963500D02*
X89715340Y-88963500D01*
X87175340Y-91503500D02*
X87175340Y-88963500D01*
X94795340Y-91503500D02*
X87175340Y-91503500D01*
X89715340Y-88963500D02*
X89715340Y-91503500D01*
D10*
X151130000Y-119380000D02*
X152146000Y-119380000D01*
X160274000Y-119888000D02*
X159766000Y-120396000D01*
X160274000Y-118364000D02*
X160274000Y-119380000D01*
X152146000Y-118364000D02*
X160274000Y-118364000D01*
X152146000Y-120396000D02*
X152146000Y-118364000D01*
X160274000Y-120396000D02*
X152146000Y-120396000D01*
X160274000Y-119380000D02*
X160274000Y-120396000D01*
X161290000Y-119380000D02*
X160274000Y-119380000D01*
D14*
X29509720Y-100970080D02*
X29509720Y-109969300D01*
X29509720Y-70970140D02*
X29509720Y-99969320D01*
X29509720Y-69969380D02*
X29509720Y-57970420D01*
X29509720Y-57970420D02*
X29509720Y-69969380D01*
X29507180Y-69969380D02*
X41506140Y-69969380D01*
X41506140Y-69969380D02*
X41506140Y-70970140D01*
X41506140Y-70970140D02*
X29507180Y-70970140D01*
X29509720Y-100970080D02*
X39509700Y-100970080D01*
X39509700Y-100970080D02*
X39509700Y-99969320D01*
X39509700Y-99969320D02*
X29509720Y-99969320D01*
X29509720Y-109969300D02*
X44510960Y-109969300D01*
X44510960Y-109969300D02*
X44510960Y-57970420D01*
X44510960Y-57970420D02*
X29509720Y-57970420D01*
D10*
X72443340Y-119824500D02*
X72443340Y-121094500D01*
X72443340Y-112204500D02*
X72443340Y-110934500D01*
X71173340Y-118554500D02*
X73713340Y-118554500D01*
X73713340Y-119189500D02*
X71173340Y-119189500D01*
X71173340Y-112204500D02*
X73713340Y-112204500D01*
X71173340Y-119824500D02*
X71173340Y-112204500D01*
X73713340Y-119824500D02*
X71173340Y-119824500D01*
X73713340Y-112204500D02*
X73713340Y-119824500D01*
X162306000Y-104648000D02*
X161798000Y-105156000D01*
X162306000Y-103124000D02*
X162306000Y-105156000D01*
X155194000Y-103124000D02*
X162306000Y-103124000D01*
X155194000Y-105156000D02*
X155194000Y-103124000D01*
X162306000Y-105156000D02*
X155194000Y-105156000D01*
X163195000Y-110490000D02*
G75*
G03*
X163195000Y-110490000I-4445000J0D01*
G01*
D15*
X141060714Y-116894428D02*
X140298714Y-116894428D01*
X140298714Y-116713000D01*
X140335000Y-116604142D01*
X140407571Y-116531571D01*
X140480142Y-116495285D01*
X140625285Y-116459000D01*
X140734142Y-116459000D01*
X140879285Y-116495285D01*
X140951857Y-116531571D01*
X141024428Y-116604142D01*
X141060714Y-116713000D01*
X141060714Y-116894428D01*
X140371285Y-116168714D02*
X140335000Y-116132428D01*
X140298714Y-116059857D01*
X140298714Y-115878428D01*
X140335000Y-115805857D01*
X140371285Y-115769571D01*
X140443857Y-115733285D01*
X140516428Y-115733285D01*
X140625285Y-115769571D01*
X141060714Y-116205000D01*
X141060714Y-115733285D01*
X146394714Y-118599857D02*
X146394714Y-118962714D01*
X145632714Y-118962714D01*
X145995571Y-118345857D02*
X145995571Y-118091857D01*
X146394714Y-117983000D02*
X146394714Y-118345857D01*
X145632714Y-118345857D01*
X145632714Y-117983000D01*
X146394714Y-117656428D02*
X145632714Y-117656428D01*
X145632714Y-117475000D01*
X145669000Y-117366142D01*
X145741571Y-117293571D01*
X145814142Y-117257285D01*
X145959285Y-117221000D01*
X146068142Y-117221000D01*
X146213285Y-117257285D01*
X146285857Y-117293571D01*
X146358428Y-117366142D01*
X146394714Y-117475000D01*
X146394714Y-117656428D01*
D16*
X154178095Y-51748980D02*
X154178095Y-52558504D01*
X154225714Y-52653742D01*
X154273333Y-52701361D01*
X154368571Y-52748980D01*
X154559047Y-52748980D01*
X154654285Y-52701361D01*
X154701904Y-52653742D01*
X154749523Y-52558504D01*
X154749523Y-51748980D01*
X155130476Y-51748980D02*
X155749523Y-51748980D01*
X155416190Y-52129933D01*
X155559047Y-52129933D01*
X155654285Y-52177552D01*
X155701904Y-52225171D01*
X155749523Y-52320409D01*
X155749523Y-52558504D01*
X155701904Y-52653742D01*
X155654285Y-52701361D01*
X155559047Y-52748980D01*
X155273333Y-52748980D01*
X155178095Y-52701361D01*
X155130476Y-52653742D01*
X151297142Y-94508980D02*
X151868571Y-94508980D01*
X151582857Y-95508980D02*
X151582857Y-94508980D01*
X152773333Y-95413742D02*
X152725714Y-95461361D01*
X152582857Y-95508980D01*
X152487619Y-95508980D01*
X152344761Y-95461361D01*
X152249523Y-95366123D01*
X152201904Y-95270885D01*
X152154285Y-95080409D01*
X152154285Y-94937552D01*
X152201904Y-94747076D01*
X152249523Y-94651838D01*
X152344761Y-94556600D01*
X152487619Y-94508980D01*
X152582857Y-94508980D01*
X152725714Y-94556600D01*
X152773333Y-94604219D01*
X153678095Y-94508980D02*
X153201904Y-94508980D01*
X153154285Y-94985171D01*
X153201904Y-94937552D01*
X153297142Y-94889933D01*
X153535238Y-94889933D01*
X153630476Y-94937552D01*
X153678095Y-94985171D01*
X153725714Y-95080409D01*
X153725714Y-95318504D01*
X153678095Y-95413742D01*
X153630476Y-95461361D01*
X153535238Y-95508980D01*
X153297142Y-95508980D01*
X153201904Y-95461361D01*
X153154285Y-95413742D01*
X154630476Y-94508980D02*
X154154285Y-94508980D01*
X154106666Y-94985171D01*
X154154285Y-94937552D01*
X154249523Y-94889933D01*
X154487619Y-94889933D01*
X154582857Y-94937552D01*
X154630476Y-94985171D01*
X154678095Y-95080409D01*
X154678095Y-95318504D01*
X154630476Y-95413742D01*
X154582857Y-95461361D01*
X154487619Y-95508980D01*
X154249523Y-95508980D01*
X154154285Y-95461361D01*
X154106666Y-95413742D01*
X155630476Y-95508980D02*
X155059047Y-95508980D01*
X155344761Y-95508980D02*
X155344761Y-94508980D01*
X155249523Y-94651838D01*
X155154285Y-94747076D01*
X155059047Y-94794695D01*
X156249523Y-94508980D02*
X156344761Y-94508980D01*
X156440000Y-94556600D01*
X156487619Y-94604219D01*
X156535238Y-94699457D01*
X156582857Y-94889933D01*
X156582857Y-95128028D01*
X156535238Y-95318504D01*
X156487619Y-95413742D01*
X156440000Y-95461361D01*
X156344761Y-95508980D01*
X156249523Y-95508980D01*
X156154285Y-95461361D01*
X156106666Y-95413742D01*
X156059047Y-95318504D01*
X156011428Y-95128028D01*
X156011428Y-94889933D01*
X156059047Y-94699457D01*
X156106666Y-94604219D01*
X156154285Y-94556600D01*
X156249523Y-94508980D01*
X157201904Y-94508980D02*
X157297142Y-94508980D01*
X157392380Y-94556600D01*
X157440000Y-94604219D01*
X157487619Y-94699457D01*
X157535238Y-94889933D01*
X157535238Y-95128028D01*
X157487619Y-95318504D01*
X157440000Y-95413742D01*
X157392380Y-95461361D01*
X157297142Y-95508980D01*
X157201904Y-95508980D01*
X157106666Y-95461361D01*
X157059047Y-95413742D01*
X157011428Y-95318504D01*
X156963809Y-95128028D01*
X156963809Y-94889933D01*
X157011428Y-94699457D01*
X157059047Y-94604219D01*
X157106666Y-94556600D01*
X157201904Y-94508980D01*
X158487619Y-95508980D02*
X157916190Y-95508980D01*
X158201904Y-95508980D02*
X158201904Y-94508980D01*
X158106666Y-94651838D01*
X158011428Y-94747076D01*
X157916190Y-94794695D01*
X123114096Y-51748980D02*
X123114096Y-52558504D01*
X123161715Y-52653742D01*
X123209334Y-52701361D01*
X123304572Y-52748980D01*
X123495048Y-52748980D01*
X123590286Y-52701361D01*
X123637905Y-52653742D01*
X123685524Y-52558504D01*
X123685524Y-51748980D01*
X124114096Y-51844219D02*
X124161715Y-51796600D01*
X124256953Y-51748980D01*
X124495048Y-51748980D01*
X124590286Y-51796600D01*
X124637905Y-51844219D01*
X124685524Y-51939457D01*
X124685524Y-52034695D01*
X124637905Y-52177552D01*
X124066477Y-52748980D01*
X124685524Y-52748980D01*
X120233143Y-94508980D02*
X120804572Y-94508980D01*
X120518858Y-95508980D02*
X120518858Y-94508980D01*
X121709334Y-95413742D02*
X121661715Y-95461361D01*
X121518858Y-95508980D01*
X121423620Y-95508980D01*
X121280762Y-95461361D01*
X121185524Y-95366123D01*
X121137905Y-95270885D01*
X121090286Y-95080409D01*
X121090286Y-94937552D01*
X121137905Y-94747076D01*
X121185524Y-94651838D01*
X121280762Y-94556600D01*
X121423620Y-94508980D01*
X121518858Y-94508980D01*
X121661715Y-94556600D01*
X121709334Y-94604219D01*
X122614096Y-94508980D02*
X122137905Y-94508980D01*
X122090286Y-94985171D01*
X122137905Y-94937552D01*
X122233143Y-94889933D01*
X122471239Y-94889933D01*
X122566477Y-94937552D01*
X122614096Y-94985171D01*
X122661715Y-95080409D01*
X122661715Y-95318504D01*
X122614096Y-95413742D01*
X122566477Y-95461361D01*
X122471239Y-95508980D01*
X122233143Y-95508980D01*
X122137905Y-95461361D01*
X122090286Y-95413742D01*
X123566477Y-94508980D02*
X123090286Y-94508980D01*
X123042667Y-94985171D01*
X123090286Y-94937552D01*
X123185524Y-94889933D01*
X123423620Y-94889933D01*
X123518858Y-94937552D01*
X123566477Y-94985171D01*
X123614096Y-95080409D01*
X123614096Y-95318504D01*
X123566477Y-95413742D01*
X123518858Y-95461361D01*
X123423620Y-95508980D01*
X123185524Y-95508980D01*
X123090286Y-95461361D01*
X123042667Y-95413742D01*
X124566477Y-95508980D02*
X123995048Y-95508980D01*
X124280762Y-95508980D02*
X124280762Y-94508980D01*
X124185524Y-94651838D01*
X124090286Y-94747076D01*
X123995048Y-94794695D01*
X125185524Y-94508980D02*
X125280762Y-94508980D01*
X125376001Y-94556600D01*
X125423620Y-94604219D01*
X125471239Y-94699457D01*
X125518858Y-94889933D01*
X125518858Y-95128028D01*
X125471239Y-95318504D01*
X125423620Y-95413742D01*
X125376001Y-95461361D01*
X125280762Y-95508980D01*
X125185524Y-95508980D01*
X125090286Y-95461361D01*
X125042667Y-95413742D01*
X124995048Y-95318504D01*
X124947429Y-95128028D01*
X124947429Y-94889933D01*
X124995048Y-94699457D01*
X125042667Y-94604219D01*
X125090286Y-94556600D01*
X125185524Y-94508980D01*
X126137905Y-94508980D02*
X126233143Y-94508980D01*
X126328381Y-94556600D01*
X126376001Y-94604219D01*
X126423620Y-94699457D01*
X126471239Y-94889933D01*
X126471239Y-95128028D01*
X126423620Y-95318504D01*
X126376001Y-95413742D01*
X126328381Y-95461361D01*
X126233143Y-95508980D01*
X126137905Y-95508980D01*
X126042667Y-95461361D01*
X125995048Y-95413742D01*
X125947429Y-95318504D01*
X125899810Y-95128028D01*
X125899810Y-94889933D01*
X125947429Y-94699457D01*
X125995048Y-94604219D01*
X126042667Y-94556600D01*
X126137905Y-94508980D01*
X127423620Y-95508980D02*
X126852191Y-95508980D01*
X127137905Y-95508980D02*
X127137905Y-94508980D01*
X127042667Y-94651838D01*
X126947429Y-94747076D01*
X126852191Y-94794695D01*
D17*
X84985497Y-60521305D02*
X85725725Y-60521305D01*
X85812811Y-60477762D01*
X85856354Y-60434220D01*
X85899897Y-60347134D01*
X85899897Y-60172962D01*
X85856354Y-60085877D01*
X85812811Y-60042334D01*
X85725725Y-59998791D01*
X84985497Y-59998791D01*
X85899897Y-59084391D02*
X85899897Y-59606905D01*
X85899897Y-59345648D02*
X84985497Y-59345648D01*
X85116125Y-59432734D01*
X85203211Y-59519820D01*
X85246754Y-59606905D01*
X84951388Y-56467465D02*
X84951388Y-55944951D01*
X86475388Y-56206208D02*
X84951388Y-56206208D01*
X85677102Y-55640151D02*
X85677102Y-55335351D01*
X86475388Y-55204722D02*
X86475388Y-55640151D01*
X84951388Y-55640151D01*
X84951388Y-55204722D01*
X85677102Y-54812837D02*
X85677102Y-54508037D01*
X86475388Y-54377408D02*
X86475388Y-54812837D01*
X84951388Y-54812837D01*
X84951388Y-54377408D01*
X86475388Y-53985522D02*
X84951388Y-53985522D01*
X86475388Y-53463008D01*
X84951388Y-53463008D01*
X86402817Y-53071122D02*
X86475388Y-52940494D01*
X86475388Y-52722780D01*
X86402817Y-52635694D01*
X86330245Y-52592151D01*
X86185102Y-52548608D01*
X86039960Y-52548608D01*
X85894817Y-52592151D01*
X85822245Y-52635694D01*
X85749674Y-52722780D01*
X85677102Y-52896951D01*
X85604531Y-52984037D01*
X85531960Y-53027580D01*
X85386817Y-53071122D01*
X85241674Y-53071122D01*
X85096531Y-53027580D01*
X85023960Y-52984037D01*
X84951388Y-52896951D01*
X84951388Y-52679237D01*
X85023960Y-52548608D01*
X85749674Y-51982551D02*
X86475388Y-51982551D01*
X84951388Y-52287351D02*
X85749674Y-51982551D01*
X84951388Y-51677751D01*
X86475388Y-51372951D02*
X84951388Y-51372951D01*
X84951388Y-51024608D01*
X85023960Y-50937522D01*
X85096531Y-50893980D01*
X85241674Y-50850437D01*
X85459388Y-50850437D01*
X85604531Y-50893980D01*
X85677102Y-50937522D01*
X85749674Y-51024608D01*
X85749674Y-51372951D01*
X86475388Y-50458551D02*
X84951388Y-50458551D01*
X84951388Y-50110208D01*
X85023960Y-50023122D01*
X85096531Y-49979580D01*
X85241674Y-49936037D01*
X85459388Y-49936037D01*
X85604531Y-49979580D01*
X85677102Y-50023122D01*
X85749674Y-50110208D01*
X85749674Y-50458551D01*
X85096531Y-49587694D02*
X85023960Y-49544151D01*
X84951388Y-49457065D01*
X84951388Y-49239351D01*
X85023960Y-49152265D01*
X85096531Y-49108722D01*
X85241674Y-49065180D01*
X85386817Y-49065180D01*
X85604531Y-49108722D01*
X86475388Y-49631237D01*
X86475388Y-49065180D01*
D18*
X155998333Y-120011976D02*
X155575000Y-119346738D01*
X155272619Y-120011976D02*
X155272619Y-118614976D01*
X155756428Y-118614976D01*
X155877380Y-118681500D01*
X155937857Y-118748023D01*
X155998333Y-118881071D01*
X155998333Y-119080642D01*
X155937857Y-119213690D01*
X155877380Y-119280214D01*
X155756428Y-119346738D01*
X155272619Y-119346738D01*
X157207857Y-120011976D02*
X156482142Y-120011976D01*
X156845000Y-120011976D02*
X156845000Y-118614976D01*
X156724047Y-118814547D01*
X156603095Y-118947595D01*
X156482142Y-119014119D01*
D10*
X32198128Y-98094437D02*
X30674128Y-98094437D01*
X30674128Y-97513865D01*
X30746700Y-97368722D01*
X30819271Y-97296151D01*
X30964414Y-97223580D01*
X31182128Y-97223580D01*
X31327271Y-97296151D01*
X31399842Y-97368722D01*
X31472414Y-97513865D01*
X31472414Y-98094437D01*
X32198128Y-95772151D02*
X32198128Y-96643008D01*
X32198128Y-96207580D02*
X30674128Y-96207580D01*
X30891842Y-96352722D01*
X31036985Y-96497865D01*
X31109557Y-96643008D01*
D18*
X73017863Y-116764404D02*
X71747863Y-116764404D01*
X71747863Y-116522500D01*
X71808340Y-116377357D01*
X71929292Y-116280595D01*
X72050244Y-116232214D01*
X72292149Y-116183833D01*
X72473578Y-116183833D01*
X72715482Y-116232214D01*
X72836435Y-116280595D01*
X72957387Y-116377357D01*
X73017863Y-116522500D01*
X73017863Y-116764404D01*
X73017863Y-115216214D02*
X73017863Y-115796785D01*
X73017863Y-115506500D02*
X71747863Y-115506500D01*
X71929292Y-115603261D01*
X72050244Y-115700023D01*
X72110720Y-115796785D01*
X158580666Y-104502857D02*
X158532285Y-104551238D01*
X158387142Y-104599619D01*
X158290380Y-104599619D01*
X158145238Y-104551238D01*
X158048476Y-104454476D01*
X158000095Y-104357714D01*
X157951714Y-104164190D01*
X157951714Y-104019047D01*
X158000095Y-103825523D01*
X158048476Y-103728761D01*
X158145238Y-103632000D01*
X158290380Y-103583619D01*
X158387142Y-103583619D01*
X158532285Y-103632000D01*
X158580666Y-103680380D01*
X158967714Y-103680380D02*
X159016095Y-103632000D01*
X159112857Y-103583619D01*
X159354761Y-103583619D01*
X159451523Y-103632000D01*
X159499904Y-103680380D01*
X159548285Y-103777142D01*
X159548285Y-103873904D01*
X159499904Y-104019047D01*
X158919333Y-104599619D01*
X159548285Y-104599619D01*
X158580666Y-108312857D02*
X158532285Y-108361238D01*
X158387142Y-108409619D01*
X158290380Y-108409619D01*
X158145238Y-108361238D01*
X158048476Y-108264476D01*
X158000095Y-108167714D01*
X157951714Y-107974190D01*
X157951714Y-107829047D01*
X158000095Y-107635523D01*
X158048476Y-107538761D01*
X158145238Y-107442000D01*
X158290380Y-107393619D01*
X158387142Y-107393619D01*
X158532285Y-107442000D01*
X158580666Y-107490380D01*
X159548285Y-108409619D02*
X158967714Y-108409619D01*
X159258000Y-108409619D02*
X159258000Y-107393619D01*
X159161238Y-107538761D01*
X159064476Y-107635523D01*
X158967714Y-107683904D01*
X158000095Y-112812285D02*
X158000095Y-113489619D01*
X157758190Y-112425238D02*
X157516285Y-113150952D01*
X158145238Y-113150952D01*
X158435523Y-112473619D02*
X159112857Y-112473619D01*
X158677428Y-113489619D01*
X159935333Y-112812285D02*
X159935333Y-113489619D01*
X159499904Y-112812285D02*
X159499904Y-113344476D01*
X159548285Y-113441238D01*
X159645047Y-113489619D01*
X159790190Y-113489619D01*
X159886952Y-113441238D01*
X159935333Y-113392857D01*
%LPC*%
D19*
X143510000Y-119380000D03*
X143510000Y-116840000D03*
D20*
X162560000Y-54626600D03*
X147320000Y-92726600D03*
X162560000Y-57166600D03*
X147320000Y-90186600D03*
X162560000Y-59706600D03*
X147320000Y-87646600D03*
X162560000Y-62246600D03*
X147320000Y-85106600D03*
X162560000Y-64786600D03*
X147320000Y-82566600D03*
X162560000Y-67326600D03*
X147320000Y-80026600D03*
X162560000Y-69866600D03*
X147320000Y-77486600D03*
X162560000Y-72406600D03*
X147320000Y-74946600D03*
X162560000Y-74946600D03*
X147320000Y-72406600D03*
X162560000Y-77486600D03*
X147320000Y-69866600D03*
X162560000Y-80026600D03*
X147320000Y-67326600D03*
X162560000Y-82566600D03*
X147320000Y-64786600D03*
X162560000Y-85106600D03*
X147320000Y-62246600D03*
X162560000Y-87646600D03*
X147320000Y-59706600D03*
X162560000Y-90186600D03*
X147320000Y-57166600D03*
X162560000Y-92726600D03*
G36*
G01*
X145866000Y-55426600D02*
X145866000Y-53826600D01*
G75*
G02*
X146120000Y-53572600I254000J0D01*
G01*
X148520000Y-53572600D01*
G75*
G02*
X148774000Y-53826600I0J-254000D01*
G01*
X148774000Y-55426600D01*
G75*
G02*
X148520000Y-55680600I-254000J0D01*
G01*
X146120000Y-55680600D01*
G75*
G02*
X145866000Y-55426600I0J254000D01*
G01*
G37*
X131496001Y-54626600D03*
X116256001Y-92726600D03*
X131496001Y-57166600D03*
X116256001Y-90186600D03*
X131496001Y-59706600D03*
X116256001Y-87646600D03*
X131496001Y-62246600D03*
X116256001Y-85106600D03*
X131496001Y-64786600D03*
X116256001Y-82566600D03*
X131496001Y-67326600D03*
X116256001Y-80026600D03*
X131496001Y-69866600D03*
X116256001Y-77486600D03*
X131496001Y-72406600D03*
X116256001Y-74946600D03*
X131496001Y-74946600D03*
X116256001Y-72406600D03*
X131496001Y-77486600D03*
X116256001Y-69866600D03*
X131496001Y-80026600D03*
X116256001Y-67326600D03*
X131496001Y-82566600D03*
X116256001Y-64786600D03*
X131496001Y-85106600D03*
X116256001Y-62246600D03*
X131496001Y-87646600D03*
X116256001Y-59706600D03*
X131496001Y-90186600D03*
X116256001Y-57166600D03*
X131496001Y-92726600D03*
G36*
G01*
X114802001Y-55426600D02*
X114802001Y-53826600D01*
G75*
G02*
X115056001Y-53572600I254000J0D01*
G01*
X117456001Y-53572600D01*
G75*
G02*
X117710001Y-53826600I0J-254000D01*
G01*
X117710001Y-55426600D01*
G75*
G02*
X117456001Y-55680600I-254000J0D01*
G01*
X115056001Y-55680600D01*
G75*
G02*
X114802001Y-55426600I0J254000D01*
G01*
G37*
G36*
G01*
X82425540Y-48399700D02*
X84305140Y-48399700D01*
G75*
G02*
X84559140Y-48653700I0J-254000D01*
G01*
X84559140Y-50533300D01*
G75*
G02*
X84305140Y-50787300I-254000J0D01*
G01*
X82425540Y-50787300D01*
G75*
G02*
X82171540Y-50533300I0J254000D01*
G01*
X82171540Y-48653700D01*
G75*
G02*
X82425540Y-48399700I254000J0D01*
G01*
G37*
D21*
X83365340Y-52133500D03*
X83365340Y-54673500D03*
X83365340Y-57213500D03*
X83365340Y-59753500D03*
X83365340Y-62293500D03*
X83365340Y-64833500D03*
X83365340Y-67373500D03*
X83365340Y-69913500D03*
X83365340Y-72453500D03*
X83365340Y-74993500D03*
X83365340Y-77533500D03*
X83365340Y-80073500D03*
X83365340Y-82613500D03*
X83365340Y-85153500D03*
X83365340Y-87693500D03*
X83365340Y-90233500D03*
X83365340Y-92773500D03*
X83365340Y-95313500D03*
X83365340Y-97853500D03*
X98605340Y-97853500D03*
X98605340Y-95313500D03*
X98605340Y-92773500D03*
X98605340Y-90233500D03*
X98605340Y-87693500D03*
X98605340Y-85153500D03*
X98605340Y-82613500D03*
X98605340Y-80073500D03*
X98605340Y-77533500D03*
X98605340Y-74993500D03*
X98605340Y-72453500D03*
X98605340Y-69913500D03*
X98605340Y-67373500D03*
X98605340Y-64833500D03*
X98605340Y-62293500D03*
X98605340Y-59753500D03*
X98605340Y-57213500D03*
X98605340Y-54673500D03*
X98605340Y-52133500D03*
X98605340Y-49593500D03*
D22*
X161290000Y-119380000D03*
X151130000Y-119380000D03*
G36*
G01*
X46009560Y-60773310D02*
X33009840Y-60773310D01*
G75*
G02*
X32755840Y-60519310I0J254000D01*
G01*
X32755840Y-59419490D01*
G75*
G02*
X33009840Y-59165490I254000J0D01*
G01*
X46009560Y-59165490D01*
G75*
G02*
X46263560Y-59419490I0J-254000D01*
G01*
X46263560Y-60519310D01*
G75*
G02*
X46009560Y-60773310I-254000J0D01*
G01*
G37*
G36*
G01*
X46009560Y-63773050D02*
X33009840Y-63773050D01*
G75*
G02*
X32755840Y-63519050I0J254000D01*
G01*
X32755840Y-62419230D01*
G75*
G02*
X33009840Y-62165230I254000J0D01*
G01*
X46009560Y-62165230D01*
G75*
G02*
X46263560Y-62419230I0J-254000D01*
G01*
X46263560Y-63519050D01*
G75*
G02*
X46009560Y-63773050I-254000J0D01*
G01*
G37*
G36*
G01*
X46009560Y-66775330D02*
X33009840Y-66775330D01*
G75*
G02*
X32755840Y-66521330I0J254000D01*
G01*
X32755840Y-65421510D01*
G75*
G02*
X33009840Y-65167510I254000J0D01*
G01*
X46009560Y-65167510D01*
G75*
G02*
X46263560Y-65421510I0J-254000D01*
G01*
X46263560Y-66521330D01*
G75*
G02*
X46009560Y-66775330I-254000J0D01*
G01*
G37*
G36*
G01*
X46009560Y-69775070D02*
X33009840Y-69775070D01*
G75*
G02*
X32755840Y-69521070I0J254000D01*
G01*
X32755840Y-68421250D01*
G75*
G02*
X33009840Y-68167250I254000J0D01*
G01*
X46009560Y-68167250D01*
G75*
G02*
X46263560Y-68421250I0J-254000D01*
G01*
X46263560Y-69521070D01*
G75*
G02*
X46009560Y-69775070I-254000J0D01*
G01*
G37*
G36*
G01*
X46009560Y-72774810D02*
X33009840Y-72774810D01*
G75*
G02*
X32755840Y-72520810I0J254000D01*
G01*
X32755840Y-71420990D01*
G75*
G02*
X33009840Y-71166990I254000J0D01*
G01*
X46009560Y-71166990D01*
G75*
G02*
X46263560Y-71420990I0J-254000D01*
G01*
X46263560Y-72520810D01*
G75*
G02*
X46009560Y-72774810I-254000J0D01*
G01*
G37*
G36*
G01*
X46009560Y-75774550D02*
X33009840Y-75774550D01*
G75*
G02*
X32755840Y-75520550I0J254000D01*
G01*
X32755840Y-74420730D01*
G75*
G02*
X33009840Y-74166730I254000J0D01*
G01*
X46009560Y-74166730D01*
G75*
G02*
X46263560Y-74420730I0J-254000D01*
G01*
X46263560Y-75520550D01*
G75*
G02*
X46009560Y-75774550I-254000J0D01*
G01*
G37*
G36*
G01*
X46009560Y-78774290D02*
X33009840Y-78774290D01*
G75*
G02*
X32755840Y-78520290I0J254000D01*
G01*
X32755840Y-77420470D01*
G75*
G02*
X33009840Y-77166470I254000J0D01*
G01*
X46009560Y-77166470D01*
G75*
G02*
X46263560Y-77420470I0J-254000D01*
G01*
X46263560Y-78520290D01*
G75*
G02*
X46009560Y-78774290I-254000J0D01*
G01*
G37*
G36*
G01*
X46009560Y-81774030D02*
X33009840Y-81774030D01*
G75*
G02*
X32755840Y-81520030I0J254000D01*
G01*
X32755840Y-80420210D01*
G75*
G02*
X33009840Y-80166210I254000J0D01*
G01*
X46009560Y-80166210D01*
G75*
G02*
X46263560Y-80420210I0J-254000D01*
G01*
X46263560Y-81520030D01*
G75*
G02*
X46009560Y-81774030I-254000J0D01*
G01*
G37*
G36*
G01*
X46009560Y-84773770D02*
X33009840Y-84773770D01*
G75*
G02*
X32755840Y-84519770I0J254000D01*
G01*
X32755840Y-83419950D01*
G75*
G02*
X33009840Y-83165950I254000J0D01*
G01*
X46009560Y-83165950D01*
G75*
G02*
X46263560Y-83419950I0J-254000D01*
G01*
X46263560Y-84519770D01*
G75*
G02*
X46009560Y-84773770I-254000J0D01*
G01*
G37*
G36*
G01*
X46009560Y-87773510D02*
X33009840Y-87773510D01*
G75*
G02*
X32755840Y-87519510I0J254000D01*
G01*
X32755840Y-86419690D01*
G75*
G02*
X33009840Y-86165690I254000J0D01*
G01*
X46009560Y-86165690D01*
G75*
G02*
X46263560Y-86419690I0J-254000D01*
G01*
X46263560Y-87519510D01*
G75*
G02*
X46009560Y-87773510I-254000J0D01*
G01*
G37*
G36*
G01*
X46009560Y-90773250D02*
X33009840Y-90773250D01*
G75*
G02*
X32755840Y-90519250I0J254000D01*
G01*
X32755840Y-89419430D01*
G75*
G02*
X33009840Y-89165430I254000J0D01*
G01*
X46009560Y-89165430D01*
G75*
G02*
X46263560Y-89419430I0J-254000D01*
G01*
X46263560Y-90519250D01*
G75*
G02*
X46009560Y-90773250I-254000J0D01*
G01*
G37*
G36*
G01*
X46009560Y-93772990D02*
X33009840Y-93772990D01*
G75*
G02*
X32755840Y-93518990I0J254000D01*
G01*
X32755840Y-92419170D01*
G75*
G02*
X33009840Y-92165170I254000J0D01*
G01*
X46009560Y-92165170D01*
G75*
G02*
X46263560Y-92419170I0J-254000D01*
G01*
X46263560Y-93518990D01*
G75*
G02*
X46009560Y-93772990I-254000J0D01*
G01*
G37*
G36*
G01*
X46009560Y-96775270D02*
X33009840Y-96775270D01*
G75*
G02*
X32755840Y-96521270I0J254000D01*
G01*
X32755840Y-95421450D01*
G75*
G02*
X33009840Y-95167450I254000J0D01*
G01*
X46009560Y-95167450D01*
G75*
G02*
X46263560Y-95421450I0J-254000D01*
G01*
X46263560Y-96521270D01*
G75*
G02*
X46009560Y-96775270I-254000J0D01*
G01*
G37*
G36*
G01*
X46009560Y-99775010D02*
X33009840Y-99775010D01*
G75*
G02*
X32755840Y-99521010I0J254000D01*
G01*
X32755840Y-98421190D01*
G75*
G02*
X33009840Y-98167190I254000J0D01*
G01*
X46009560Y-98167190D01*
G75*
G02*
X46263560Y-98421190I0J-254000D01*
G01*
X46263560Y-99521010D01*
G75*
G02*
X46009560Y-99775010I-254000J0D01*
G01*
G37*
G36*
G01*
X46009560Y-102774750D02*
X33009840Y-102774750D01*
G75*
G02*
X32755840Y-102520750I0J254000D01*
G01*
X32755840Y-101420930D01*
G75*
G02*
X33009840Y-101166930I254000J0D01*
G01*
X46009560Y-101166930D01*
G75*
G02*
X46263560Y-101420930I0J-254000D01*
G01*
X46263560Y-102520750D01*
G75*
G02*
X46009560Y-102774750I-254000J0D01*
G01*
G37*
G36*
G01*
X46009560Y-105774490D02*
X33009840Y-105774490D01*
G75*
G02*
X32755840Y-105520490I0J254000D01*
G01*
X32755840Y-104420670D01*
G75*
G02*
X33009840Y-104166670I254000J0D01*
G01*
X46009560Y-104166670D01*
G75*
G02*
X46263560Y-104420670I0J-254000D01*
G01*
X46263560Y-105520490D01*
G75*
G02*
X46009560Y-105774490I-254000J0D01*
G01*
G37*
G36*
G01*
X46009560Y-108774230D02*
X33009840Y-108774230D01*
G75*
G02*
X32755840Y-108520230I0J254000D01*
G01*
X32755840Y-107420410D01*
G75*
G02*
X33009840Y-107166410I254000J0D01*
G01*
X46009560Y-107166410D01*
G75*
G02*
X46263560Y-107420410I0J-254000D01*
G01*
X46263560Y-108520230D01*
G75*
G02*
X46009560Y-108774230I-254000J0D01*
G01*
G37*
X72443340Y-110934500D03*
G36*
G01*
X71554340Y-119951500D02*
X73332340Y-119951500D01*
G75*
G02*
X73586340Y-120205500I0J-254000D01*
G01*
X73586340Y-121983500D01*
G75*
G02*
X73332340Y-122237500I-254000J0D01*
G01*
X71554340Y-122237500D01*
G75*
G02*
X71300340Y-121983500I0J254000D01*
G01*
X71300340Y-120205500D01*
G75*
G02*
X71554340Y-119951500I254000J0D01*
G01*
G37*
D23*
X161290000Y-104140000D03*
X156210000Y-104140000D03*
G36*
G01*
X162433000Y-109601000D02*
X162433000Y-111379000D01*
G75*
G02*
X162179000Y-111633000I-254000J0D01*
G01*
X160401000Y-111633000D01*
G75*
G02*
X160147000Y-111379000I0J254000D01*
G01*
X160147000Y-109601000D01*
G75*
G02*
X160401000Y-109347000I254000J0D01*
G01*
X162179000Y-109347000D01*
G75*
G02*
X162433000Y-109601000I0J-254000D01*
G01*
G37*
D22*
X156210000Y-110490000D03*
M02*
