%FSLAX45Y45*%
G04 Gerber Fmt 4.5, Leading zero omitted, Abs format (unit mm)*
G04 Created by KiCad (PCBNEW 5.1.10) date 2021-08-31 10:29:55*
%MOMM*%
%LPD*%
G01*
G04 APERTURE LIST*
%TA.AperFunction,Profile*%
%ADD10C,0.381000*%
%TD*%
%ADD11C,0.200000*%
%ADD12C,0.300000*%
G04 APERTURE END LIST*
D10*
X17018000Y-13481050D02*
X17018000Y-13031216D01*
X6951726Y-13481050D02*
X17018000Y-13481050D01*
X6951726Y-13081000D02*
X6951726Y-13481050D01*
X2951734Y-5797550D02*
X2951734Y-10997438D01*
X17018000Y-3302000D02*
X17018000Y-3702050D01*
X6951726Y-3302000D02*
X17018000Y-3302000D01*
X6951726Y-3702050D02*
X6951726Y-3302000D01*
X17018000Y-13031216D02*
X17018000Y-3702050D01*
X6951726Y-5797550D02*
X6951726Y-3702050D01*
X6951726Y-10997438D02*
X2951734Y-10997438D01*
X2951734Y-5797550D02*
X6951726Y-5797550D01*
X6951726Y-10997438D02*
X6951726Y-13081000D01*
D11*
D12*
X3219112Y-13965814D02*
X3219112Y-13665814D01*
X3290541Y-13665814D01*
X3333398Y-13680100D01*
X3361970Y-13708671D01*
X3376255Y-13737243D01*
X3390541Y-13794386D01*
X3390541Y-13837243D01*
X3376255Y-13894386D01*
X3361970Y-13922957D01*
X3333398Y-13951529D01*
X3290541Y-13965814D01*
X3219112Y-13965814D01*
X3519112Y-13965814D02*
X3519112Y-13765814D01*
X3519112Y-13822957D02*
X3533398Y-13794386D01*
X3547684Y-13780100D01*
X3576255Y-13765814D01*
X3604827Y-13765814D01*
X3704827Y-13965814D02*
X3704827Y-13765814D01*
X3704827Y-13665814D02*
X3690541Y-13680100D01*
X3704827Y-13694386D01*
X3719112Y-13680100D01*
X3704827Y-13665814D01*
X3704827Y-13694386D01*
X3890541Y-13965814D02*
X3861970Y-13951529D01*
X3847684Y-13922957D01*
X3847684Y-13665814D01*
X4047684Y-13965814D02*
X4019112Y-13951529D01*
X4004827Y-13922957D01*
X4004827Y-13665814D01*
X4390541Y-13965814D02*
X4390541Y-13665814D01*
X4490541Y-13880100D01*
X4590541Y-13665814D01*
X4590541Y-13965814D01*
X4861970Y-13965814D02*
X4861970Y-13808671D01*
X4847684Y-13780100D01*
X4819112Y-13765814D01*
X4761970Y-13765814D01*
X4733398Y-13780100D01*
X4861970Y-13951529D02*
X4833398Y-13965814D01*
X4761970Y-13965814D01*
X4733398Y-13951529D01*
X4719112Y-13922957D01*
X4719112Y-13894386D01*
X4733398Y-13865814D01*
X4761970Y-13851529D01*
X4833398Y-13851529D01*
X4861970Y-13837243D01*
X5004827Y-13765814D02*
X5004827Y-14065814D01*
X5004827Y-13780100D02*
X5033398Y-13765814D01*
X5090541Y-13765814D01*
X5119112Y-13780100D01*
X5133398Y-13794386D01*
X5147684Y-13822957D01*
X5147684Y-13908671D01*
X5133398Y-13937243D01*
X5119112Y-13951529D01*
X5090541Y-13965814D01*
X5033398Y-13965814D01*
X5004827Y-13951529D01*
X5276255Y-13937243D02*
X5290541Y-13951529D01*
X5276255Y-13965814D01*
X5261970Y-13951529D01*
X5276255Y-13937243D01*
X5276255Y-13965814D01*
X5276255Y-13780100D02*
X5290541Y-13794386D01*
X5276255Y-13808671D01*
X5261970Y-13794386D01*
X5276255Y-13780100D01*
X5276255Y-13808671D01*
M02*
