%FSLAX45Y45*%
G04 Gerber Fmt 4.5, Leading zero omitted, Abs format (unit mm)*
G04 Created by KiCad (PCBNEW 5.1.10) date 2021-09-01 18:01:58*
%MOMM*%
%LPD*%
G01*
G04 APERTURE LIST*
%TA.AperFunction,Profile*%
%ADD10C,0.381000*%
%TD*%
%ADD11C,0.200000*%
%ADD12C,0.300000*%
G04 APERTURE END LIST*
D10*
X17018000Y-13481050D02*
X17018000Y-13031216D01*
X6951726Y-13481050D02*
X17018000Y-13481050D01*
X6951726Y-13081000D02*
X6951726Y-13481050D01*
X2951734Y-5797550D02*
X2951734Y-10997438D01*
X17018000Y-3302000D02*
X17018000Y-3702050D01*
X6951726Y-3302000D02*
X17018000Y-3302000D01*
X6951726Y-3702050D02*
X6951726Y-3302000D01*
X17018000Y-13031216D02*
X17018000Y-3702050D01*
X6951726Y-5797550D02*
X6951726Y-3702050D01*
X6951726Y-10997438D02*
X2951734Y-10997438D01*
X2951734Y-5797550D02*
X6951726Y-5797550D01*
X6951726Y-10997438D02*
X6951726Y-13081000D01*
D11*
X6036310Y-5965190D02*
X6099810Y-6028690D01*
X6099810Y-5965190D02*
X6036310Y-6028690D01*
X7334250Y-10382250D02*
X7397750Y-10445750D01*
X7397750Y-10382250D02*
X7334250Y-10445750D01*
X8135271Y-4667250D02*
X8198771Y-4730750D01*
X8198771Y-4667250D02*
X8135271Y-4730750D01*
X8350250Y-4286250D02*
X8413750Y-4349750D01*
X8413750Y-4286250D02*
X8350250Y-4349750D01*
X8540750Y-10826750D02*
X8604250Y-10890250D01*
X8604250Y-10826750D02*
X8540750Y-10890250D01*
X8858250Y-10509250D02*
X8921750Y-10572750D01*
X8921750Y-10509250D02*
X8858250Y-10572750D01*
X8985250Y-10636250D02*
X9048750Y-10699750D01*
X9048750Y-10636250D02*
X8985250Y-10699750D01*
X9239250Y-10890250D02*
X9302750Y-10953750D01*
X9302750Y-10890250D02*
X9239250Y-10953750D01*
X9493250Y-10128250D02*
X9556750Y-10191750D01*
X9556750Y-10128250D02*
X9493250Y-10191750D01*
X9493250Y-10763250D02*
X9556750Y-10826750D01*
X9556750Y-10763250D02*
X9493250Y-10826750D01*
X10261600Y-5054600D02*
X10325100Y-5118100D01*
X10325100Y-5054600D02*
X10261600Y-5118100D01*
X10509250Y-5302250D02*
X10572750Y-5365750D01*
X10572750Y-5302250D02*
X10509250Y-5365750D01*
X10509250Y-5683250D02*
X10572750Y-5746750D01*
X10572750Y-5683250D02*
X10509250Y-5746750D01*
X10636250Y-4921250D02*
X10699750Y-4984750D01*
X10699750Y-4921250D02*
X10636250Y-4984750D01*
X10881706Y-9247794D02*
X10945206Y-9311294D01*
X10945206Y-9247794D02*
X10881706Y-9311294D01*
X10883900Y-9867900D02*
X10947400Y-9931400D01*
X10947400Y-9867900D02*
X10883900Y-9931400D01*
X10890250Y-5302250D02*
X10953750Y-5365750D01*
X10953750Y-5302250D02*
X10890250Y-5365750D01*
X10890250Y-6572250D02*
X10953750Y-6635750D01*
X10953750Y-6572250D02*
X10890250Y-6635750D01*
X10890250Y-9493250D02*
X10953750Y-9556750D01*
X10953750Y-9493250D02*
X10890250Y-9556750D01*
X11189588Y-9284588D02*
X11253088Y-9348088D01*
X11253088Y-9284588D02*
X11189588Y-9348088D01*
X11398250Y-4921250D02*
X11461750Y-4984750D01*
X11461750Y-4921250D02*
X11398250Y-4984750D01*
X11652250Y-4667250D02*
X11715750Y-4730750D01*
X11715750Y-4667250D02*
X11652250Y-4730750D01*
X11906250Y-4540250D02*
X11969750Y-4603750D01*
X11969750Y-4540250D02*
X11906250Y-4603750D01*
X11906250Y-9239250D02*
X11969750Y-9302750D01*
X11969750Y-9239250D02*
X11906250Y-9302750D01*
X11906250Y-9874250D02*
X11969750Y-9937750D01*
X11969750Y-9874250D02*
X11906250Y-9937750D01*
X12033250Y-4413250D02*
X12096750Y-4476750D01*
X12096750Y-4413250D02*
X12033250Y-4476750D01*
X12165711Y-9244711D02*
X12229211Y-9308211D01*
X12229211Y-9244711D02*
X12165711Y-9308211D01*
X12175650Y-4301650D02*
X12239150Y-4365150D01*
X12239150Y-4301650D02*
X12175650Y-4365150D01*
X12287250Y-4159250D02*
X12350750Y-4222750D01*
X12350750Y-4159250D02*
X12287250Y-4222750D01*
X12541250Y-10382250D02*
X12604750Y-10445750D01*
X12604750Y-10382250D02*
X12541250Y-10445750D01*
X12795250Y-7588250D02*
X12858750Y-7651750D01*
X12858750Y-7588250D02*
X12795250Y-7651750D01*
X12922250Y-4921250D02*
X12985750Y-4984750D01*
X12985750Y-4921250D02*
X12922250Y-4984750D01*
X13361650Y-5116850D02*
X13425150Y-5180350D01*
X13425150Y-5116850D02*
X13361650Y-5180350D01*
X13557250Y-7588250D02*
X13620750Y-7651750D01*
X13620750Y-7588250D02*
X13557250Y-7651750D01*
X13557250Y-10128250D02*
X13620750Y-10191750D01*
X13620750Y-10128250D02*
X13557250Y-10191750D01*
X13684250Y-10255250D02*
X13747750Y-10318750D01*
X13747750Y-10255250D02*
X13684250Y-10318750D01*
X13811250Y-10382250D02*
X13874750Y-10445750D01*
X13874750Y-10382250D02*
X13811250Y-10445750D01*
X13938250Y-10509250D02*
X14001750Y-10572750D01*
X14001750Y-10509250D02*
X13938250Y-10572750D01*
X14065250Y-10636250D02*
X14128750Y-10699750D01*
X14128750Y-10636250D02*
X14065250Y-10699750D01*
X14192250Y-10763250D02*
X14255750Y-10826750D01*
X14255750Y-10763250D02*
X14192250Y-10826750D01*
X14319250Y-10890250D02*
X14382750Y-10953750D01*
X14382750Y-10890250D02*
X14319250Y-10953750D01*
X14446250Y-11017250D02*
X14509750Y-11080750D01*
X14509750Y-11017250D02*
X14446250Y-11080750D01*
X14573250Y-11144250D02*
X14636750Y-11207750D01*
X14636750Y-11144250D02*
X14573250Y-11207750D01*
X14700250Y-4921250D02*
X14763750Y-4984750D01*
X14763750Y-4921250D02*
X14700250Y-4984750D01*
X14700250Y-11271250D02*
X14763750Y-11334750D01*
X14763750Y-11271250D02*
X14700250Y-11334750D01*
X11665600Y-5462660D02*
G75*
G03*
X11665600Y-5462660I-40000J0D01*
G01*
X11665600Y-5716660D02*
G75*
G03*
X11665600Y-5716660I-40000J0D01*
G01*
X11665600Y-5970660D02*
G75*
G03*
X11665600Y-5970660I-40000J0D01*
G01*
X11665600Y-6224660D02*
G75*
G03*
X11665600Y-6224660I-40000J0D01*
G01*
X11665600Y-6478660D02*
G75*
G03*
X11665600Y-6478660I-40000J0D01*
G01*
X11665600Y-6732660D02*
G75*
G03*
X11665600Y-6732660I-40000J0D01*
G01*
X11665600Y-6986660D02*
G75*
G03*
X11665600Y-6986660I-40000J0D01*
G01*
X11665600Y-7240660D02*
G75*
G03*
X11665600Y-7240660I-40000J0D01*
G01*
X11665600Y-7494660D02*
G75*
G03*
X11665600Y-7494660I-40000J0D01*
G01*
X11665600Y-7748660D02*
G75*
G03*
X11665600Y-7748660I-40000J0D01*
G01*
X11665600Y-8002660D02*
G75*
G03*
X11665600Y-8002660I-40000J0D01*
G01*
X11665600Y-8256660D02*
G75*
G03*
X11665600Y-8256660I-40000J0D01*
G01*
X11665600Y-8510660D02*
G75*
G03*
X11665600Y-8510660I-40000J0D01*
G01*
X11665600Y-8764660D02*
G75*
G03*
X11665600Y-8764660I-40000J0D01*
G01*
X11665600Y-9018660D02*
G75*
G03*
X11665600Y-9018660I-40000J0D01*
G01*
X11665600Y-9272660D02*
G75*
G03*
X11665600Y-9272660I-40000J0D01*
G01*
X13189600Y-5462660D02*
G75*
G03*
X13189600Y-5462660I-40000J0D01*
G01*
X13189600Y-5716660D02*
G75*
G03*
X13189600Y-5716660I-40000J0D01*
G01*
X13189600Y-5970660D02*
G75*
G03*
X13189600Y-5970660I-40000J0D01*
G01*
X13189600Y-6224660D02*
G75*
G03*
X13189600Y-6224660I-40000J0D01*
G01*
X13189600Y-6478660D02*
G75*
G03*
X13189600Y-6478660I-40000J0D01*
G01*
X13189600Y-6732660D02*
G75*
G03*
X13189600Y-6732660I-40000J0D01*
G01*
X13189600Y-6986660D02*
G75*
G03*
X13189600Y-6986660I-40000J0D01*
G01*
X13189600Y-7240660D02*
G75*
G03*
X13189600Y-7240660I-40000J0D01*
G01*
X13189600Y-7494660D02*
G75*
G03*
X13189600Y-7494660I-40000J0D01*
G01*
X13189600Y-7748660D02*
G75*
G03*
X13189600Y-7748660I-40000J0D01*
G01*
X13189600Y-8002660D02*
G75*
G03*
X13189600Y-8002660I-40000J0D01*
G01*
X13189600Y-8256660D02*
G75*
G03*
X13189600Y-8256660I-40000J0D01*
G01*
X13189600Y-8510660D02*
G75*
G03*
X13189600Y-8510660I-40000J0D01*
G01*
X13189600Y-8764660D02*
G75*
G03*
X13189600Y-8764660I-40000J0D01*
G01*
X13189600Y-9018660D02*
G75*
G03*
X13189600Y-9018660I-40000J0D01*
G01*
X13189600Y-9272660D02*
G75*
G03*
X13189600Y-9272660I-40000J0D01*
G01*
X14772000Y-5462660D02*
G75*
G03*
X14772000Y-5462660I-40000J0D01*
G01*
X14772000Y-5716660D02*
G75*
G03*
X14772000Y-5716660I-40000J0D01*
G01*
X14772000Y-5970660D02*
G75*
G03*
X14772000Y-5970660I-40000J0D01*
G01*
X14772000Y-6224660D02*
G75*
G03*
X14772000Y-6224660I-40000J0D01*
G01*
X14772000Y-6478660D02*
G75*
G03*
X14772000Y-6478660I-40000J0D01*
G01*
X14772000Y-6732660D02*
G75*
G03*
X14772000Y-6732660I-40000J0D01*
G01*
X14772000Y-6986660D02*
G75*
G03*
X14772000Y-6986660I-40000J0D01*
G01*
X14772000Y-7240660D02*
G75*
G03*
X14772000Y-7240660I-40000J0D01*
G01*
X14772000Y-7494660D02*
G75*
G03*
X14772000Y-7494660I-40000J0D01*
G01*
X14772000Y-7748660D02*
G75*
G03*
X14772000Y-7748660I-40000J0D01*
G01*
X14772000Y-8002660D02*
G75*
G03*
X14772000Y-8002660I-40000J0D01*
G01*
X14772000Y-8256660D02*
G75*
G03*
X14772000Y-8256660I-40000J0D01*
G01*
X14772000Y-8510660D02*
G75*
G03*
X14772000Y-8510660I-40000J0D01*
G01*
X14772000Y-8764660D02*
G75*
G03*
X14772000Y-8764660I-40000J0D01*
G01*
X14772000Y-9018660D02*
G75*
G03*
X14772000Y-9018660I-40000J0D01*
G01*
X14772000Y-9272660D02*
G75*
G03*
X14772000Y-9272660I-40000J0D01*
G01*
X16296000Y-5462660D02*
G75*
G03*
X16296000Y-5462660I-40000J0D01*
G01*
X16296000Y-5716660D02*
G75*
G03*
X16296000Y-5716660I-40000J0D01*
G01*
X16296000Y-5970660D02*
G75*
G03*
X16296000Y-5970660I-40000J0D01*
G01*
X16296000Y-6224660D02*
G75*
G03*
X16296000Y-6224660I-40000J0D01*
G01*
X16296000Y-6478660D02*
G75*
G03*
X16296000Y-6478660I-40000J0D01*
G01*
X16296000Y-6732660D02*
G75*
G03*
X16296000Y-6732660I-40000J0D01*
G01*
X16296000Y-6986660D02*
G75*
G03*
X16296000Y-6986660I-40000J0D01*
G01*
X16296000Y-7240660D02*
G75*
G03*
X16296000Y-7240660I-40000J0D01*
G01*
X16296000Y-7494660D02*
G75*
G03*
X16296000Y-7494660I-40000J0D01*
G01*
X16296000Y-7748660D02*
G75*
G03*
X16296000Y-7748660I-40000J0D01*
G01*
X16296000Y-8002660D02*
G75*
G03*
X16296000Y-8002660I-40000J0D01*
G01*
X16296000Y-8256660D02*
G75*
G03*
X16296000Y-8256660I-40000J0D01*
G01*
X16296000Y-8510660D02*
G75*
G03*
X16296000Y-8510660I-40000J0D01*
G01*
X16296000Y-8764660D02*
G75*
G03*
X16296000Y-8764660I-40000J0D01*
G01*
X16296000Y-9018660D02*
G75*
G03*
X16296000Y-9018660I-40000J0D01*
G01*
X16296000Y-9272660D02*
G75*
G03*
X16296000Y-9272660I-40000J0D01*
G01*
X14351000Y-11643360D02*
X14351000Y-11724640D01*
X14310360Y-11684000D02*
X14391640Y-11684000D01*
X14351000Y-11897360D02*
X14351000Y-11978640D01*
X14310360Y-11938000D02*
X14391640Y-11938000D01*
X15113000Y-11897360D02*
X15113000Y-11978640D01*
X15072360Y-11938000D02*
X15153640Y-11938000D01*
X15621000Y-10373360D02*
X15621000Y-10454640D01*
X15580360Y-10414000D02*
X15661640Y-10414000D01*
X16129000Y-10373360D02*
X16129000Y-10454640D01*
X16088360Y-10414000D02*
X16169640Y-10414000D01*
X16129000Y-11897360D02*
X16129000Y-11978640D01*
X16088360Y-11938000D02*
X16169640Y-11938000D01*
X7280255Y-11129371D02*
X7280255Y-11057529D01*
X7208413Y-11057529D01*
X7208413Y-11129371D01*
X7280255Y-11129371D01*
X7280255Y-12145371D02*
X7280255Y-12073529D01*
X7208413Y-12073529D01*
X7208413Y-12145371D01*
X7280255Y-12145371D01*
X8372455Y-4995271D02*
X8372455Y-4923429D01*
X8300613Y-4923429D01*
X8300613Y-4995271D01*
X8372455Y-4995271D01*
X8372455Y-5249271D02*
X8372455Y-5177429D01*
X8300613Y-5177429D01*
X8300613Y-5249271D01*
X8372455Y-5249271D01*
X8372455Y-5503271D02*
X8372455Y-5431429D01*
X8300613Y-5431429D01*
X8300613Y-5503271D01*
X8372455Y-5503271D01*
X8372455Y-5757271D02*
X8372455Y-5685429D01*
X8300613Y-5685429D01*
X8300613Y-5757271D01*
X8372455Y-5757271D01*
X8372455Y-6011271D02*
X8372455Y-5939429D01*
X8300613Y-5939429D01*
X8300613Y-6011271D01*
X8372455Y-6011271D01*
X8372455Y-6265271D02*
X8372455Y-6193429D01*
X8300613Y-6193429D01*
X8300613Y-6265271D01*
X8372455Y-6265271D01*
X8372455Y-6519271D02*
X8372455Y-6447429D01*
X8300613Y-6447429D01*
X8300613Y-6519271D01*
X8372455Y-6519271D01*
X8372455Y-6773271D02*
X8372455Y-6701429D01*
X8300613Y-6701429D01*
X8300613Y-6773271D01*
X8372455Y-6773271D01*
X8372455Y-7027271D02*
X8372455Y-6955429D01*
X8300613Y-6955429D01*
X8300613Y-7027271D01*
X8372455Y-7027271D01*
X8372455Y-7281271D02*
X8372455Y-7209429D01*
X8300613Y-7209429D01*
X8300613Y-7281271D01*
X8372455Y-7281271D01*
X8372455Y-7535271D02*
X8372455Y-7463429D01*
X8300613Y-7463429D01*
X8300613Y-7535271D01*
X8372455Y-7535271D01*
X8372455Y-7789271D02*
X8372455Y-7717429D01*
X8300613Y-7717429D01*
X8300613Y-7789271D01*
X8372455Y-7789271D01*
X8372455Y-8043271D02*
X8372455Y-7971429D01*
X8300613Y-7971429D01*
X8300613Y-8043271D01*
X8372455Y-8043271D01*
X8372455Y-8297271D02*
X8372455Y-8225429D01*
X8300613Y-8225429D01*
X8300613Y-8297271D01*
X8372455Y-8297271D01*
X8372455Y-8551271D02*
X8372455Y-8479429D01*
X8300613Y-8479429D01*
X8300613Y-8551271D01*
X8372455Y-8551271D01*
X8372455Y-8805271D02*
X8372455Y-8733429D01*
X8300613Y-8733429D01*
X8300613Y-8805271D01*
X8372455Y-8805271D01*
X8372455Y-9059271D02*
X8372455Y-8987429D01*
X8300613Y-8987429D01*
X8300613Y-9059271D01*
X8372455Y-9059271D01*
X8372455Y-9313271D02*
X8372455Y-9241429D01*
X8300613Y-9241429D01*
X8300613Y-9313271D01*
X8372455Y-9313271D01*
X8372455Y-9567271D02*
X8372455Y-9495429D01*
X8300613Y-9495429D01*
X8300613Y-9567271D01*
X8372455Y-9567271D01*
X8372455Y-9821271D02*
X8372455Y-9749429D01*
X8300613Y-9749429D01*
X8300613Y-9821271D01*
X8372455Y-9821271D01*
X9896455Y-4995271D02*
X9896455Y-4923429D01*
X9824613Y-4923429D01*
X9824613Y-4995271D01*
X9896455Y-4995271D01*
X9896455Y-5249271D02*
X9896455Y-5177429D01*
X9824613Y-5177429D01*
X9824613Y-5249271D01*
X9896455Y-5249271D01*
X9896455Y-5503271D02*
X9896455Y-5431429D01*
X9824613Y-5431429D01*
X9824613Y-5503271D01*
X9896455Y-5503271D01*
X9896455Y-5757271D02*
X9896455Y-5685429D01*
X9824613Y-5685429D01*
X9824613Y-5757271D01*
X9896455Y-5757271D01*
X9896455Y-6011271D02*
X9896455Y-5939429D01*
X9824613Y-5939429D01*
X9824613Y-6011271D01*
X9896455Y-6011271D01*
X9896455Y-6265271D02*
X9896455Y-6193429D01*
X9824613Y-6193429D01*
X9824613Y-6265271D01*
X9896455Y-6265271D01*
X9896455Y-6519271D02*
X9896455Y-6447429D01*
X9824613Y-6447429D01*
X9824613Y-6519271D01*
X9896455Y-6519271D01*
X9896455Y-6773271D02*
X9896455Y-6701429D01*
X9824613Y-6701429D01*
X9824613Y-6773271D01*
X9896455Y-6773271D01*
X9896455Y-7027271D02*
X9896455Y-6955429D01*
X9824613Y-6955429D01*
X9824613Y-7027271D01*
X9896455Y-7027271D01*
X9896455Y-7281271D02*
X9896455Y-7209429D01*
X9824613Y-7209429D01*
X9824613Y-7281271D01*
X9896455Y-7281271D01*
X9896455Y-7535271D02*
X9896455Y-7463429D01*
X9824613Y-7463429D01*
X9824613Y-7535271D01*
X9896455Y-7535271D01*
X9896455Y-7789271D02*
X9896455Y-7717429D01*
X9824613Y-7717429D01*
X9824613Y-7789271D01*
X9896455Y-7789271D01*
X9896455Y-8043271D02*
X9896455Y-7971429D01*
X9824613Y-7971429D01*
X9824613Y-8043271D01*
X9896455Y-8043271D01*
X9896455Y-8297271D02*
X9896455Y-8225429D01*
X9824613Y-8225429D01*
X9824613Y-8297271D01*
X9896455Y-8297271D01*
X9896455Y-8551271D02*
X9896455Y-8479429D01*
X9824613Y-8479429D01*
X9824613Y-8551271D01*
X9896455Y-8551271D01*
X9896455Y-8805271D02*
X9896455Y-8733429D01*
X9824613Y-8733429D01*
X9824613Y-8805271D01*
X9896455Y-8805271D01*
X9896455Y-9059271D02*
X9896455Y-8987429D01*
X9824613Y-8987429D01*
X9824613Y-9059271D01*
X9896455Y-9059271D01*
X9896455Y-9313271D02*
X9896455Y-9241429D01*
X9824613Y-9241429D01*
X9824613Y-9313271D01*
X9896455Y-9313271D01*
X9896455Y-9567271D02*
X9896455Y-9495429D01*
X9824613Y-9495429D01*
X9824613Y-9567271D01*
X9896455Y-9567271D01*
X9896455Y-9821271D02*
X9896455Y-9749429D01*
X9824613Y-9749429D01*
X9824613Y-9821271D01*
X9896455Y-9821271D01*
X15656921Y-11084921D02*
X15656921Y-11013079D01*
X15585079Y-11013079D01*
X15585079Y-11084921D01*
X15656921Y-11084921D01*
X16164921Y-11084921D02*
X16164921Y-11013079D01*
X16093079Y-11013079D01*
X16093079Y-11084921D01*
X16164921Y-11084921D01*
D12*
X3219112Y-13965814D02*
X3219112Y-13665814D01*
X3290541Y-13665814D01*
X3333398Y-13680100D01*
X3361970Y-13708671D01*
X3376255Y-13737243D01*
X3390541Y-13794386D01*
X3390541Y-13837243D01*
X3376255Y-13894386D01*
X3361970Y-13922957D01*
X3333398Y-13951529D01*
X3290541Y-13965814D01*
X3219112Y-13965814D01*
X3519112Y-13965814D02*
X3519112Y-13765814D01*
X3519112Y-13822957D02*
X3533398Y-13794386D01*
X3547684Y-13780100D01*
X3576255Y-13765814D01*
X3604827Y-13765814D01*
X3704827Y-13965814D02*
X3704827Y-13765814D01*
X3704827Y-13665814D02*
X3690541Y-13680100D01*
X3704827Y-13694386D01*
X3719112Y-13680100D01*
X3704827Y-13665814D01*
X3704827Y-13694386D01*
X3890541Y-13965814D02*
X3861970Y-13951529D01*
X3847684Y-13922957D01*
X3847684Y-13665814D01*
X4047684Y-13965814D02*
X4019112Y-13951529D01*
X4004827Y-13922957D01*
X4004827Y-13665814D01*
X4390541Y-13965814D02*
X4390541Y-13665814D01*
X4490541Y-13880100D01*
X4590541Y-13665814D01*
X4590541Y-13965814D01*
X4861970Y-13965814D02*
X4861970Y-13808671D01*
X4847684Y-13780100D01*
X4819112Y-13765814D01*
X4761970Y-13765814D01*
X4733398Y-13780100D01*
X4861970Y-13951529D02*
X4833398Y-13965814D01*
X4761970Y-13965814D01*
X4733398Y-13951529D01*
X4719112Y-13922957D01*
X4719112Y-13894386D01*
X4733398Y-13865814D01*
X4761970Y-13851529D01*
X4833398Y-13851529D01*
X4861970Y-13837243D01*
X5004827Y-13765814D02*
X5004827Y-14065814D01*
X5004827Y-13780100D02*
X5033398Y-13765814D01*
X5090541Y-13765814D01*
X5119112Y-13780100D01*
X5133398Y-13794386D01*
X5147684Y-13822957D01*
X5147684Y-13908671D01*
X5133398Y-13937243D01*
X5119112Y-13951529D01*
X5090541Y-13965814D01*
X5033398Y-13965814D01*
X5004827Y-13951529D01*
X5276255Y-13937243D02*
X5290541Y-13951529D01*
X5276255Y-13965814D01*
X5261970Y-13951529D01*
X5276255Y-13937243D01*
X5276255Y-13965814D01*
X5276255Y-13780100D02*
X5290541Y-13794386D01*
X5276255Y-13808671D01*
X5261970Y-13794386D01*
X5276255Y-13780100D01*
X5276255Y-13808671D01*
X2869184Y-14428350D02*
X2932684Y-14491850D01*
X2932684Y-14428350D02*
X2869184Y-14491850D01*
X3276255Y-14295814D02*
X3304827Y-14295814D01*
X3333398Y-14310100D01*
X3347684Y-14324386D01*
X3361970Y-14352957D01*
X3376255Y-14410100D01*
X3376255Y-14481529D01*
X3361970Y-14538671D01*
X3347684Y-14567243D01*
X3333398Y-14581529D01*
X3304827Y-14595814D01*
X3276255Y-14595814D01*
X3247684Y-14581529D01*
X3233398Y-14567243D01*
X3219112Y-14538671D01*
X3204827Y-14481529D01*
X3204827Y-14410100D01*
X3219112Y-14352957D01*
X3233398Y-14324386D01*
X3247684Y-14310100D01*
X3276255Y-14295814D01*
X3504827Y-14567243D02*
X3519112Y-14581529D01*
X3504827Y-14595814D01*
X3490541Y-14581529D01*
X3504827Y-14567243D01*
X3504827Y-14595814D01*
X3776255Y-14295814D02*
X3719112Y-14295814D01*
X3690541Y-14310100D01*
X3676255Y-14324386D01*
X3647684Y-14367243D01*
X3633398Y-14424386D01*
X3633398Y-14538671D01*
X3647684Y-14567243D01*
X3661970Y-14581529D01*
X3690541Y-14595814D01*
X3747684Y-14595814D01*
X3776255Y-14581529D01*
X3790541Y-14567243D01*
X3804827Y-14538671D01*
X3804827Y-14467243D01*
X3790541Y-14438671D01*
X3776255Y-14424386D01*
X3747684Y-14410100D01*
X3690541Y-14410100D01*
X3661970Y-14424386D01*
X3647684Y-14438671D01*
X3633398Y-14467243D01*
X3904827Y-14295814D02*
X4090541Y-14295814D01*
X3990541Y-14410100D01*
X4033398Y-14410100D01*
X4061970Y-14424386D01*
X4076255Y-14438671D01*
X4090541Y-14467243D01*
X4090541Y-14538671D01*
X4076255Y-14567243D01*
X4061970Y-14581529D01*
X4033398Y-14595814D01*
X3947684Y-14595814D01*
X3919112Y-14581529D01*
X3904827Y-14567243D01*
X4361970Y-14295814D02*
X4219112Y-14295814D01*
X4204827Y-14438671D01*
X4219112Y-14424386D01*
X4247684Y-14410100D01*
X4319112Y-14410100D01*
X4347684Y-14424386D01*
X4361970Y-14438671D01*
X4376255Y-14467243D01*
X4376255Y-14538671D01*
X4361970Y-14567243D01*
X4347684Y-14581529D01*
X4319112Y-14595814D01*
X4247684Y-14595814D01*
X4219112Y-14581529D01*
X4204827Y-14567243D01*
X4504827Y-14595814D02*
X4504827Y-14395814D01*
X4504827Y-14424386D02*
X4519112Y-14410100D01*
X4547684Y-14395814D01*
X4590541Y-14395814D01*
X4619112Y-14410100D01*
X4633398Y-14438671D01*
X4633398Y-14595814D01*
X4633398Y-14438671D02*
X4647684Y-14410100D01*
X4676255Y-14395814D01*
X4719112Y-14395814D01*
X4747684Y-14410100D01*
X4761970Y-14438671D01*
X4761970Y-14595814D01*
X4904827Y-14595814D02*
X4904827Y-14395814D01*
X4904827Y-14424386D02*
X4919112Y-14410100D01*
X4947684Y-14395814D01*
X4990541Y-14395814D01*
X5019112Y-14410100D01*
X5033398Y-14438671D01*
X5033398Y-14595814D01*
X5033398Y-14438671D02*
X5047684Y-14410100D01*
X5076255Y-14395814D01*
X5119112Y-14395814D01*
X5147684Y-14410100D01*
X5161970Y-14438671D01*
X5161970Y-14595814D01*
X5747684Y-14281529D02*
X5490541Y-14667243D01*
X6133398Y-14295814D02*
X6161970Y-14295814D01*
X6190541Y-14310100D01*
X6204827Y-14324386D01*
X6219112Y-14352957D01*
X6233398Y-14410100D01*
X6233398Y-14481529D01*
X6219112Y-14538671D01*
X6204827Y-14567243D01*
X6190541Y-14581529D01*
X6161970Y-14595814D01*
X6133398Y-14595814D01*
X6104827Y-14581529D01*
X6090541Y-14567243D01*
X6076255Y-14538671D01*
X6061970Y-14481529D01*
X6061970Y-14410100D01*
X6076255Y-14352957D01*
X6090541Y-14324386D01*
X6104827Y-14310100D01*
X6133398Y-14295814D01*
X6361970Y-14567243D02*
X6376255Y-14581529D01*
X6361970Y-14595814D01*
X6347684Y-14581529D01*
X6361970Y-14567243D01*
X6361970Y-14595814D01*
X6561970Y-14295814D02*
X6590541Y-14295814D01*
X6619112Y-14310100D01*
X6633398Y-14324386D01*
X6647684Y-14352957D01*
X6661970Y-14410100D01*
X6661970Y-14481529D01*
X6647684Y-14538671D01*
X6633398Y-14567243D01*
X6619112Y-14581529D01*
X6590541Y-14595814D01*
X6561970Y-14595814D01*
X6533398Y-14581529D01*
X6519112Y-14567243D01*
X6504827Y-14538671D01*
X6490541Y-14481529D01*
X6490541Y-14410100D01*
X6504827Y-14352957D01*
X6519112Y-14324386D01*
X6533398Y-14310100D01*
X6561970Y-14295814D01*
X6776255Y-14324386D02*
X6790541Y-14310100D01*
X6819112Y-14295814D01*
X6890541Y-14295814D01*
X6919112Y-14310100D01*
X6933398Y-14324386D01*
X6947684Y-14352957D01*
X6947684Y-14381529D01*
X6933398Y-14424386D01*
X6761970Y-14595814D01*
X6947684Y-14595814D01*
X7219112Y-14295814D02*
X7076255Y-14295814D01*
X7061970Y-14438671D01*
X7076255Y-14424386D01*
X7104827Y-14410100D01*
X7176255Y-14410100D01*
X7204827Y-14424386D01*
X7219112Y-14438671D01*
X7233398Y-14467243D01*
X7233398Y-14538671D01*
X7219112Y-14567243D01*
X7204827Y-14581529D01*
X7176255Y-14595814D01*
X7104827Y-14595814D01*
X7076255Y-14581529D01*
X7061970Y-14567243D01*
X7419112Y-14295814D02*
X7447684Y-14295814D01*
X7476255Y-14310100D01*
X7490541Y-14324386D01*
X7504827Y-14352957D01*
X7519112Y-14410100D01*
X7519112Y-14481529D01*
X7504827Y-14538671D01*
X7490541Y-14567243D01*
X7476255Y-14581529D01*
X7447684Y-14595814D01*
X7419112Y-14595814D01*
X7390541Y-14581529D01*
X7376255Y-14567243D01*
X7361970Y-14538671D01*
X7347684Y-14481529D01*
X7347684Y-14410100D01*
X7361970Y-14352957D01*
X7376255Y-14324386D01*
X7390541Y-14310100D01*
X7419112Y-14295814D01*
X7633398Y-14295814D02*
X7633398Y-14352957D01*
X7747684Y-14295814D02*
X7747684Y-14352957D01*
X8190541Y-14710100D02*
X8176255Y-14695814D01*
X8147684Y-14652957D01*
X8133398Y-14624386D01*
X8119112Y-14581529D01*
X8104827Y-14510100D01*
X8104827Y-14452957D01*
X8119112Y-14381529D01*
X8133398Y-14338671D01*
X8147684Y-14310100D01*
X8176255Y-14267243D01*
X8190541Y-14252957D01*
X8433398Y-14395814D02*
X8433398Y-14595814D01*
X8361970Y-14281529D02*
X8290541Y-14495814D01*
X8476255Y-14495814D01*
X8733398Y-14295814D02*
X8590541Y-14295814D01*
X8576255Y-14438671D01*
X8590541Y-14424386D01*
X8619112Y-14410100D01*
X8690541Y-14410100D01*
X8719112Y-14424386D01*
X8733398Y-14438671D01*
X8747684Y-14467243D01*
X8747684Y-14538671D01*
X8733398Y-14567243D01*
X8719112Y-14581529D01*
X8690541Y-14595814D01*
X8619112Y-14595814D01*
X8590541Y-14581529D01*
X8576255Y-14567243D01*
X9104827Y-14595814D02*
X9104827Y-14295814D01*
X9233398Y-14595814D02*
X9233398Y-14438671D01*
X9219112Y-14410100D01*
X9190541Y-14395814D01*
X9147684Y-14395814D01*
X9119112Y-14410100D01*
X9104827Y-14424386D01*
X9419112Y-14595814D02*
X9390541Y-14581529D01*
X9376255Y-14567243D01*
X9361970Y-14538671D01*
X9361970Y-14452957D01*
X9376255Y-14424386D01*
X9390541Y-14410100D01*
X9419112Y-14395814D01*
X9461970Y-14395814D01*
X9490541Y-14410100D01*
X9504827Y-14424386D01*
X9519112Y-14452957D01*
X9519112Y-14538671D01*
X9504827Y-14567243D01*
X9490541Y-14581529D01*
X9461970Y-14595814D01*
X9419112Y-14595814D01*
X9690541Y-14595814D02*
X9661970Y-14581529D01*
X9647684Y-14552957D01*
X9647684Y-14295814D01*
X9919112Y-14581529D02*
X9890541Y-14595814D01*
X9833398Y-14595814D01*
X9804827Y-14581529D01*
X9790541Y-14552957D01*
X9790541Y-14438671D01*
X9804827Y-14410100D01*
X9833398Y-14395814D01*
X9890541Y-14395814D01*
X9919112Y-14410100D01*
X9933398Y-14438671D01*
X9933398Y-14467243D01*
X9790541Y-14495814D01*
X10047684Y-14581529D02*
X10076255Y-14595814D01*
X10133398Y-14595814D01*
X10161970Y-14581529D01*
X10176255Y-14552957D01*
X10176255Y-14538671D01*
X10161970Y-14510100D01*
X10133398Y-14495814D01*
X10090541Y-14495814D01*
X10061970Y-14481529D01*
X10047684Y-14452957D01*
X10047684Y-14438671D01*
X10061970Y-14410100D01*
X10090541Y-14395814D01*
X10133398Y-14395814D01*
X10161970Y-14410100D01*
X10276255Y-14710100D02*
X10290541Y-14695814D01*
X10319112Y-14652957D01*
X10333398Y-14624386D01*
X10347684Y-14581529D01*
X10361970Y-14510100D01*
X10361970Y-14452957D01*
X10347684Y-14381529D01*
X10333398Y-14338671D01*
X10319112Y-14310100D01*
X10290541Y-14267243D01*
X10276255Y-14252957D01*
X2932684Y-14856100D02*
G75*
G03*
X2932684Y-14856100I-40000J0D01*
G01*
X3276255Y-14691814D02*
X3304827Y-14691814D01*
X3333398Y-14706100D01*
X3347684Y-14720386D01*
X3361970Y-14748957D01*
X3376255Y-14806100D01*
X3376255Y-14877529D01*
X3361970Y-14934671D01*
X3347684Y-14963243D01*
X3333398Y-14977529D01*
X3304827Y-14991814D01*
X3276255Y-14991814D01*
X3247684Y-14977529D01*
X3233398Y-14963243D01*
X3219112Y-14934671D01*
X3204827Y-14877529D01*
X3204827Y-14806100D01*
X3219112Y-14748957D01*
X3233398Y-14720386D01*
X3247684Y-14706100D01*
X3276255Y-14691814D01*
X3504827Y-14963243D02*
X3519112Y-14977529D01*
X3504827Y-14991814D01*
X3490541Y-14977529D01*
X3504827Y-14963243D01*
X3504827Y-14991814D01*
X3690541Y-14820386D02*
X3661970Y-14806100D01*
X3647684Y-14791814D01*
X3633398Y-14763243D01*
X3633398Y-14748957D01*
X3647684Y-14720386D01*
X3661970Y-14706100D01*
X3690541Y-14691814D01*
X3747684Y-14691814D01*
X3776255Y-14706100D01*
X3790541Y-14720386D01*
X3804827Y-14748957D01*
X3804827Y-14763243D01*
X3790541Y-14791814D01*
X3776255Y-14806100D01*
X3747684Y-14820386D01*
X3690541Y-14820386D01*
X3661970Y-14834671D01*
X3647684Y-14848957D01*
X3633398Y-14877529D01*
X3633398Y-14934671D01*
X3647684Y-14963243D01*
X3661970Y-14977529D01*
X3690541Y-14991814D01*
X3747684Y-14991814D01*
X3776255Y-14977529D01*
X3790541Y-14963243D01*
X3804827Y-14934671D01*
X3804827Y-14877529D01*
X3790541Y-14848957D01*
X3776255Y-14834671D01*
X3747684Y-14820386D01*
X3990541Y-14691814D02*
X4019112Y-14691814D01*
X4047684Y-14706100D01*
X4061970Y-14720386D01*
X4076255Y-14748957D01*
X4090541Y-14806100D01*
X4090541Y-14877529D01*
X4076255Y-14934671D01*
X4061970Y-14963243D01*
X4047684Y-14977529D01*
X4019112Y-14991814D01*
X3990541Y-14991814D01*
X3961970Y-14977529D01*
X3947684Y-14963243D01*
X3933398Y-14934671D01*
X3919112Y-14877529D01*
X3919112Y-14806100D01*
X3933398Y-14748957D01*
X3947684Y-14720386D01*
X3961970Y-14706100D01*
X3990541Y-14691814D01*
X4276255Y-14691814D02*
X4304827Y-14691814D01*
X4333398Y-14706100D01*
X4347684Y-14720386D01*
X4361970Y-14748957D01*
X4376255Y-14806100D01*
X4376255Y-14877529D01*
X4361970Y-14934671D01*
X4347684Y-14963243D01*
X4333398Y-14977529D01*
X4304827Y-14991814D01*
X4276255Y-14991814D01*
X4247684Y-14977529D01*
X4233398Y-14963243D01*
X4219112Y-14934671D01*
X4204827Y-14877529D01*
X4204827Y-14806100D01*
X4219112Y-14748957D01*
X4233398Y-14720386D01*
X4247684Y-14706100D01*
X4276255Y-14691814D01*
X4504827Y-14991814D02*
X4504827Y-14791814D01*
X4504827Y-14820386D02*
X4519112Y-14806100D01*
X4547684Y-14791814D01*
X4590541Y-14791814D01*
X4619112Y-14806100D01*
X4633398Y-14834671D01*
X4633398Y-14991814D01*
X4633398Y-14834671D02*
X4647684Y-14806100D01*
X4676255Y-14791814D01*
X4719112Y-14791814D01*
X4747684Y-14806100D01*
X4761970Y-14834671D01*
X4761970Y-14991814D01*
X4904827Y-14991814D02*
X4904827Y-14791814D01*
X4904827Y-14820386D02*
X4919112Y-14806100D01*
X4947684Y-14791814D01*
X4990541Y-14791814D01*
X5019112Y-14806100D01*
X5033398Y-14834671D01*
X5033398Y-14991814D01*
X5033398Y-14834671D02*
X5047684Y-14806100D01*
X5076255Y-14791814D01*
X5119112Y-14791814D01*
X5147684Y-14806100D01*
X5161970Y-14834671D01*
X5161970Y-14991814D01*
X5747684Y-14677529D02*
X5490541Y-15063243D01*
X6133398Y-14691814D02*
X6161970Y-14691814D01*
X6190541Y-14706100D01*
X6204827Y-14720386D01*
X6219112Y-14748957D01*
X6233398Y-14806100D01*
X6233398Y-14877529D01*
X6219112Y-14934671D01*
X6204827Y-14963243D01*
X6190541Y-14977529D01*
X6161970Y-14991814D01*
X6133398Y-14991814D01*
X6104827Y-14977529D01*
X6090541Y-14963243D01*
X6076255Y-14934671D01*
X6061970Y-14877529D01*
X6061970Y-14806100D01*
X6076255Y-14748957D01*
X6090541Y-14720386D01*
X6104827Y-14706100D01*
X6133398Y-14691814D01*
X6361970Y-14963243D02*
X6376255Y-14977529D01*
X6361970Y-14991814D01*
X6347684Y-14977529D01*
X6361970Y-14963243D01*
X6361970Y-14991814D01*
X6561970Y-14691814D02*
X6590541Y-14691814D01*
X6619112Y-14706100D01*
X6633398Y-14720386D01*
X6647684Y-14748957D01*
X6661970Y-14806100D01*
X6661970Y-14877529D01*
X6647684Y-14934671D01*
X6633398Y-14963243D01*
X6619112Y-14977529D01*
X6590541Y-14991814D01*
X6561970Y-14991814D01*
X6533398Y-14977529D01*
X6519112Y-14963243D01*
X6504827Y-14934671D01*
X6490541Y-14877529D01*
X6490541Y-14806100D01*
X6504827Y-14748957D01*
X6519112Y-14720386D01*
X6533398Y-14706100D01*
X6561970Y-14691814D01*
X6761970Y-14691814D02*
X6947684Y-14691814D01*
X6847684Y-14806100D01*
X6890541Y-14806100D01*
X6919112Y-14820386D01*
X6933398Y-14834671D01*
X6947684Y-14863243D01*
X6947684Y-14934671D01*
X6933398Y-14963243D01*
X6919112Y-14977529D01*
X6890541Y-14991814D01*
X6804827Y-14991814D01*
X6776255Y-14977529D01*
X6761970Y-14963243D01*
X7233398Y-14991814D02*
X7061970Y-14991814D01*
X7147684Y-14991814D02*
X7147684Y-14691814D01*
X7119112Y-14734671D01*
X7090541Y-14763243D01*
X7061970Y-14777529D01*
X7504827Y-14691814D02*
X7361970Y-14691814D01*
X7347684Y-14834671D01*
X7361970Y-14820386D01*
X7390541Y-14806100D01*
X7461970Y-14806100D01*
X7490541Y-14820386D01*
X7504827Y-14834671D01*
X7519112Y-14863243D01*
X7519112Y-14934671D01*
X7504827Y-14963243D01*
X7490541Y-14977529D01*
X7461970Y-14991814D01*
X7390541Y-14991814D01*
X7361970Y-14977529D01*
X7347684Y-14963243D01*
X7633398Y-14691814D02*
X7633398Y-14748957D01*
X7747684Y-14691814D02*
X7747684Y-14748957D01*
X8190541Y-15106100D02*
X8176255Y-15091814D01*
X8147684Y-15048957D01*
X8133398Y-15020386D01*
X8119112Y-14977529D01*
X8104827Y-14906100D01*
X8104827Y-14848957D01*
X8119112Y-14777529D01*
X8133398Y-14734671D01*
X8147684Y-14706100D01*
X8176255Y-14663243D01*
X8190541Y-14648957D01*
X8433398Y-14691814D02*
X8376255Y-14691814D01*
X8347684Y-14706100D01*
X8333398Y-14720386D01*
X8304827Y-14763243D01*
X8290541Y-14820386D01*
X8290541Y-14934671D01*
X8304827Y-14963243D01*
X8319112Y-14977529D01*
X8347684Y-14991814D01*
X8404827Y-14991814D01*
X8433398Y-14977529D01*
X8447684Y-14963243D01*
X8461970Y-14934671D01*
X8461970Y-14863243D01*
X8447684Y-14834671D01*
X8433398Y-14820386D01*
X8404827Y-14806100D01*
X8347684Y-14806100D01*
X8319112Y-14820386D01*
X8304827Y-14834671D01*
X8290541Y-14863243D01*
X8719112Y-14791814D02*
X8719112Y-14991814D01*
X8647684Y-14677529D02*
X8576255Y-14891814D01*
X8761970Y-14891814D01*
X9104827Y-14991814D02*
X9104827Y-14691814D01*
X9233398Y-14991814D02*
X9233398Y-14834671D01*
X9219112Y-14806100D01*
X9190541Y-14791814D01*
X9147684Y-14791814D01*
X9119112Y-14806100D01*
X9104827Y-14820386D01*
X9419112Y-14991814D02*
X9390541Y-14977529D01*
X9376255Y-14963243D01*
X9361970Y-14934671D01*
X9361970Y-14848957D01*
X9376255Y-14820386D01*
X9390541Y-14806100D01*
X9419112Y-14791814D01*
X9461970Y-14791814D01*
X9490541Y-14806100D01*
X9504827Y-14820386D01*
X9519112Y-14848957D01*
X9519112Y-14934671D01*
X9504827Y-14963243D01*
X9490541Y-14977529D01*
X9461970Y-14991814D01*
X9419112Y-14991814D01*
X9690541Y-14991814D02*
X9661970Y-14977529D01*
X9647684Y-14948957D01*
X9647684Y-14691814D01*
X9919112Y-14977529D02*
X9890541Y-14991814D01*
X9833398Y-14991814D01*
X9804827Y-14977529D01*
X9790541Y-14948957D01*
X9790541Y-14834671D01*
X9804827Y-14806100D01*
X9833398Y-14791814D01*
X9890541Y-14791814D01*
X9919112Y-14806100D01*
X9933398Y-14834671D01*
X9933398Y-14863243D01*
X9790541Y-14891814D01*
X10047684Y-14977529D02*
X10076255Y-14991814D01*
X10133398Y-14991814D01*
X10161970Y-14977529D01*
X10176255Y-14948957D01*
X10176255Y-14934671D01*
X10161970Y-14906100D01*
X10133398Y-14891814D01*
X10090541Y-14891814D01*
X10061970Y-14877529D01*
X10047684Y-14848957D01*
X10047684Y-14834671D01*
X10061970Y-14806100D01*
X10090541Y-14791814D01*
X10133398Y-14791814D01*
X10161970Y-14806100D01*
X10276255Y-15106100D02*
X10290541Y-15091814D01*
X10319112Y-15048957D01*
X10333398Y-15020386D01*
X10347684Y-14977529D01*
X10361970Y-14906100D01*
X10361970Y-14848957D01*
X10347684Y-14777529D01*
X10333398Y-14734671D01*
X10319112Y-14706100D01*
X10290541Y-14663243D01*
X10276255Y-14648957D01*
X2892044Y-15211460D02*
X2892044Y-15292740D01*
X2851404Y-15252100D02*
X2932684Y-15252100D01*
X3276255Y-15087814D02*
X3304827Y-15087814D01*
X3333398Y-15102100D01*
X3347684Y-15116386D01*
X3361970Y-15144957D01*
X3376255Y-15202100D01*
X3376255Y-15273529D01*
X3361970Y-15330671D01*
X3347684Y-15359243D01*
X3333398Y-15373529D01*
X3304827Y-15387814D01*
X3276255Y-15387814D01*
X3247684Y-15373529D01*
X3233398Y-15359243D01*
X3219112Y-15330671D01*
X3204827Y-15273529D01*
X3204827Y-15202100D01*
X3219112Y-15144957D01*
X3233398Y-15116386D01*
X3247684Y-15102100D01*
X3276255Y-15087814D01*
X3504827Y-15359243D02*
X3519112Y-15373529D01*
X3504827Y-15387814D01*
X3490541Y-15373529D01*
X3504827Y-15359243D01*
X3504827Y-15387814D01*
X3690541Y-15216386D02*
X3661970Y-15202100D01*
X3647684Y-15187814D01*
X3633398Y-15159243D01*
X3633398Y-15144957D01*
X3647684Y-15116386D01*
X3661970Y-15102100D01*
X3690541Y-15087814D01*
X3747684Y-15087814D01*
X3776255Y-15102100D01*
X3790541Y-15116386D01*
X3804827Y-15144957D01*
X3804827Y-15159243D01*
X3790541Y-15187814D01*
X3776255Y-15202100D01*
X3747684Y-15216386D01*
X3690541Y-15216386D01*
X3661970Y-15230671D01*
X3647684Y-15244957D01*
X3633398Y-15273529D01*
X3633398Y-15330671D01*
X3647684Y-15359243D01*
X3661970Y-15373529D01*
X3690541Y-15387814D01*
X3747684Y-15387814D01*
X3776255Y-15373529D01*
X3790541Y-15359243D01*
X3804827Y-15330671D01*
X3804827Y-15273529D01*
X3790541Y-15244957D01*
X3776255Y-15230671D01*
X3747684Y-15216386D01*
X4090541Y-15387814D02*
X3919112Y-15387814D01*
X4004827Y-15387814D02*
X4004827Y-15087814D01*
X3976255Y-15130671D01*
X3947684Y-15159243D01*
X3919112Y-15173529D01*
X4190541Y-15087814D02*
X4376255Y-15087814D01*
X4276255Y-15202100D01*
X4319112Y-15202100D01*
X4347684Y-15216386D01*
X4361970Y-15230671D01*
X4376255Y-15259243D01*
X4376255Y-15330671D01*
X4361970Y-15359243D01*
X4347684Y-15373529D01*
X4319112Y-15387814D01*
X4233398Y-15387814D01*
X4204827Y-15373529D01*
X4190541Y-15359243D01*
X4504827Y-15387814D02*
X4504827Y-15187814D01*
X4504827Y-15216386D02*
X4519112Y-15202100D01*
X4547684Y-15187814D01*
X4590541Y-15187814D01*
X4619112Y-15202100D01*
X4633398Y-15230671D01*
X4633398Y-15387814D01*
X4633398Y-15230671D02*
X4647684Y-15202100D01*
X4676255Y-15187814D01*
X4719112Y-15187814D01*
X4747684Y-15202100D01*
X4761970Y-15230671D01*
X4761970Y-15387814D01*
X4904827Y-15387814D02*
X4904827Y-15187814D01*
X4904827Y-15216386D02*
X4919112Y-15202100D01*
X4947684Y-15187814D01*
X4990541Y-15187814D01*
X5019112Y-15202100D01*
X5033398Y-15230671D01*
X5033398Y-15387814D01*
X5033398Y-15230671D02*
X5047684Y-15202100D01*
X5076255Y-15187814D01*
X5119112Y-15187814D01*
X5147684Y-15202100D01*
X5161970Y-15230671D01*
X5161970Y-15387814D01*
X5747684Y-15073529D02*
X5490541Y-15459243D01*
X6133398Y-15087814D02*
X6161970Y-15087814D01*
X6190541Y-15102100D01*
X6204827Y-15116386D01*
X6219112Y-15144957D01*
X6233398Y-15202100D01*
X6233398Y-15273529D01*
X6219112Y-15330671D01*
X6204827Y-15359243D01*
X6190541Y-15373529D01*
X6161970Y-15387814D01*
X6133398Y-15387814D01*
X6104827Y-15373529D01*
X6090541Y-15359243D01*
X6076255Y-15330671D01*
X6061970Y-15273529D01*
X6061970Y-15202100D01*
X6076255Y-15144957D01*
X6090541Y-15116386D01*
X6104827Y-15102100D01*
X6133398Y-15087814D01*
X6361970Y-15359243D02*
X6376255Y-15373529D01*
X6361970Y-15387814D01*
X6347684Y-15373529D01*
X6361970Y-15359243D01*
X6361970Y-15387814D01*
X6561970Y-15087814D02*
X6590541Y-15087814D01*
X6619112Y-15102100D01*
X6633398Y-15116386D01*
X6647684Y-15144957D01*
X6661970Y-15202100D01*
X6661970Y-15273529D01*
X6647684Y-15330671D01*
X6633398Y-15359243D01*
X6619112Y-15373529D01*
X6590541Y-15387814D01*
X6561970Y-15387814D01*
X6533398Y-15373529D01*
X6519112Y-15359243D01*
X6504827Y-15330671D01*
X6490541Y-15273529D01*
X6490541Y-15202100D01*
X6504827Y-15144957D01*
X6519112Y-15116386D01*
X6533398Y-15102100D01*
X6561970Y-15087814D01*
X6761970Y-15087814D02*
X6947684Y-15087814D01*
X6847684Y-15202100D01*
X6890541Y-15202100D01*
X6919112Y-15216386D01*
X6933398Y-15230671D01*
X6947684Y-15259243D01*
X6947684Y-15330671D01*
X6933398Y-15359243D01*
X6919112Y-15373529D01*
X6890541Y-15387814D01*
X6804827Y-15387814D01*
X6776255Y-15373529D01*
X6761970Y-15359243D01*
X7061970Y-15116386D02*
X7076255Y-15102100D01*
X7104827Y-15087814D01*
X7176255Y-15087814D01*
X7204827Y-15102100D01*
X7219112Y-15116386D01*
X7233398Y-15144957D01*
X7233398Y-15173529D01*
X7219112Y-15216386D01*
X7047684Y-15387814D01*
X7233398Y-15387814D01*
X7419112Y-15087814D02*
X7447684Y-15087814D01*
X7476255Y-15102100D01*
X7490541Y-15116386D01*
X7504827Y-15144957D01*
X7519112Y-15202100D01*
X7519112Y-15273529D01*
X7504827Y-15330671D01*
X7490541Y-15359243D01*
X7476255Y-15373529D01*
X7447684Y-15387814D01*
X7419112Y-15387814D01*
X7390541Y-15373529D01*
X7376255Y-15359243D01*
X7361970Y-15330671D01*
X7347684Y-15273529D01*
X7347684Y-15202100D01*
X7361970Y-15144957D01*
X7376255Y-15116386D01*
X7390541Y-15102100D01*
X7419112Y-15087814D01*
X7633398Y-15087814D02*
X7633398Y-15144957D01*
X7747684Y-15087814D02*
X7747684Y-15144957D01*
X8190541Y-15502100D02*
X8176255Y-15487814D01*
X8147684Y-15444957D01*
X8133398Y-15416386D01*
X8119112Y-15373529D01*
X8104827Y-15302100D01*
X8104827Y-15244957D01*
X8119112Y-15173529D01*
X8133398Y-15130671D01*
X8147684Y-15102100D01*
X8176255Y-15059243D01*
X8190541Y-15044957D01*
X8433398Y-15087814D02*
X8376255Y-15087814D01*
X8347684Y-15102100D01*
X8333398Y-15116386D01*
X8304827Y-15159243D01*
X8290541Y-15216386D01*
X8290541Y-15330671D01*
X8304827Y-15359243D01*
X8319112Y-15373529D01*
X8347684Y-15387814D01*
X8404827Y-15387814D01*
X8433398Y-15373529D01*
X8447684Y-15359243D01*
X8461970Y-15330671D01*
X8461970Y-15259243D01*
X8447684Y-15230671D01*
X8433398Y-15216386D01*
X8404827Y-15202100D01*
X8347684Y-15202100D01*
X8319112Y-15216386D01*
X8304827Y-15230671D01*
X8290541Y-15259243D01*
X8819112Y-15387814D02*
X8819112Y-15087814D01*
X8947684Y-15387814D02*
X8947684Y-15230671D01*
X8933398Y-15202100D01*
X8904827Y-15187814D01*
X8861970Y-15187814D01*
X8833398Y-15202100D01*
X8819112Y-15216386D01*
X9133398Y-15387814D02*
X9104827Y-15373529D01*
X9090541Y-15359243D01*
X9076255Y-15330671D01*
X9076255Y-15244957D01*
X9090541Y-15216386D01*
X9104827Y-15202100D01*
X9133398Y-15187814D01*
X9176255Y-15187814D01*
X9204827Y-15202100D01*
X9219112Y-15216386D01*
X9233398Y-15244957D01*
X9233398Y-15330671D01*
X9219112Y-15359243D01*
X9204827Y-15373529D01*
X9176255Y-15387814D01*
X9133398Y-15387814D01*
X9404827Y-15387814D02*
X9376255Y-15373529D01*
X9361970Y-15344957D01*
X9361970Y-15087814D01*
X9633398Y-15373529D02*
X9604827Y-15387814D01*
X9547684Y-15387814D01*
X9519112Y-15373529D01*
X9504827Y-15344957D01*
X9504827Y-15230671D01*
X9519112Y-15202100D01*
X9547684Y-15187814D01*
X9604827Y-15187814D01*
X9633398Y-15202100D01*
X9647684Y-15230671D01*
X9647684Y-15259243D01*
X9504827Y-15287814D01*
X9761970Y-15373529D02*
X9790541Y-15387814D01*
X9847684Y-15387814D01*
X9876255Y-15373529D01*
X9890541Y-15344957D01*
X9890541Y-15330671D01*
X9876255Y-15302100D01*
X9847684Y-15287814D01*
X9804827Y-15287814D01*
X9776255Y-15273529D01*
X9761970Y-15244957D01*
X9761970Y-15230671D01*
X9776255Y-15202100D01*
X9804827Y-15187814D01*
X9847684Y-15187814D01*
X9876255Y-15202100D01*
X9990541Y-15502100D02*
X10004827Y-15487814D01*
X10033398Y-15444957D01*
X10047684Y-15416386D01*
X10061970Y-15373529D01*
X10076255Y-15302100D01*
X10076255Y-15244957D01*
X10061970Y-15173529D01*
X10047684Y-15130671D01*
X10033398Y-15102100D01*
X10004827Y-15059243D01*
X9990541Y-15044957D01*
X2917805Y-15684021D02*
X2917805Y-15612179D01*
X2845962Y-15612179D01*
X2845962Y-15684021D01*
X2917805Y-15684021D01*
X3376255Y-15783814D02*
X3204827Y-15783814D01*
X3290541Y-15783814D02*
X3290541Y-15483814D01*
X3261970Y-15526671D01*
X3233398Y-15555243D01*
X3204827Y-15569529D01*
X3504827Y-15755243D02*
X3519112Y-15769529D01*
X3504827Y-15783814D01*
X3490541Y-15769529D01*
X3504827Y-15755243D01*
X3504827Y-15783814D01*
X3704827Y-15483814D02*
X3733398Y-15483814D01*
X3761970Y-15498100D01*
X3776255Y-15512386D01*
X3790541Y-15540957D01*
X3804827Y-15598100D01*
X3804827Y-15669529D01*
X3790541Y-15726671D01*
X3776255Y-15755243D01*
X3761970Y-15769529D01*
X3733398Y-15783814D01*
X3704827Y-15783814D01*
X3676255Y-15769529D01*
X3661970Y-15755243D01*
X3647684Y-15726671D01*
X3633398Y-15669529D01*
X3633398Y-15598100D01*
X3647684Y-15540957D01*
X3661970Y-15512386D01*
X3676255Y-15498100D01*
X3704827Y-15483814D01*
X4090541Y-15783814D02*
X3919112Y-15783814D01*
X4004827Y-15783814D02*
X4004827Y-15483814D01*
X3976255Y-15526671D01*
X3947684Y-15555243D01*
X3919112Y-15569529D01*
X4347684Y-15483814D02*
X4290541Y-15483814D01*
X4261970Y-15498100D01*
X4247684Y-15512386D01*
X4219112Y-15555243D01*
X4204827Y-15612386D01*
X4204827Y-15726671D01*
X4219112Y-15755243D01*
X4233398Y-15769529D01*
X4261970Y-15783814D01*
X4319112Y-15783814D01*
X4347684Y-15769529D01*
X4361970Y-15755243D01*
X4376255Y-15726671D01*
X4376255Y-15655243D01*
X4361970Y-15626671D01*
X4347684Y-15612386D01*
X4319112Y-15598100D01*
X4261970Y-15598100D01*
X4233398Y-15612386D01*
X4219112Y-15626671D01*
X4204827Y-15655243D01*
X4504827Y-15783814D02*
X4504827Y-15583814D01*
X4504827Y-15612386D02*
X4519112Y-15598100D01*
X4547684Y-15583814D01*
X4590541Y-15583814D01*
X4619112Y-15598100D01*
X4633398Y-15626671D01*
X4633398Y-15783814D01*
X4633398Y-15626671D02*
X4647684Y-15598100D01*
X4676255Y-15583814D01*
X4719112Y-15583814D01*
X4747684Y-15598100D01*
X4761970Y-15626671D01*
X4761970Y-15783814D01*
X4904827Y-15783814D02*
X4904827Y-15583814D01*
X4904827Y-15612386D02*
X4919112Y-15598100D01*
X4947684Y-15583814D01*
X4990541Y-15583814D01*
X5019112Y-15598100D01*
X5033398Y-15626671D01*
X5033398Y-15783814D01*
X5033398Y-15626671D02*
X5047684Y-15598100D01*
X5076255Y-15583814D01*
X5119112Y-15583814D01*
X5147684Y-15598100D01*
X5161970Y-15626671D01*
X5161970Y-15783814D01*
X5747684Y-15469529D02*
X5490541Y-15855243D01*
X6133398Y-15483814D02*
X6161970Y-15483814D01*
X6190541Y-15498100D01*
X6204827Y-15512386D01*
X6219112Y-15540957D01*
X6233398Y-15598100D01*
X6233398Y-15669529D01*
X6219112Y-15726671D01*
X6204827Y-15755243D01*
X6190541Y-15769529D01*
X6161970Y-15783814D01*
X6133398Y-15783814D01*
X6104827Y-15769529D01*
X6090541Y-15755243D01*
X6076255Y-15726671D01*
X6061970Y-15669529D01*
X6061970Y-15598100D01*
X6076255Y-15540957D01*
X6090541Y-15512386D01*
X6104827Y-15498100D01*
X6133398Y-15483814D01*
X6361970Y-15755243D02*
X6376255Y-15769529D01*
X6361970Y-15783814D01*
X6347684Y-15769529D01*
X6361970Y-15755243D01*
X6361970Y-15783814D01*
X6561970Y-15483814D02*
X6590541Y-15483814D01*
X6619112Y-15498100D01*
X6633398Y-15512386D01*
X6647684Y-15540957D01*
X6661970Y-15598100D01*
X6661970Y-15669529D01*
X6647684Y-15726671D01*
X6633398Y-15755243D01*
X6619112Y-15769529D01*
X6590541Y-15783814D01*
X6561970Y-15783814D01*
X6533398Y-15769529D01*
X6519112Y-15755243D01*
X6504827Y-15726671D01*
X6490541Y-15669529D01*
X6490541Y-15598100D01*
X6504827Y-15540957D01*
X6519112Y-15512386D01*
X6533398Y-15498100D01*
X6561970Y-15483814D01*
X6919112Y-15583814D02*
X6919112Y-15783814D01*
X6847684Y-15469529D02*
X6776255Y-15683814D01*
X6961970Y-15683814D01*
X7133398Y-15483814D02*
X7161970Y-15483814D01*
X7190541Y-15498100D01*
X7204827Y-15512386D01*
X7219112Y-15540957D01*
X7233398Y-15598100D01*
X7233398Y-15669529D01*
X7219112Y-15726671D01*
X7204827Y-15755243D01*
X7190541Y-15769529D01*
X7161970Y-15783814D01*
X7133398Y-15783814D01*
X7104827Y-15769529D01*
X7090541Y-15755243D01*
X7076255Y-15726671D01*
X7061970Y-15669529D01*
X7061970Y-15598100D01*
X7076255Y-15540957D01*
X7090541Y-15512386D01*
X7104827Y-15498100D01*
X7133398Y-15483814D01*
X7419112Y-15483814D02*
X7447684Y-15483814D01*
X7476255Y-15498100D01*
X7490541Y-15512386D01*
X7504827Y-15540957D01*
X7519112Y-15598100D01*
X7519112Y-15669529D01*
X7504827Y-15726671D01*
X7490541Y-15755243D01*
X7476255Y-15769529D01*
X7447684Y-15783814D01*
X7419112Y-15783814D01*
X7390541Y-15769529D01*
X7376255Y-15755243D01*
X7361970Y-15726671D01*
X7347684Y-15669529D01*
X7347684Y-15598100D01*
X7361970Y-15540957D01*
X7376255Y-15512386D01*
X7390541Y-15498100D01*
X7419112Y-15483814D01*
X7633398Y-15483814D02*
X7633398Y-15540957D01*
X7747684Y-15483814D02*
X7747684Y-15540957D01*
X8190541Y-15898100D02*
X8176255Y-15883814D01*
X8147684Y-15840957D01*
X8133398Y-15812386D01*
X8119112Y-15769529D01*
X8104827Y-15698100D01*
X8104827Y-15640957D01*
X8119112Y-15569529D01*
X8133398Y-15526671D01*
X8147684Y-15498100D01*
X8176255Y-15455243D01*
X8190541Y-15440957D01*
X8433398Y-15583814D02*
X8433398Y-15783814D01*
X8361970Y-15469529D02*
X8290541Y-15683814D01*
X8476255Y-15683814D01*
X8719112Y-15583814D02*
X8719112Y-15783814D01*
X8647684Y-15469529D02*
X8576255Y-15683814D01*
X8761970Y-15683814D01*
X9104827Y-15783814D02*
X9104827Y-15483814D01*
X9233398Y-15783814D02*
X9233398Y-15626671D01*
X9219112Y-15598100D01*
X9190541Y-15583814D01*
X9147684Y-15583814D01*
X9119112Y-15598100D01*
X9104827Y-15612386D01*
X9419112Y-15783814D02*
X9390541Y-15769529D01*
X9376255Y-15755243D01*
X9361970Y-15726671D01*
X9361970Y-15640957D01*
X9376255Y-15612386D01*
X9390541Y-15598100D01*
X9419112Y-15583814D01*
X9461970Y-15583814D01*
X9490541Y-15598100D01*
X9504827Y-15612386D01*
X9519112Y-15640957D01*
X9519112Y-15726671D01*
X9504827Y-15755243D01*
X9490541Y-15769529D01*
X9461970Y-15783814D01*
X9419112Y-15783814D01*
X9690541Y-15783814D02*
X9661970Y-15769529D01*
X9647684Y-15740957D01*
X9647684Y-15483814D01*
X9919112Y-15769529D02*
X9890541Y-15783814D01*
X9833398Y-15783814D01*
X9804827Y-15769529D01*
X9790541Y-15740957D01*
X9790541Y-15626671D01*
X9804827Y-15598100D01*
X9833398Y-15583814D01*
X9890541Y-15583814D01*
X9919112Y-15598100D01*
X9933398Y-15626671D01*
X9933398Y-15655243D01*
X9790541Y-15683814D01*
X10047684Y-15769529D02*
X10076255Y-15783814D01*
X10133398Y-15783814D01*
X10161970Y-15769529D01*
X10176255Y-15740957D01*
X10176255Y-15726671D01*
X10161970Y-15698100D01*
X10133398Y-15683814D01*
X10090541Y-15683814D01*
X10061970Y-15669529D01*
X10047684Y-15640957D01*
X10047684Y-15626671D01*
X10061970Y-15598100D01*
X10090541Y-15583814D01*
X10133398Y-15583814D01*
X10161970Y-15598100D01*
X10276255Y-15898100D02*
X10290541Y-15883814D01*
X10319112Y-15840957D01*
X10333398Y-15812386D01*
X10347684Y-15769529D01*
X10361970Y-15698100D01*
X10361970Y-15640957D01*
X10347684Y-15569529D01*
X10333398Y-15526671D01*
X10319112Y-15498100D01*
X10290541Y-15455243D01*
X10276255Y-15440957D01*
M02*
