M48
; DRILL file {KiCad 5.1.10} date Tue Aug 31 10:29:23 2021
; FORMAT={-:-/ absolute / metric / decimal}
; #@! TF.CreationDate,2021-08-31T10:29:23-07:00
; #@! TF.GenerationSoftware,Kicad,Pcbnew,5.1.10
; #@! TF.FileFunction,Plated,1,2,PTH
FMAT,2
METRIC
T1C0.635
T2C0.800
T3C0.813
T4C1.016
%
G90
G05
T1
X60.681Y-59.969
X73.66Y-104.14
X81.67Y-46.99
X83.82Y-43.18
X85.725Y-108.585
X88.9Y-105.41
X90.17Y-106.68
X92.71Y-109.22
X95.25Y-101.6
X95.25Y-107.95
X102.933Y-50.863
X105.41Y-53.34
X105.41Y-57.15
X106.68Y-49.53
X109.135Y-92.795
X109.156Y-98.996
X109.22Y-53.34
X109.22Y-66.04
X109.22Y-95.25
X112.213Y-93.163
X114.3Y-49.53
X116.84Y-46.99
X119.38Y-45.72
X119.38Y-92.71
X119.38Y-99.06
X120.65Y-44.45
X121.975Y-92.765
X122.074Y-43.334
X123.19Y-41.91
X125.73Y-104.14
X128.27Y-76.2
X129.54Y-49.53
X133.934Y-51.486
X135.89Y-76.2
X135.89Y-101.6
X137.16Y-102.87
X138.43Y-104.14
X139.7Y-105.41
X140.97Y-106.68
X142.24Y-107.95
X143.51Y-109.22
X144.78Y-110.49
X146.05Y-111.76
X147.32Y-49.53
X147.32Y-113.03
T2
X116.256Y-54.627
X116.256Y-57.167
X116.256Y-59.707
X116.256Y-62.247
X116.256Y-64.787
X116.256Y-67.327
X116.256Y-69.867
X116.256Y-72.407
X116.256Y-74.947
X116.256Y-77.487
X116.256Y-80.027
X116.256Y-82.567
X116.256Y-85.107
X116.256Y-87.647
X116.256Y-90.187
X116.256Y-92.727
X131.496Y-54.627
X131.496Y-57.167
X131.496Y-59.707
X131.496Y-62.247
X131.496Y-64.787
X131.496Y-67.327
X131.496Y-69.867
X131.496Y-72.407
X131.496Y-74.947
X131.496Y-77.487
X131.496Y-80.027
X131.496Y-82.567
X131.496Y-85.107
X131.496Y-87.647
X131.496Y-90.187
X131.496Y-92.727
X147.32Y-54.627
X147.32Y-57.167
X147.32Y-59.707
X147.32Y-62.247
X147.32Y-64.787
X147.32Y-67.327
X147.32Y-69.867
X147.32Y-72.407
X147.32Y-74.947
X147.32Y-77.487
X147.32Y-80.027
X147.32Y-82.567
X147.32Y-85.107
X147.32Y-87.647
X147.32Y-90.187
X147.32Y-92.727
X162.56Y-54.627
X162.56Y-57.167
X162.56Y-59.707
X162.56Y-62.247
X162.56Y-64.787
X162.56Y-67.327
X162.56Y-69.867
X162.56Y-72.407
X162.56Y-74.947
X162.56Y-77.487
X162.56Y-80.027
X162.56Y-82.567
X162.56Y-85.107
X162.56Y-87.647
X162.56Y-90.187
X162.56Y-92.727
T3
X143.51Y-116.84
X143.51Y-119.38
X151.13Y-119.38
X156.21Y-104.14
X161.29Y-104.14
X161.29Y-119.38
T4
X72.443Y-110.934
X72.443Y-121.094
X83.365Y-49.593
X83.365Y-52.133
X83.365Y-54.673
X83.365Y-57.213
X83.365Y-59.753
X83.365Y-62.293
X83.365Y-64.834
X83.365Y-67.373
X83.365Y-69.913
X83.365Y-72.453
X83.365Y-74.993
X83.365Y-77.533
X83.365Y-80.073
X83.365Y-82.614
X83.365Y-85.153
X83.365Y-87.694
X83.365Y-90.233
X83.365Y-92.773
X83.365Y-95.313
X83.365Y-97.853
X98.605Y-49.593
X98.605Y-52.133
X98.605Y-54.673
X98.605Y-57.213
X98.605Y-59.753
X98.605Y-62.293
X98.605Y-64.834
X98.605Y-67.373
X98.605Y-69.913
X98.605Y-72.453
X98.605Y-74.993
X98.605Y-77.533
X98.605Y-80.073
X98.605Y-82.614
X98.605Y-85.153
X98.605Y-87.694
X98.605Y-90.233
X98.605Y-92.773
X98.605Y-95.313
X98.605Y-97.853
X156.21Y-110.49
X161.29Y-110.49
T0
M30
