G04 #@! TF.GenerationSoftware,KiCad,Pcbnew,5.1.10*
G04 #@! TF.CreationDate,2021-09-01T18:01:51-07:00*
G04 #@! TF.ProjectId,rx5cart,72783563-6172-4742-9e6b-696361645f70,1*
G04 #@! TF.SameCoordinates,Original*
G04 #@! TF.FileFunction,Soldermask,Bot*
G04 #@! TF.FilePolarity,Negative*
%FSLAX46Y46*%
G04 Gerber Fmt 4.6, Leading zero omitted, Abs format (unit mm)*
G04 Created by KiCad (PCBNEW 5.1.10) date 2021-09-01 18:01:51*
%MOMM*%
%LPD*%
G01*
G04 APERTURE LIST*
%ADD10C,2.184400*%
%ADD11O,2.908000X2.108000*%
%ADD12C,2.387600*%
%ADD13C,2.286000*%
%ADD14C,1.905000*%
G04 APERTURE END LIST*
D10*
X143510000Y-119380000D03*
X143510000Y-116840000D03*
D11*
X162560000Y-54626600D03*
X147320000Y-92726600D03*
X162560000Y-57166600D03*
X147320000Y-90186600D03*
X162560000Y-59706600D03*
X147320000Y-87646600D03*
X162560000Y-62246600D03*
X147320000Y-85106600D03*
X162560000Y-64786600D03*
X147320000Y-82566600D03*
X162560000Y-67326600D03*
X147320000Y-80026600D03*
X162560000Y-69866600D03*
X147320000Y-77486600D03*
X162560000Y-72406600D03*
X147320000Y-74946600D03*
X162560000Y-74946600D03*
X147320000Y-72406600D03*
X162560000Y-77486600D03*
X147320000Y-69866600D03*
X162560000Y-80026600D03*
X147320000Y-67326600D03*
X162560000Y-82566600D03*
X147320000Y-64786600D03*
X162560000Y-85106600D03*
X147320000Y-62246600D03*
X162560000Y-87646600D03*
X147320000Y-59706600D03*
X162560000Y-90186600D03*
X147320000Y-57166600D03*
X162560000Y-92726600D03*
G36*
G01*
X145866000Y-55426600D02*
X145866000Y-53826600D01*
G75*
G02*
X146120000Y-53572600I254000J0D01*
G01*
X148520000Y-53572600D01*
G75*
G02*
X148774000Y-53826600I0J-254000D01*
G01*
X148774000Y-55426600D01*
G75*
G02*
X148520000Y-55680600I-254000J0D01*
G01*
X146120000Y-55680600D01*
G75*
G02*
X145866000Y-55426600I0J254000D01*
G01*
G37*
X131496001Y-54626600D03*
X116256001Y-92726600D03*
X131496001Y-57166600D03*
X116256001Y-90186600D03*
X131496001Y-59706600D03*
X116256001Y-87646600D03*
X131496001Y-62246600D03*
X116256001Y-85106600D03*
X131496001Y-64786600D03*
X116256001Y-82566600D03*
X131496001Y-67326600D03*
X116256001Y-80026600D03*
X131496001Y-69866600D03*
X116256001Y-77486600D03*
X131496001Y-72406600D03*
X116256001Y-74946600D03*
X131496001Y-74946600D03*
X116256001Y-72406600D03*
X131496001Y-77486600D03*
X116256001Y-69866600D03*
X131496001Y-80026600D03*
X116256001Y-67326600D03*
X131496001Y-82566600D03*
X116256001Y-64786600D03*
X131496001Y-85106600D03*
X116256001Y-62246600D03*
X131496001Y-87646600D03*
X116256001Y-59706600D03*
X131496001Y-90186600D03*
X116256001Y-57166600D03*
X131496001Y-92726600D03*
G36*
G01*
X114802001Y-55426600D02*
X114802001Y-53826600D01*
G75*
G02*
X115056001Y-53572600I254000J0D01*
G01*
X117456001Y-53572600D01*
G75*
G02*
X117710001Y-53826600I0J-254000D01*
G01*
X117710001Y-55426600D01*
G75*
G02*
X117456001Y-55680600I-254000J0D01*
G01*
X115056001Y-55680600D01*
G75*
G02*
X114802001Y-55426600I0J254000D01*
G01*
G37*
G36*
G01*
X82425540Y-48399700D02*
X84305140Y-48399700D01*
G75*
G02*
X84559140Y-48653700I0J-254000D01*
G01*
X84559140Y-50533300D01*
G75*
G02*
X84305140Y-50787300I-254000J0D01*
G01*
X82425540Y-50787300D01*
G75*
G02*
X82171540Y-50533300I0J254000D01*
G01*
X82171540Y-48653700D01*
G75*
G02*
X82425540Y-48399700I254000J0D01*
G01*
G37*
D12*
X83365340Y-52133500D03*
X83365340Y-54673500D03*
X83365340Y-57213500D03*
X83365340Y-59753500D03*
X83365340Y-62293500D03*
X83365340Y-64833500D03*
X83365340Y-67373500D03*
X83365340Y-69913500D03*
X83365340Y-72453500D03*
X83365340Y-74993500D03*
X83365340Y-77533500D03*
X83365340Y-80073500D03*
X83365340Y-82613500D03*
X83365340Y-85153500D03*
X83365340Y-87693500D03*
X83365340Y-90233500D03*
X83365340Y-92773500D03*
X83365340Y-95313500D03*
X83365340Y-97853500D03*
X98605340Y-97853500D03*
X98605340Y-95313500D03*
X98605340Y-92773500D03*
X98605340Y-90233500D03*
X98605340Y-87693500D03*
X98605340Y-85153500D03*
X98605340Y-82613500D03*
X98605340Y-80073500D03*
X98605340Y-77533500D03*
X98605340Y-74993500D03*
X98605340Y-72453500D03*
X98605340Y-69913500D03*
X98605340Y-67373500D03*
X98605340Y-64833500D03*
X98605340Y-62293500D03*
X98605340Y-59753500D03*
X98605340Y-57213500D03*
X98605340Y-54673500D03*
X98605340Y-52133500D03*
X98605340Y-49593500D03*
D13*
X161290000Y-119380000D03*
X151130000Y-119380000D03*
G36*
G01*
X46009560Y-60773310D02*
X33009840Y-60773310D01*
G75*
G02*
X32755840Y-60519310I0J254000D01*
G01*
X32755840Y-59419490D01*
G75*
G02*
X33009840Y-59165490I254000J0D01*
G01*
X46009560Y-59165490D01*
G75*
G02*
X46263560Y-59419490I0J-254000D01*
G01*
X46263560Y-60519310D01*
G75*
G02*
X46009560Y-60773310I-254000J0D01*
G01*
G37*
G36*
G01*
X46009560Y-63773050D02*
X33009840Y-63773050D01*
G75*
G02*
X32755840Y-63519050I0J254000D01*
G01*
X32755840Y-62419230D01*
G75*
G02*
X33009840Y-62165230I254000J0D01*
G01*
X46009560Y-62165230D01*
G75*
G02*
X46263560Y-62419230I0J-254000D01*
G01*
X46263560Y-63519050D01*
G75*
G02*
X46009560Y-63773050I-254000J0D01*
G01*
G37*
G36*
G01*
X46009560Y-66775330D02*
X33009840Y-66775330D01*
G75*
G02*
X32755840Y-66521330I0J254000D01*
G01*
X32755840Y-65421510D01*
G75*
G02*
X33009840Y-65167510I254000J0D01*
G01*
X46009560Y-65167510D01*
G75*
G02*
X46263560Y-65421510I0J-254000D01*
G01*
X46263560Y-66521330D01*
G75*
G02*
X46009560Y-66775330I-254000J0D01*
G01*
G37*
G36*
G01*
X46009560Y-69775070D02*
X33009840Y-69775070D01*
G75*
G02*
X32755840Y-69521070I0J254000D01*
G01*
X32755840Y-68421250D01*
G75*
G02*
X33009840Y-68167250I254000J0D01*
G01*
X46009560Y-68167250D01*
G75*
G02*
X46263560Y-68421250I0J-254000D01*
G01*
X46263560Y-69521070D01*
G75*
G02*
X46009560Y-69775070I-254000J0D01*
G01*
G37*
G36*
G01*
X46009560Y-72774810D02*
X33009840Y-72774810D01*
G75*
G02*
X32755840Y-72520810I0J254000D01*
G01*
X32755840Y-71420990D01*
G75*
G02*
X33009840Y-71166990I254000J0D01*
G01*
X46009560Y-71166990D01*
G75*
G02*
X46263560Y-71420990I0J-254000D01*
G01*
X46263560Y-72520810D01*
G75*
G02*
X46009560Y-72774810I-254000J0D01*
G01*
G37*
G36*
G01*
X46009560Y-75774550D02*
X33009840Y-75774550D01*
G75*
G02*
X32755840Y-75520550I0J254000D01*
G01*
X32755840Y-74420730D01*
G75*
G02*
X33009840Y-74166730I254000J0D01*
G01*
X46009560Y-74166730D01*
G75*
G02*
X46263560Y-74420730I0J-254000D01*
G01*
X46263560Y-75520550D01*
G75*
G02*
X46009560Y-75774550I-254000J0D01*
G01*
G37*
G36*
G01*
X46009560Y-78774290D02*
X33009840Y-78774290D01*
G75*
G02*
X32755840Y-78520290I0J254000D01*
G01*
X32755840Y-77420470D01*
G75*
G02*
X33009840Y-77166470I254000J0D01*
G01*
X46009560Y-77166470D01*
G75*
G02*
X46263560Y-77420470I0J-254000D01*
G01*
X46263560Y-78520290D01*
G75*
G02*
X46009560Y-78774290I-254000J0D01*
G01*
G37*
G36*
G01*
X46009560Y-81774030D02*
X33009840Y-81774030D01*
G75*
G02*
X32755840Y-81520030I0J254000D01*
G01*
X32755840Y-80420210D01*
G75*
G02*
X33009840Y-80166210I254000J0D01*
G01*
X46009560Y-80166210D01*
G75*
G02*
X46263560Y-80420210I0J-254000D01*
G01*
X46263560Y-81520030D01*
G75*
G02*
X46009560Y-81774030I-254000J0D01*
G01*
G37*
G36*
G01*
X46009560Y-84773770D02*
X33009840Y-84773770D01*
G75*
G02*
X32755840Y-84519770I0J254000D01*
G01*
X32755840Y-83419950D01*
G75*
G02*
X33009840Y-83165950I254000J0D01*
G01*
X46009560Y-83165950D01*
G75*
G02*
X46263560Y-83419950I0J-254000D01*
G01*
X46263560Y-84519770D01*
G75*
G02*
X46009560Y-84773770I-254000J0D01*
G01*
G37*
G36*
G01*
X46009560Y-87773510D02*
X33009840Y-87773510D01*
G75*
G02*
X32755840Y-87519510I0J254000D01*
G01*
X32755840Y-86419690D01*
G75*
G02*
X33009840Y-86165690I254000J0D01*
G01*
X46009560Y-86165690D01*
G75*
G02*
X46263560Y-86419690I0J-254000D01*
G01*
X46263560Y-87519510D01*
G75*
G02*
X46009560Y-87773510I-254000J0D01*
G01*
G37*
G36*
G01*
X46009560Y-90773250D02*
X33009840Y-90773250D01*
G75*
G02*
X32755840Y-90519250I0J254000D01*
G01*
X32755840Y-89419430D01*
G75*
G02*
X33009840Y-89165430I254000J0D01*
G01*
X46009560Y-89165430D01*
G75*
G02*
X46263560Y-89419430I0J-254000D01*
G01*
X46263560Y-90519250D01*
G75*
G02*
X46009560Y-90773250I-254000J0D01*
G01*
G37*
G36*
G01*
X46009560Y-93772990D02*
X33009840Y-93772990D01*
G75*
G02*
X32755840Y-93518990I0J254000D01*
G01*
X32755840Y-92419170D01*
G75*
G02*
X33009840Y-92165170I254000J0D01*
G01*
X46009560Y-92165170D01*
G75*
G02*
X46263560Y-92419170I0J-254000D01*
G01*
X46263560Y-93518990D01*
G75*
G02*
X46009560Y-93772990I-254000J0D01*
G01*
G37*
G36*
G01*
X46009560Y-96775270D02*
X33009840Y-96775270D01*
G75*
G02*
X32755840Y-96521270I0J254000D01*
G01*
X32755840Y-95421450D01*
G75*
G02*
X33009840Y-95167450I254000J0D01*
G01*
X46009560Y-95167450D01*
G75*
G02*
X46263560Y-95421450I0J-254000D01*
G01*
X46263560Y-96521270D01*
G75*
G02*
X46009560Y-96775270I-254000J0D01*
G01*
G37*
G36*
G01*
X46009560Y-99775010D02*
X33009840Y-99775010D01*
G75*
G02*
X32755840Y-99521010I0J254000D01*
G01*
X32755840Y-98421190D01*
G75*
G02*
X33009840Y-98167190I254000J0D01*
G01*
X46009560Y-98167190D01*
G75*
G02*
X46263560Y-98421190I0J-254000D01*
G01*
X46263560Y-99521010D01*
G75*
G02*
X46009560Y-99775010I-254000J0D01*
G01*
G37*
G36*
G01*
X46009560Y-102774750D02*
X33009840Y-102774750D01*
G75*
G02*
X32755840Y-102520750I0J254000D01*
G01*
X32755840Y-101420930D01*
G75*
G02*
X33009840Y-101166930I254000J0D01*
G01*
X46009560Y-101166930D01*
G75*
G02*
X46263560Y-101420930I0J-254000D01*
G01*
X46263560Y-102520750D01*
G75*
G02*
X46009560Y-102774750I-254000J0D01*
G01*
G37*
G36*
G01*
X46009560Y-105774490D02*
X33009840Y-105774490D01*
G75*
G02*
X32755840Y-105520490I0J254000D01*
G01*
X32755840Y-104420670D01*
G75*
G02*
X33009840Y-104166670I254000J0D01*
G01*
X46009560Y-104166670D01*
G75*
G02*
X46263560Y-104420670I0J-254000D01*
G01*
X46263560Y-105520490D01*
G75*
G02*
X46009560Y-105774490I-254000J0D01*
G01*
G37*
G36*
G01*
X46009560Y-108774230D02*
X33009840Y-108774230D01*
G75*
G02*
X32755840Y-108520230I0J254000D01*
G01*
X32755840Y-107420410D01*
G75*
G02*
X33009840Y-107166410I254000J0D01*
G01*
X46009560Y-107166410D01*
G75*
G02*
X46263560Y-107420410I0J-254000D01*
G01*
X46263560Y-108520230D01*
G75*
G02*
X46009560Y-108774230I-254000J0D01*
G01*
G37*
X72443340Y-110934500D03*
G36*
G01*
X71554340Y-119951500D02*
X73332340Y-119951500D01*
G75*
G02*
X73586340Y-120205500I0J-254000D01*
G01*
X73586340Y-121983500D01*
G75*
G02*
X73332340Y-122237500I-254000J0D01*
G01*
X71554340Y-122237500D01*
G75*
G02*
X71300340Y-121983500I0J254000D01*
G01*
X71300340Y-120205500D01*
G75*
G02*
X71554340Y-119951500I254000J0D01*
G01*
G37*
D14*
X161290000Y-104140000D03*
X156210000Y-104140000D03*
G36*
G01*
X162433000Y-109601000D02*
X162433000Y-111379000D01*
G75*
G02*
X162179000Y-111633000I-254000J0D01*
G01*
X160401000Y-111633000D01*
G75*
G02*
X160147000Y-111379000I0J254000D01*
G01*
X160147000Y-109601000D01*
G75*
G02*
X160401000Y-109347000I254000J0D01*
G01*
X162179000Y-109347000D01*
G75*
G02*
X162433000Y-109601000I0J-254000D01*
G01*
G37*
D13*
X156210000Y-110490000D03*
M02*
